<svg width="26" height="25" viewBox="0 0 26 25" fill="none" xmlns="http://www.w3.org/2000/svg">
<path d="M7.97682 18.6497C6.91528 18.5896 6.93527 16.9364 7.97677 16.879C10.927 16.8904 18.7086 16.8821 21.7527 16.8844C22.5853 16.8844 23.2976 16.2571 23.4848 15.3589L25.2134 7.07127C25.3124 6.59675 25.2125 6.10561 24.9393 5.72388C24.6662 5.34215 24.2574 5.12013 23.8175 5.12013C22.5929 5.12013 12.1981 5.06803 6.87383 5.04453L6.02984 1.57719C5.82724 0.748592 5.14431 0.169922 4.36904 0.169922H1.66535C1.27201 0.169922 0.953125 0.523002 0.953125 0.958515C0.953125 1.39403 1.27201 1.74711 1.66535 1.74711H4.36904C4.50251 1.74711 4.62002 1.84673 4.65473 1.98852L7.89605 15.304C7.32613 15.3269 6.79529 15.5836 6.39274 16.0358C5.96978 16.511 5.74263 17.1401 5.75312 17.8072C5.77411 19.1414 6.77165 20.2268 7.97682 20.2268H9.01534C8.86097 20.5856 8.77432 20.9866 8.77432 21.4097C8.77432 22.9317 9.8926 24.1699 11.2672 24.1699C12.6418 24.1699 13.7601 22.9317 13.7601 21.4097C13.7601 20.9866 13.6734 20.5856 13.519 20.2268H18.0163C17.862 20.5854 17.7754 20.9863 17.7754 21.4093C17.7754 22.9313 18.8937 24.1695 20.2683 24.1695C21.6428 24.1695 22.7612 22.9313 22.7612 21.4093C22.7612 20.9699 22.6674 20.5543 22.5017 20.1852C22.7836 20.0801 22.9868 19.7857 22.9868 19.4383C22.9868 19.0027 22.6679 18.6497 22.2746 18.6497H7.97682ZM12.3356 21.4098C12.3356 22.0621 11.8563 22.5928 11.2671 22.5928C10.678 22.5928 10.1987 22.0621 10.1987 21.4098C10.1987 20.7578 10.6775 20.2274 11.2662 20.2268H11.268C11.8568 20.2274 12.3356 20.7578 12.3356 21.4098ZM20.2683 22.5924C19.6792 22.5924 19.1999 22.0616 19.1999 21.4094C19.1999 20.7635 19.6698 20.2372 20.251 20.2268H20.2857C20.8669 20.2372 21.3368 20.7635 21.3368 21.4094C21.3368 22.0616 20.8575 22.5924 20.2683 22.5924ZM23.8228 6.7031C23.827 6.70899 23.8264 6.71178 23.8255 6.7163L23.0972 10.2085H20.6309L21.0508 6.68486L23.8118 6.69716C23.8161 6.69727 23.8186 6.69727 23.8228 6.7031ZM16.48 15.3072V11.7856H19.0061L18.5864 15.3072H16.48ZM12.9482 15.3072L12.5251 11.7856H15.0555V15.3072H12.9482ZM9.66949 15.3072H9.66726C9.49366 15.3071 9.34073 15.1775 9.29557 14.9928L8.51488 11.7856H11.088L11.5112 15.3072H9.66949ZM12.3355 10.2085L11.9072 6.64412L15.0555 6.65815V10.2085H12.3355ZM16.48 10.2085V6.66451L19.6148 6.6785L19.1941 10.2085H16.48ZM10.4694 6.63765L10.8985 10.2085H8.13095L7.25824 6.6233L10.4694 6.63765ZM21.7527 15.3072H20.0231L20.4428 11.7856H22.7682L22.0969 15.004C22.0597 15.1825 21.9181 15.3072 21.7527 15.3072Z" fill="white"/>
</svg>
