<svg width="24" height="15" viewBox="0 0 24 15" fill="none" xmlns="http://www.w3.org/2000/svg">
<path d="M12.9365 13.717L23.6166 3.03666C23.8638 2.78964 24 2.45988 24 2.10828C24 1.75667 23.8638 1.42692 23.6166 1.17989L22.8303 0.393363C22.3179 -0.118438 21.4851 -0.118438 20.9735 0.393362L12.005 9.36187L3.02651 0.383409C2.77929 0.136387 2.44974 -2.14097e-06 2.09832 -2.17588e-06C1.74652 -2.21083e-06 1.41696 0.136387 1.16955 0.383409L0.383411 1.16994C0.136194 1.41716 -1.73532e-07 1.74672 -2.08464e-07 2.09832C-2.43395e-07 2.44993 0.136194 2.77968 0.383411 3.02671L11.0733 13.717C11.3213 13.9646 11.6524 14.1006 12.0044 14.0998C12.3578 14.1006 12.6887 13.9646 12.9365 13.717Z" fill="#3C4759" fill-opacity="0.7"/>
</svg>
