<svg width="27" height="27" viewBox="0 0 27 27" fill="none" xmlns="http://www.w3.org/2000/svg">
<path d="M13.417 21.1664L14.4536 19.456L13.417 18.8278L12.3804 19.456L13.417 21.1664ZM5.16699 26.1664L3.21931 25.712L2.13945 30.34L6.2036 27.8768L5.16699 26.1664ZM7.35449 16.7914L9.30217 17.2459L9.57572 16.0736L8.66782 15.2831L7.35449 16.7914ZM0.104492 10.4789L-0.0648324 8.48612L-4.77077 8.88597L-1.20883 11.9873L0.104492 10.4789ZM9.66699 9.66644L9.83632 11.6593L11.0359 11.5573L11.5073 10.4496L9.66699 9.66644ZM13.417 0.853943L15.2573 0.0708323L13.417 -4.25389L11.5767 0.0708323L13.417 0.853943ZM17.167 9.66644L15.3267 10.4496L15.7981 11.5573L16.9977 11.6593L17.167 9.66644ZM26.7295 10.4789L28.0428 11.9873L31.6048 8.88597L26.8988 8.48612L26.7295 10.4789ZM19.4795 16.7914L18.1662 15.2831L17.2583 16.0736L17.5318 17.2459L19.4795 16.7914ZM21.667 26.1664L20.6304 27.8768L24.6945 30.34L23.6147 25.712L21.667 26.1664ZM12.3804 19.456L4.13039 24.456L6.2036 27.8768L14.4536 22.8768L12.3804 19.456ZM7.11467 26.6209L9.30217 17.2459L5.40681 16.337L3.21931 25.712L7.11467 26.6209ZM8.66782 15.2831L1.41782 8.97057L-1.20883 11.9873L6.04117 18.2998L8.66782 15.2831ZM0.273817 12.4718L9.83632 11.6593L9.49767 7.67362L-0.0648324 8.48612L0.273817 12.4718ZM11.5073 10.4496L15.2573 1.63705L11.5767 0.0708323L7.82668 8.88333L11.5073 10.4496ZM11.5767 1.63705L15.3267 10.4496L19.0073 8.88333L15.2573 0.0708323L11.5767 1.63705ZM16.9977 11.6593L26.5602 12.4718L26.8988 8.48612L17.3363 7.67362L16.9977 11.6593ZM25.4162 8.97057L18.1662 15.2831L20.7928 18.2998L28.0428 11.9873L25.4162 8.97057ZM17.5318 17.2459L19.7193 26.6209L23.6147 25.712L21.4272 16.337L17.5318 17.2459ZM22.7036 24.456L14.4536 19.456L12.3804 22.8768L20.6304 27.8768L22.7036 24.456Z" fill="#BCC3D4"/>
</svg>
