<svg width="49" height="48" viewBox="0 0 49 48" fill="none" xmlns="http://www.w3.org/2000/svg">
<path fill-rule="evenodd" clip-rule="evenodd" d="M0.854126 0.139433H48.0128V25.5968V32.4901V47.2981H0.854126V23.2994V20.0168V0.139433Z" fill="#3B6DBE"/>
<path fill-rule="evenodd" clip-rule="evenodd" d="M10.0084 33.0015V25.5975H17.8484L18.6898 26.6935L19.5578 25.5975H48.0124V32.4908C48.0124 32.4908 47.2684 32.9935 46.4084 33.0015H30.6524L29.7031 31.8348V33.0015H26.5964V31.0095C26.5964 31.0095 26.1724 31.2868 25.2538 31.2868H24.1964V33.0015H19.4911L18.6511 31.8815L17.7991 33.0015H10.0084Z" fill="white"/>
<path fill-rule="evenodd" clip-rule="evenodd" d="M0.854126 20.0169L2.62213 15.8956H5.67946L6.68213 18.2049V15.8956H10.4835L11.0795 17.5636L11.6595 15.8956H28.7181V16.7342C28.7181 16.7342 29.6155 15.8956 31.0901 15.8956L36.6248 15.9142L37.6115 18.1929V15.8956H40.7915L41.6661 17.2049V15.8956H44.8768V23.2996H41.6661L40.8275 21.9862V23.2996H36.1555L35.6861 22.1316H34.4288L33.9661 23.2996H30.7981C29.5301 23.2996 28.7181 22.4782 28.7181 22.4782V23.2996H23.9408L22.9928 22.1316V23.2996H5.22613L4.75679 22.1316H3.50479L3.03813 23.2996H0.854126V20.0169Z" fill="white"/>
<path fill-rule="evenodd" clip-rule="evenodd" d="M4.12958 18.0982L4.90958 20.0382H3.34825L4.12958 18.0982ZM3.24692 16.8076L0.862915 22.3516H2.41491L2.85492 21.2422H5.41358L5.85091 22.3516H7.43758L5.05491 16.8076H3.24692Z" fill="#3B6DBE"/>
<path fill-rule="evenodd" clip-rule="evenodd" d="M7.60156 22.3508V16.8068L9.8069 16.8162L11.0909 20.3895L12.3429 16.8068H14.5309V22.3508H13.1456V18.2668L11.6762 22.3508H10.4616L8.98823 18.2668V22.3508H7.60156Z" fill="#3B6DBE"/>
<path fill-rule="evenodd" clip-rule="evenodd" d="M15.4797 22.3508V16.8068H20.0024V18.0468H16.8797V18.9948H19.9291V20.1628H16.8797V21.1482H20.0024V22.3508H15.4797Z" fill="#3B6DBE"/>
<path fill-rule="evenodd" clip-rule="evenodd" d="M22.1907 18.0481H23.7747C24.1547 18.0481 24.4307 18.3454 24.4307 18.6321C24.4307 19.0001 24.0734 19.2147 23.7961 19.2147H22.1907V18.0481ZM20.8041 16.8081V22.3521H22.1907V20.3827H22.7734L24.4361 22.3521H26.1294L24.3054 20.3094C25.0534 20.2467 25.8267 19.6041 25.8267 18.6067C25.8267 17.4401 24.9107 16.8081 23.8881 16.8081H20.8041Z" fill="#3B6DBE"/>
<path fill-rule="evenodd" clip-rule="evenodd" d="M27.8066 22.3506H26.3906V16.8066H27.8066V22.3506Z" fill="#3B6DBE"/>
<path fill-rule="evenodd" clip-rule="evenodd" d="M31.1628 22.3508H30.8574C29.3801 22.3508 28.4814 21.1868 28.4814 19.6015C28.4814 17.9775 29.3694 16.8068 31.2361 16.8068H32.7681V18.1202H31.1801C30.4214 18.1202 29.8854 18.7122 29.8854 19.6162C29.8854 20.6895 30.4988 21.1402 31.3814 21.1402H31.7454L31.1628 22.3508Z" fill="#3B6DBE"/>
<path fill-rule="evenodd" clip-rule="evenodd" d="M35.0605 18.0982L35.8405 20.0382H34.2792L35.0605 18.0982ZM34.1778 16.8076L31.7938 22.3516H33.3458L33.7858 21.2422H36.3445L36.7818 22.3516H38.3685L35.9858 16.8076H34.1778Z" fill="#3B6DBE"/>
<path fill-rule="evenodd" clip-rule="evenodd" d="M38.5299 22.3508V16.8068H40.2926L42.5419 20.2908V16.8068H43.9286V22.3508H42.2232L39.9166 18.7762V22.3508H38.5299Z" fill="#3B6DBE"/>
<path fill-rule="evenodd" clip-rule="evenodd" d="M10.957 32.0527V26.5087H15.4797V27.7487H12.357V28.6967H15.4064V29.8647H12.357V30.8487H15.4797V32.0527H10.957Z" fill="#3B6DBE"/>
<path fill-rule="evenodd" clip-rule="evenodd" d="M33.1179 32.0527V26.5087H37.6406V27.7487H34.5179V28.6967H37.5526V29.8647H34.5179V30.8487H37.6406V32.0527H33.1179Z" fill="#3B6DBE"/>
<path fill-rule="evenodd" clip-rule="evenodd" d="M15.6549 32.0527L17.8576 29.3154L15.6029 26.5087H17.3496L18.6909 28.2434L20.0389 26.5087H21.7162L19.4909 29.2807L21.6976 32.0527H19.9522L18.6482 30.3461L17.3762 32.0527H15.6549Z" fill="#3B6DBE"/>
<path fill-rule="evenodd" clip-rule="evenodd" d="M23.2845 27.7635H24.8205C25.2205 27.7635 25.5058 28.0075 25.5058 28.4022C25.5058 28.7715 25.2218 29.0409 24.8165 29.0409H23.2845V27.7635ZM21.8618 26.5102V32.0542H23.2845V30.3035H24.7431C25.9778 30.3035 26.9138 29.6489 26.9138 28.3742C26.9138 27.3195 26.1791 26.5102 24.9231 26.5102H21.8618Z" fill="#3B6DBE"/>
<path fill-rule="evenodd" clip-rule="evenodd" d="M28.9017 27.7492H30.4857C30.8657 27.7492 31.1417 28.0466 31.1417 28.3319C31.1417 28.7012 30.7843 28.9159 30.507 28.9159H28.9017V27.7492ZM27.515 26.5092V32.0532H28.9017V30.0826H29.4843L31.147 32.0532H32.8403L31.0163 30.0106C31.7657 29.9466 32.5377 29.3052 32.5377 28.3066C32.5377 27.1412 31.6217 26.5092 30.599 26.5092H27.515Z" fill="#3B6DBE"/>
<path fill-rule="evenodd" clip-rule="evenodd" d="M38.2818 32.0527V30.8487H41.0565C41.4658 30.8487 41.6432 30.6274 41.6432 30.3847C41.6432 30.1514 41.4672 29.9154 41.0565 29.9154H39.8032C38.7125 29.9154 38.1058 29.2514 38.1058 28.2554C38.1058 27.3661 38.6618 26.5087 40.2805 26.5087H42.9792L42.3965 27.7567H40.0618C39.6152 27.7567 39.4778 27.9914 39.4778 28.2141C39.4778 28.4434 39.6485 28.6967 39.9885 28.6967H41.3018C42.5165 28.6967 43.0432 29.3861 43.0432 30.2887C43.0432 31.2581 42.4565 32.0527 41.2365 32.0527H38.2818Z" fill="#3B6DBE"/>
<path fill-rule="evenodd" clip-rule="evenodd" d="M43.3691 32.0527V30.8487H46.0251C46.4358 30.8487 46.6131 30.6274 46.6131 30.3847C46.6131 30.1514 46.4358 29.9154 46.0251 29.9154H44.8891C43.7998 29.9154 43.1931 29.2514 43.1931 28.2554C43.1931 27.3661 43.7491 26.5087 45.3678 26.5087H48.0131L47.4291 27.7567H45.1491C44.7024 27.7567 44.5651 27.9914 44.5651 28.2141C44.5651 28.4434 44.7344 28.6967 45.0758 28.6967H46.2718C47.4864 28.6967 48.0131 29.3861 48.0131 30.2887C48.0131 31.2581 47.4251 32.0527 46.2051 32.0527H43.3691Z" fill="#3B6DBE"/>
</svg>
