<svg width="64" height="44" viewBox="0 0 64 44" fill="none" xmlns="http://www.w3.org/2000/svg">
<path d="M34.399 25.1588C41.2444 25.1921 47.4923 19.5775 47.4923 12.7468C47.4923 5.27746 41.2444 0.11479 34.399 0.116123H28.507C21.5804 0.11479 15.8777 5.27879 15.8777 12.7468C15.8777 19.5788 21.5804 25.1921 28.507 25.1588H34.399Z" fill="#004491"/>
<path d="M28.5358 1.1523C22.2051 1.15364 17.0758 6.2843 17.0745 12.6163C17.0758 18.947 22.2051 24.075 28.5358 24.0776C34.8678 24.075 39.9985 18.947 39.9985 12.6163C39.9985 6.2843 34.8678 1.15364 28.5358 1.1523ZM21.2705 12.6163C21.2771 9.52164 23.2091 6.88297 25.9345 5.83497V19.395C23.2091 18.347 21.2771 15.7096 21.2705 12.6163ZM31.1358 19.3976V5.83497C33.8625 6.8803 35.7971 9.5203 35.8025 12.6163C35.7971 15.7123 33.8625 18.3496 31.1358 19.3976Z" fill="white"/>
<path d="M1.77532 27.4947C1.77532 26.3041 1.15265 26.3827 0.557983 26.3707V26.0254C1.07532 26.0507 1.60332 26.0507 2.12065 26.0507C2.67665 26.0507 3.42998 26.0254 4.41132 26.0254C7.83932 26.0254 9.70598 28.3147 9.70598 30.6601C9.70598 31.9707 8.93798 35.2681 4.25132 35.2681C3.57798 35.2681 2.95398 35.2414 2.33132 35.2414C1.73665 35.2414 1.15265 35.2534 0.557983 35.2681V34.9227C1.35265 34.8441 1.73665 34.8174 1.77532 33.9161V27.4947ZM3.07265 33.7054C3.07265 34.7241 3.80198 34.8441 4.44998 34.8441C7.30998 34.8441 8.24865 32.6854 8.24865 30.7134C8.24865 28.2374 6.66065 26.4507 4.10598 26.4507C3.56198 26.4507 3.31132 26.4894 3.07265 26.5027V33.7054Z" fill="#231F20"/>
<path d="M10.1699 34.9231H10.4206C10.7913 34.9231 11.0566 34.9231 11.0566 34.4844V30.8978C11.0566 30.3151 10.8593 30.2351 10.3673 29.9724V29.7591C10.9899 29.5738 11.7326 29.3231 11.7846 29.2831C11.8779 29.2298 11.9566 29.2164 12.0246 29.2164C12.0886 29.2164 12.1166 29.2964 12.1166 29.4031V34.4844C12.1166 34.9231 12.4073 34.9231 12.7779 34.9231H13.0033V35.2671C12.5526 35.2671 12.0886 35.2404 11.6139 35.2404C11.1366 35.2404 10.6593 35.2538 10.1699 35.2671V34.9231ZM11.5859 27.1778C11.2419 27.1778 10.9379 26.8604 10.9379 26.5164C10.9379 26.1844 11.2553 25.8791 11.5859 25.8791C11.9299 25.8791 12.2353 26.1578 12.2353 26.5164C12.2353 26.8738 11.9433 27.1778 11.5859 27.1778" fill="#231F20"/>
<path d="M14.261 30.9772C14.261 30.4878 14.1157 30.3558 13.4944 30.1038V29.8532C14.0624 29.6678 14.605 29.4945 15.2397 29.2172C15.281 29.2172 15.3197 29.2438 15.3197 29.3478V30.2092C16.0744 29.6678 16.7237 29.2172 17.6117 29.2172C18.7357 29.2172 19.133 30.0372 19.133 31.0705V34.4852C19.133 34.9225 19.425 34.9225 19.7944 34.9225H20.0344V35.2678C19.569 35.2678 19.1064 35.2412 18.6304 35.2412C18.153 35.2412 17.677 35.2545 17.1997 35.2678V34.9225H17.4384C17.809 34.9225 18.073 34.9225 18.073 34.4852V31.0572C18.073 30.3025 17.6117 29.9318 16.8557 29.9318C16.433 29.9318 15.757 30.2758 15.3197 30.5678V34.4852C15.3197 34.9225 15.6117 34.9225 15.9824 34.9225H16.221V35.2678C15.757 35.2678 15.293 35.2412 14.817 35.2412C14.341 35.2412 13.8637 35.2545 13.3877 35.2678V34.9225H13.625C13.997 34.9225 14.261 34.9225 14.261 34.4852V30.9772Z" fill="#231F20"/>
<path d="M21.041 31.6138C21.013 31.7325 21.013 31.9312 21.041 32.3818C21.1196 33.6392 21.9276 34.6712 22.985 34.6712C23.7143 34.6712 24.285 34.2738 24.7743 33.7845L24.9583 33.9698C24.349 34.7778 23.5943 35.4658 22.5103 35.4658C20.4036 35.4658 19.981 33.4272 19.981 32.5805C19.981 29.9845 21.729 29.2165 22.6543 29.2165C23.7276 29.2165 24.881 29.8912 24.893 31.2952C24.893 31.3752 24.893 31.4538 24.881 31.5338L24.7596 31.6138H21.041ZM23.385 31.1898C23.7143 31.1898 23.753 31.0178 23.753 30.8592C23.753 30.1832 23.3436 29.6405 22.6023 29.6405C21.7943 29.6405 21.2383 30.2352 21.0796 31.1898H23.385Z" fill="#231F20"/>
<path d="M25.1971 34.9231H25.5558C25.9251 34.9231 26.1891 34.9231 26.1891 34.4844V30.7658C26.1891 30.3564 25.6998 30.2764 25.5011 30.1698V29.9724C26.4678 29.5618 26.9985 29.2164 27.1171 29.2164C27.1958 29.2164 27.2358 29.2564 27.2358 29.3898V30.5804H27.2638C27.5931 30.0644 28.1505 29.2164 28.9571 29.2164C29.2878 29.2164 29.7118 29.4418 29.7118 29.9178C29.7118 30.2764 29.4611 30.5938 29.0905 30.5938C28.6785 30.5938 28.6785 30.2764 28.2158 30.2764C27.9905 30.2764 27.2491 30.5804 27.2491 31.3751V34.4844C27.2491 34.9231 27.5131 34.9231 27.8851 34.9231H28.6251V35.2671C27.8958 35.2538 27.3425 35.2404 26.7731 35.2404C26.2291 35.2404 25.6731 35.2538 25.1971 35.2671V34.9231Z" fill="#231F20"/>
<path d="M30.2949 33.4272C30.4669 34.3005 30.9949 35.0418 31.9629 35.0418C32.7429 35.0418 33.0349 34.5658 33.0349 34.1032C33.0349 32.5405 30.1496 33.0432 30.1496 30.9125C30.1496 30.1698 30.7456 29.2165 32.2016 29.2165C32.6243 29.2165 33.1936 29.3365 33.7109 29.6005L33.8029 30.9512H33.4976C33.3669 30.1178 32.9029 29.6418 32.0549 29.6418C31.5256 29.6418 31.0229 29.9458 31.0229 30.5138C31.0229 32.0645 34.0949 31.5872 34.0949 33.6658C34.0949 34.5378 33.3923 35.4658 31.8176 35.4658C31.2869 35.4658 30.6643 35.2805 30.2016 35.0165L30.0549 33.4938L30.2949 33.4272Z" fill="#231F20"/>
<path d="M46.0487 28.4218H45.7194C45.4661 26.8738 44.3674 26.2512 42.8861 26.2512C41.3621 26.2512 39.1501 27.2698 39.1501 30.4485C39.1501 33.1232 41.0594 35.0418 43.0967 35.0418C44.4074 35.0418 45.4941 34.1432 45.7581 32.7512L46.0634 32.8312L45.7581 34.7632C45.2021 35.1085 43.7061 35.4658 42.8314 35.4658C39.7354 35.4658 37.7754 33.4672 37.7754 30.4885C37.7754 27.7738 40.1967 25.8272 42.7927 25.8272C43.8647 25.8272 44.8981 26.1725 45.9154 26.5298L46.0487 28.4218Z" fill="#231F20"/>
<path d="M46.5266 34.9231H46.7759C47.1493 34.9231 47.4133 34.9231 47.4133 34.4844V27.1124C47.4133 26.2511 47.2159 26.2244 46.7119 26.0791V25.8671C47.2413 25.6964 47.7973 25.4578 48.0746 25.2978C48.2213 25.2191 48.3266 25.1511 48.3653 25.1511C48.4453 25.1511 48.4733 25.2311 48.4733 25.3378V34.4844C48.4733 34.9231 48.7639 34.9231 49.1346 34.9231H49.3586V35.2671C48.9093 35.2671 48.4453 35.2404 47.9693 35.2404C47.4933 35.2404 47.0159 35.2538 46.5266 35.2671V34.9231Z" fill="#231F20"/>
<path d="M55.0267 34.5383C55.0267 34.7783 55.172 34.7903 55.396 34.7903C55.556 34.7903 55.7547 34.7783 55.9267 34.7783V35.057C55.3573 35.109 54.272 35.3876 54.02 35.4663L53.9533 35.4263V34.3543C53.16 35.0023 52.5507 35.4663 51.6093 35.4663C50.8947 35.4663 50.1533 35.0023 50.1533 33.8916V30.501C50.1533 30.157 50.1013 29.825 49.36 29.7596V29.509C49.836 29.4943 50.8947 29.4156 51.0667 29.4156C51.2147 29.4156 51.2147 29.509 51.2147 29.7996V33.2143C51.2147 33.613 51.2147 34.7503 52.3653 34.7503C52.816 34.7503 53.4107 34.4063 53.9667 33.945V30.381C53.9667 30.117 53.332 29.9716 52.856 29.8396V29.601C54.0467 29.521 54.788 29.4156 54.92 29.4156C55.0267 29.4156 55.0267 29.509 55.0267 29.6543V34.5383Z" fill="#231F20"/>
<path d="M57.6608 30.1698C58.1901 29.7205 58.9061 29.2165 59.6341 29.2165C61.1701 29.2165 62.0954 30.5552 62.0954 31.9978C62.0954 33.7312 60.8248 35.4658 58.9314 35.4658C57.9528 35.4658 57.4354 35.1485 57.0914 35.0032L56.6941 35.3072L56.4168 35.1618C56.5341 34.3805 56.6021 33.6125 56.6021 32.8045V27.1125C56.6021 26.2512 56.4034 26.2245 55.9008 26.0792V25.8672C56.4301 25.6952 56.9861 25.4565 57.2634 25.2978C57.4101 25.2192 57.5154 25.1512 57.5554 25.1512C57.6341 25.1512 57.6608 25.2312 57.6608 25.3378V30.1698ZM57.6608 33.7712C57.6608 34.2738 58.1368 35.1218 59.0248 35.1218C60.4421 35.1218 61.0368 33.7312 61.0368 32.5525C61.0368 31.1232 59.9528 29.9325 58.9194 29.9325C58.4274 29.9325 58.0194 30.2498 57.6608 30.5552V33.7712Z" fill="#231F20"/>
<path d="M0.543579 42.9648H0.643579C0.903579 42.9648 1.17691 42.9301 1.17691 42.5555V38.7808C1.17691 38.4061 0.903579 38.3701 0.643579 38.3701H0.543579V38.1541C0.824912 38.1541 1.25558 38.1821 1.61025 38.1821C1.97025 38.1821 2.40225 38.1541 2.73958 38.1541V38.3701H2.63825C2.38091 38.3701 2.10625 38.4061 2.10625 38.7808V42.5555C2.10625 42.9301 2.38091 42.9648 2.63825 42.9648H2.73958V43.1821C2.39558 43.1821 1.96091 43.1541 1.60225 43.1541C1.24891 43.1541 0.824912 43.1821 0.543579 43.1821V42.9648Z" fill="#231F20"/>
<path d="M2.74008 43.2129C2.39208 43.2129 1.96142 43.1836 1.60142 43.1836C1.24942 43.1836 0.825418 43.2129 0.544085 43.2129H0.512085V43.1822V42.9649V42.9342H0.544085H0.644085C0.905418 42.9289 1.14275 42.9076 1.14542 42.5556V38.7809C1.14275 38.4289 0.905418 38.4062 0.644085 38.4009H0.512085V38.3689V38.1222H0.544085C0.825418 38.1222 1.25875 38.1502 1.60942 38.1502C1.96942 38.1502 2.40008 38.1222 2.74008 38.1222H2.77208V38.1542V38.4009H2.74008H2.64008C2.37875 38.4062 2.14008 38.4289 2.13742 38.7809V42.5556C2.14008 42.9076 2.37875 42.9289 2.64008 42.9342H2.77208V42.9649V43.2129H2.74008ZM2.70942 43.1516L2.71075 42.9969H2.64008C2.38142 42.9969 2.07608 42.9529 2.07475 42.5556V38.7809C2.07608 38.3822 2.38142 38.3382 2.64008 38.3382H2.70942V38.1849C2.37742 38.1849 1.96008 38.2129 1.60942 38.2129C1.26808 38.2129 0.853418 38.1862 0.574752 38.1849V38.3382H0.644085C0.900085 38.3382 1.20808 38.3822 1.20808 38.7809V42.5556C1.20808 42.9529 0.900085 42.9969 0.644085 42.9969H0.574752V43.1516C0.853418 43.1489 1.26142 43.1222 1.60142 43.1222C1.95342 43.1222 2.36942 43.1502 2.70942 43.1516" fill="#231F20"/>
<path d="M7.68943 41.7625L7.70409 41.7479V39.0479C7.70409 38.4572 7.29343 38.3705 7.07743 38.3705H6.91876V38.1532C7.25743 38.1532 7.58943 38.1825 7.92809 38.1825C8.22143 38.1825 8.51876 38.1532 8.81343 38.1532V38.3705H8.70676C8.40276 38.3705 8.06409 38.4279 8.06409 39.2852V42.5639C8.06409 42.8145 8.07076 43.0679 8.10543 43.2905H7.83209L4.12276 39.1545V42.1239C4.12276 42.7492 4.24543 42.9652 4.80009 42.9652H4.92276V43.1825C4.61209 43.1825 4.30409 43.1532 3.99343 43.1532C3.66943 43.1532 3.33743 43.1825 3.01343 43.1825V42.9652H3.11476C3.61076 42.9652 3.76276 42.6279 3.76276 42.0519V39.0172C3.76276 38.6145 3.43076 38.3705 3.10676 38.3705H3.01343V38.1532C3.28676 38.1532 3.56809 38.1825 3.84143 38.1825C4.05743 38.1825 4.26809 38.1532 4.48409 38.1532L7.68943 41.7625Z" fill="#231F20"/>
<path d="M8.10727 43.321L7.8086 43.3104L4.15393 39.2357V42.1237C4.16193 42.749 4.25793 42.9277 4.8006 42.9344H4.95527V42.965V43.213H4.92193C4.61127 43.213 4.3006 43.1837 3.9926 43.1837C3.67127 43.1837 3.3406 43.213 3.01393 43.213H2.98193V43.1824V42.9344H3.01393H3.11527C3.58993 42.9317 3.72727 42.6264 3.7326 42.0517V39.017C3.73127 38.6344 3.41527 38.401 3.10727 38.401H2.98193V38.3677V38.1224H3.01393C3.2886 38.1224 3.57127 38.1504 3.8406 38.1504C4.05527 38.1504 4.26327 38.1224 4.50727 38.133L7.6726 41.697V39.0477C7.6686 38.4744 7.28727 38.405 7.07793 38.401H6.88593V38.3677V38.1224H6.91793C7.25793 38.1224 7.58993 38.1504 7.92727 38.1504C8.2206 38.1504 8.51527 38.1224 8.8126 38.1224H8.8446V38.1544V38.401H8.8126H8.70593C8.4086 38.409 8.10327 38.4357 8.09393 39.285V42.5637C8.09393 42.8144 8.10193 43.065 8.1366 43.285L8.14327 43.321H8.10727ZM7.8326 43.2584H8.07127C8.03793 43.0424 8.0326 42.801 8.0326 42.5637V39.285C8.0326 38.421 8.39527 38.3384 8.70593 38.3384H8.78193V38.185C8.49793 38.1864 8.2126 38.213 7.92727 38.213C7.5966 38.213 7.2766 38.1864 6.95127 38.185L6.94993 38.3384H7.07793C7.29927 38.3384 7.73527 38.437 7.73527 39.0477L7.72593 41.7704L7.71127 41.785L7.68727 41.8077L4.48327 38.185C4.2686 38.185 4.0606 38.213 3.8406 38.213C3.57793 38.213 3.30593 38.1864 3.0446 38.185L3.04327 38.3384H3.10727C3.44593 38.3384 3.79393 38.597 3.79393 39.017V42.0517C3.79393 42.6277 3.63393 42.9957 3.11527 42.9984L3.0446 42.9957V43.1517C3.3566 43.149 3.67927 43.1224 3.9926 43.1224C4.29393 43.1224 4.59393 43.149 4.89127 43.1517V42.9984H4.8006C4.23393 42.9957 4.0926 42.749 4.09127 42.1237V39.073L7.8326 43.2584ZM7.68993 41.7624L7.7126 41.741L7.68993 41.7624ZM7.6726 41.7477V41.745L7.66727 41.7397L7.6726 41.7477Z" fill="#231F20"/>
<path d="M9.89253 38.5136C9.35119 38.5136 9.33119 38.643 9.22319 39.1683H9.00586C9.03386 38.967 9.07119 38.7656 9.09253 38.5563C9.12186 38.355 9.13653 38.1536 9.13653 37.9443H9.30986C9.36586 38.1616 9.54719 38.1536 9.74319 38.1536H13.4592C13.6539 38.1536 13.8325 38.147 13.8485 37.931L14.0205 37.959C13.9925 38.1536 13.9632 38.3483 13.9419 38.5416C13.9272 38.7363 13.9272 38.931 13.9272 39.1256L13.7112 39.2056C13.6965 38.939 13.6605 38.5136 13.1779 38.5136H11.9965V42.347C11.9965 42.903 12.2499 42.9656 12.5939 42.9656H12.7312V43.1816C12.4499 43.1816 11.9459 43.1536 11.5579 43.1536C11.1259 43.1536 10.6205 43.1816 10.3392 43.1816V42.9656H10.4752C10.8739 42.9656 11.0739 42.9296 11.0739 42.3616V38.5136H9.89253Z" fill="#231F20"/>
<path d="M12.7324 43.2129C12.4484 43.2129 11.9444 43.1849 11.5577 43.1849C11.1257 43.1849 10.6217 43.2129 10.3391 43.2129H10.3097V43.1822V42.9342H10.3391H10.4764C10.8724 42.9249 11.0337 42.9196 11.0417 42.3609V38.5449H9.8924V38.5142V38.4822H11.1044V42.3609C11.1044 42.9396 10.8711 42.9969 10.4764 42.9982H10.3711V43.1502C10.6537 43.1489 11.1391 43.1222 11.5577 43.1222C11.9324 43.1222 12.4151 43.1489 12.7004 43.1502V42.9982H12.5937C12.2457 42.9969 11.9657 42.9116 11.9657 42.3462V38.4822H13.1777C13.6617 38.4836 13.7244 38.8942 13.7404 39.1609L13.8964 39.1036C13.8964 38.9169 13.8977 38.7276 13.9111 38.5382C13.9311 38.3529 13.9577 38.1689 13.9844 37.9849L13.8737 37.9662C13.8417 38.1769 13.6391 38.1862 13.4577 38.1849H9.74307H9.7044C9.5364 38.1849 9.35107 38.1769 9.28574 37.9756H9.16707C9.16574 38.1756 9.15107 38.3689 9.1244 38.5609C9.10307 38.7582 9.07107 38.9489 9.04307 39.1382H9.19774C9.2924 38.6369 9.35507 38.4742 9.8924 38.4822V38.5142V38.5449C9.3604 38.5542 9.37107 38.6436 9.25374 39.1769L9.2484 39.2009H9.22307H8.97107L8.97507 39.1636C9.0044 38.9622 9.03907 38.7609 9.06174 38.5516C9.0924 38.3516 9.1044 38.1516 9.1044 37.9449V37.9129H9.1364H9.33374L9.33907 37.9356C9.3884 38.1182 9.52174 38.1196 9.7044 38.1222H9.74307H13.4577C13.6577 38.1196 13.8057 38.1156 13.8164 37.9276L13.8191 37.8942L13.8524 37.9009L14.0551 37.9329L14.0511 37.9636C14.0231 38.1569 13.9937 38.3516 13.9724 38.5449C13.9591 38.7369 13.9591 38.9316 13.9591 39.1262V39.1476L13.9377 39.1569L13.6831 39.2489L13.6817 39.2076C13.6617 38.9369 13.6337 38.5449 13.1777 38.5449H12.0284V42.3462C12.0364 42.8889 12.2511 42.9276 12.5937 42.9342H12.7617V42.9649V43.2129H12.7324Z" fill="#231F20"/>
<path d="M14.2507 42.9648H14.3521C14.6121 42.9648 14.8854 42.9301 14.8854 42.5555V38.7808C14.8854 38.4061 14.6121 38.3701 14.3521 38.3701H14.2507V38.1541C14.6881 38.1541 15.4401 38.1821 16.0441 38.1821C16.6494 38.1821 17.3974 38.1541 17.8881 38.1541C17.8747 38.4635 17.8827 38.9395 17.9027 39.2555L17.6854 39.3141C17.6521 38.8461 17.5641 38.4715 16.8081 38.4715H15.8081V40.3581H16.6641C17.0961 40.3581 17.1894 40.1141 17.2321 39.7235H17.4481C17.4347 40.0061 17.4267 40.2861 17.4267 40.5675C17.4267 40.8408 17.4347 41.1141 17.4481 41.3875L17.2321 41.4315C17.1894 40.9995 17.1681 40.7181 16.6707 40.7181H15.8081V42.3968C15.8081 42.8648 16.2227 42.8648 16.6854 42.8648C17.5507 42.8648 17.9321 42.8075 18.1481 41.9861L18.3494 42.0355C18.2561 42.4195 18.1681 42.7995 18.1054 43.1821C17.6441 43.1821 16.8147 43.1541 16.1667 43.1541C15.5174 43.1541 14.6614 43.1821 14.2507 43.1821V42.9648Z" fill="#231F20"/>
<path d="M18.1048 43.2129C17.6421 43.2129 16.8128 43.1836 16.1675 43.1836C15.5181 43.1836 14.6621 43.2129 14.2501 43.2129H14.2195V43.1822V42.9649V42.9342H14.2501H14.3528C14.6128 42.9302 14.8501 42.9076 14.8528 42.5556V38.7809C14.8501 38.4289 14.6128 38.4062 14.3528 38.4009H14.2195V38.3702V38.1222H14.2501C14.6888 38.1222 15.4395 38.1502 16.0435 38.1502C16.6488 38.1502 17.3968 38.1222 17.8875 38.1222H17.9195L17.9181 38.1556C17.9128 38.2636 17.9101 38.3916 17.9101 38.5262C17.9101 38.7756 17.9181 39.0476 17.9328 39.2529L17.9341 39.2796L17.9101 39.2862L17.6568 39.3529L17.6555 39.3156C17.6128 38.8489 17.5501 38.5089 16.8075 38.5022H15.8381L15.8368 40.3249H16.6635C17.0781 40.3222 17.1528 40.1089 17.2008 39.7209L17.2035 39.6916H17.2328H17.4808L17.4795 39.7249C17.4661 40.0062 17.4581 40.2862 17.4581 40.5676C17.4581 40.8396 17.4661 41.1129 17.4795 41.3876L17.4808 41.4129L17.4555 41.4182L17.2035 41.4689L17.2008 41.4356C17.1515 40.9942 17.1488 40.7542 16.6715 40.7489H15.8381V42.3969C15.8381 42.8342 16.2155 42.8316 16.6861 42.8342C17.5528 42.8289 17.9008 42.7862 18.1181 41.9782L18.1248 41.9489L18.1541 41.9542L18.3861 42.0142L18.3795 42.0436C18.2861 42.4249 18.1995 42.8062 18.1341 43.1876L18.1301 43.2129H18.1048ZM18.0768 43.1502C18.1395 42.7862 18.2235 42.4222 18.3115 42.0596L18.1688 42.0236C17.9541 42.8302 17.5355 42.9022 16.6861 42.8969C16.2315 42.8969 15.7768 42.8969 15.7755 42.3969V40.6876H16.6715C17.1741 40.6822 17.2248 40.9849 17.2595 41.3956L17.4155 41.3622C17.4035 41.0982 17.3955 40.8316 17.3955 40.5676C17.3955 40.2956 17.4035 40.0262 17.4155 39.7542H17.2595C17.2208 40.1302 17.1021 40.3942 16.6635 40.3889H15.7755V38.4382H16.8075C17.5581 38.4342 17.6821 38.8209 17.7141 39.2729L17.8688 39.2316C17.8568 39.0276 17.8488 38.7676 17.8488 38.5262C17.8488 38.4036 17.8515 38.2862 17.8555 38.1849C17.3648 38.1862 16.6355 38.2129 16.0435 38.2129C15.4515 38.2129 14.7235 38.1862 14.2821 38.1849V38.3382H14.3528C14.6088 38.3382 14.9141 38.3822 14.9155 38.7809V42.5556C14.9141 42.9529 14.6088 42.9956 14.3528 42.9982H14.2821V43.1502C14.7008 43.1502 15.5328 43.1222 16.1675 43.1222C16.8021 43.1222 17.6141 43.1502 18.0768 43.1502" fill="#231F20"/>
<path d="M19.3209 38.9168C19.3209 38.3915 19.0329 38.3701 18.8089 38.3701H18.6809V38.1541C18.9102 38.1541 19.3569 38.1821 19.7956 38.1821C20.2289 38.1821 20.5742 38.1541 20.9569 38.1541C21.8622 38.1541 22.6716 38.3981 22.6716 39.4221C22.6716 40.0701 22.2382 40.4661 21.6702 40.6901L22.9022 42.5328C23.1036 42.8381 23.2462 42.9235 23.6009 42.9661V43.1821C23.3622 43.1821 23.1316 43.1541 22.8942 43.1541C22.6716 43.1541 22.4396 43.1821 22.2169 43.1821C21.6636 42.4555 21.1862 41.6768 20.7182 40.8475H20.2436V42.3901C20.2436 42.9448 20.5036 42.9661 20.8329 42.9661H20.9636V43.1821C20.5529 43.1821 20.1356 43.1541 19.7249 43.1541C19.3782 43.1541 19.0396 43.1821 18.6809 43.1821V42.9661H18.8089C19.0769 42.9661 19.3209 42.8435 19.3209 42.5768V38.9168ZM20.2436 40.5875H20.5956C21.3169 40.5875 21.7049 40.3141 21.7049 39.4648C21.7049 38.8235 21.2942 38.4141 20.6529 38.4141C20.4369 38.4141 20.3449 38.4355 20.2436 38.4421V40.5875Z" fill="#231F20"/>
<path d="M23.6009 43.2129C23.3583 43.2129 23.1289 43.1836 22.8929 43.1836C22.6743 43.1836 22.4436 43.2129 22.1916 43.2009C21.6383 42.4756 21.1663 41.7022 20.6996 40.8796H20.2743V42.3889C20.2823 42.9316 20.5009 42.9262 20.8343 42.9342H20.9956V42.9649V43.2129H20.9623C20.5503 43.2129 20.1316 43.1836 19.7236 43.1836C19.3796 43.1836 19.0423 43.2129 18.6796 43.2129H18.6489V43.1822V42.9342H18.6796H18.8089C19.0703 42.9329 19.2889 42.8196 19.2889 42.5769V38.9169C19.2836 38.4062 19.0329 38.4076 18.8089 38.4009H18.6489V38.3702V38.1222H18.6796C18.9129 38.1222 19.3569 38.1502 19.7956 38.1502C20.2276 38.1502 20.5729 38.1222 20.9569 38.1222C21.8636 38.1236 22.6996 38.3742 22.7023 39.4209C22.7023 40.0716 22.2729 40.4769 21.7169 40.7036L22.9276 42.5156C23.1289 42.8142 23.2543 42.8889 23.6049 42.9342L23.6303 42.9382V42.9649V43.2129H23.6009ZM20.2423 40.8169H20.7356L20.7436 40.8316C21.2143 41.6596 21.6863 42.4369 22.2183 43.1516C22.4369 43.1516 22.6689 43.1222 22.8929 43.1222C23.1236 43.1222 23.3449 43.1476 23.5689 43.1502V42.9929C23.2316 42.9502 23.0729 42.8502 22.8756 42.5502L21.6223 40.6756L21.6583 40.6609C22.2223 40.4382 22.6383 40.0529 22.6396 39.4209C22.6383 38.4209 21.8609 38.1889 20.9569 38.1849C20.5756 38.1849 20.2316 38.2129 19.7956 38.2129C19.3729 38.2129 18.9463 38.1862 18.7103 38.1849V38.3382H18.8089C19.0329 38.3382 19.3516 38.3756 19.3516 38.9169V42.5769C19.3516 42.8662 19.0809 42.9969 18.8089 42.9982H18.7103V43.1502C19.0569 43.1502 19.3863 43.1222 19.7236 43.1222C20.1276 43.1222 20.5329 43.1502 20.9316 43.1502V42.9982H20.8343C20.5049 42.9969 20.2116 42.9582 20.2116 42.3889V40.8169H20.2423ZM20.2423 40.6182H20.2116V38.4129L20.2396 38.4102C20.3383 38.4022 20.4356 38.3822 20.6529 38.3822C21.3089 38.3822 21.7369 38.8089 21.7383 39.4649C21.7356 40.3249 21.3223 40.6182 20.5956 40.6182H20.2423ZM20.5956 40.5569C21.3089 40.5502 21.6689 40.3036 21.6756 39.4649C21.6716 38.8369 21.2809 38.4462 20.6529 38.4436C20.4583 38.4436 20.3663 38.4609 20.2743 38.4689V40.5569H20.5956Z" fill="#231F20"/>
<path d="M28.4914 41.7625L28.5048 41.7479V39.0479C28.5048 38.4572 28.0941 38.3705 27.8781 38.3705H27.7208V38.1532C28.0594 38.1532 28.3901 38.1825 28.7288 38.1825C29.0234 38.1825 29.3181 38.1532 29.6154 38.1532V38.3705H29.5074C29.2048 38.3705 28.8661 38.4279 28.8661 39.2852V42.5639C28.8661 42.8145 28.8728 43.0679 28.9074 43.2905H28.6341L24.9248 39.1545V42.1239C24.9248 42.7492 25.0474 42.9652 25.6021 42.9652H25.7248V43.1825C25.4154 43.1825 25.1061 43.1532 24.7968 43.1532C24.4701 43.1532 24.1394 43.1825 23.8154 43.1825V42.9652H23.9154C24.4128 42.9652 24.5661 42.6279 24.5661 42.0519V39.0172C24.5661 38.6145 24.2341 38.3705 23.9088 38.3705H23.8154V38.1532C24.0888 38.1532 24.3701 38.1825 24.6434 38.1825C24.8581 38.1825 25.0688 38.1532 25.2848 38.1532L28.4914 41.7625Z" fill="#231F20"/>
<path d="M28.908 43.321L28.612 43.3117L24.956 39.2357V42.1237C24.964 42.749 25.0587 42.9277 25.6027 42.9344H25.7547V42.965V43.213H25.724C25.412 43.213 25.1027 43.1837 24.7947 43.1837C24.4734 43.1837 24.14 43.213 23.816 43.213H23.7827V43.1824V42.9344H23.816H23.916C24.3907 42.9317 24.528 42.6264 24.5334 42.0504V39.017C24.532 38.633 24.2174 38.401 23.9094 38.401H23.7827V38.369V38.1224H23.816C24.0907 38.1224 24.372 38.1504 24.644 38.1504C24.856 38.1504 25.064 38.1224 25.3067 38.1317L28.4734 41.697V39.0464C28.472 38.4744 28.088 38.4037 27.8787 38.401H27.688V38.369V38.1224H27.7187C28.06 38.1224 28.392 38.1504 28.728 38.1504C29.0214 38.1504 29.3174 38.1224 29.6147 38.1224H29.6467V38.1544V38.401H29.6147H29.5067C29.2107 38.4077 28.904 38.4357 28.896 39.285V42.5637C28.896 42.8144 28.9027 43.0637 28.9387 43.2864L28.9427 43.321H28.908ZM28.6347 43.2584H28.872C28.84 43.0424 28.8334 42.801 28.8334 42.5637V39.285C28.8334 38.421 29.1987 38.3397 29.5067 38.3384H29.5827V38.185C29.3 38.1864 29.0147 38.213 28.728 38.213C28.3974 38.213 28.0774 38.1864 27.7507 38.185V38.3384H27.8787C28.1014 38.3397 28.5374 38.437 28.5374 39.0464L28.5267 41.7704L28.512 41.785L28.4907 41.8077L25.284 38.185C25.0707 38.185 24.8627 38.213 24.644 38.213C24.3774 38.213 24.108 38.1864 23.8454 38.185V38.3384H23.9094C24.248 38.3397 24.5947 38.5957 24.5947 39.017V42.0504C24.5947 42.6277 24.4334 42.9957 23.916 42.9984L23.8454 42.997V43.1504C24.1574 43.149 24.4787 43.1224 24.7947 43.1224C25.0974 43.1224 25.396 43.149 25.6934 43.1504V42.9984H25.6027C25.0347 42.997 24.8934 42.749 24.892 42.1237V39.0744L28.6347 43.2584ZM28.4907 41.7624L28.5134 41.741L28.4907 41.7624ZM28.4734 41.7477V41.7464L28.468 41.741L28.4734 41.7477Z" fill="#231F20"/>
<path d="M30.7741 42.1523C30.7007 42.3963 30.6141 42.5856 30.6141 42.7136C30.6141 42.9296 30.9167 42.9656 31.1541 42.9656H31.2354V43.1816C30.9461 43.167 30.6514 43.1536 30.3621 43.1536C30.1034 43.1536 29.8447 43.167 29.5847 43.1816V42.9656H29.6287C29.9101 42.9656 30.1474 42.799 30.2527 42.4963L31.4074 39.191C31.5007 38.9243 31.6314 38.5643 31.6754 38.2976C31.9047 38.219 32.1927 38.0736 32.33 37.987C32.3527 37.9803 32.3647 37.9723 32.3874 37.9723C32.4087 37.9723 32.4221 37.9723 32.4381 37.995C32.4594 38.0523 32.4794 38.1176 32.5034 38.175L33.8287 41.943C33.914 42.195 34.0007 42.4616 34.094 42.679C34.1807 42.8803 34.3327 42.9656 34.5714 42.9656H34.614V43.1816C34.29 43.167 33.9647 43.1536 33.6207 43.1536C33.266 43.1536 32.906 43.167 32.538 43.1816V42.9656H32.6181C32.7834 42.9656 33.0647 42.9376 33.0647 42.7576C33.0647 42.663 33.0007 42.4683 32.9194 42.2376L32.638 41.403H31.0034L30.7741 42.1523ZM31.8247 38.9603H31.8101L31.1407 40.999H32.4874L31.8247 38.9603Z" fill="#231F20"/>
<path d="M34.6113 43.213C34.2873 43.1997 33.9633 43.1837 33.6193 43.1837C33.266 43.1837 32.9086 43.1997 32.5393 43.213L32.5073 43.2144V43.1824V42.933H32.538H32.618C32.7846 42.933 33.0313 42.8957 33.0313 42.757C33.034 42.6757 32.97 42.477 32.89 42.2477L32.6166 41.4344H31.0273L30.8033 42.161C30.73 42.4077 30.6433 42.597 30.6433 42.7144C30.646 42.8904 30.9166 42.933 31.154 42.933H31.2646V42.9664V43.2144L31.2326 43.213C30.9446 43.1997 30.65 43.1837 30.362 43.1837C30.1046 43.1837 29.8446 43.1997 29.586 43.213L29.554 43.2144V43.1824V42.933H29.5846H29.6273C29.8966 42.933 30.1193 42.7797 30.2233 42.4877L31.3766 39.181C31.4726 38.913 31.602 38.5544 31.6633 38.2677C31.89 38.1904 32.1793 38.0464 32.318 37.9584C32.338 37.9517 32.358 37.941 32.3873 37.941C32.4046 37.941 32.4433 37.945 32.4673 37.9837C32.4873 38.0424 32.51 38.1064 32.5313 38.165L33.8593 41.933C33.9433 42.185 34.0286 42.4517 34.1233 42.665C34.206 42.857 34.3393 42.933 34.5713 42.933H34.6433V42.9664V43.2144L34.6113 43.213ZM32.57 43.149C32.926 43.1357 33.2753 43.1224 33.6193 43.1224C33.9553 43.1224 34.2673 43.1357 34.582 43.149V42.9984H34.5713C34.3233 42.9997 34.154 42.9024 34.066 42.6904C33.9726 42.4717 33.8833 42.205 33.7993 41.953L32.4726 38.185C32.4513 38.1277 32.43 38.0624 32.4113 38.0117C32.4046 38.005 32.4073 38.005 32.4006 38.005H32.3873C32.3726 38.005 32.3633 38.009 32.346 38.0144C32.206 38.1037 31.9166 38.245 31.7033 38.3024C31.6593 38.5744 31.5286 38.9357 31.4353 39.2024L30.2833 42.5077C30.174 42.821 29.9206 42.9984 29.6273 42.9984H29.6166V43.149C29.862 43.1357 30.1126 43.1224 30.362 43.1224C30.6406 43.1224 30.926 43.1357 31.2006 43.149V42.9984H31.154C30.9193 42.9957 30.5913 42.969 30.5833 42.7144C30.5833 42.5717 30.6726 42.3864 30.7433 42.1437L30.774 42.153L30.7433 42.1424L30.9793 41.3717H32.6606L32.95 42.2277C33.0286 42.4597 33.0953 42.6517 33.0953 42.757C33.0846 42.9784 32.7806 42.993 32.618 42.9984H32.57V43.149ZM31.0966 41.0304L31.7873 38.929H31.81H31.8246V38.961L31.818 38.9624L31.8246 38.961V38.929H31.8473L32.5313 41.0304H31.0966ZM31.1833 40.9677H32.4446L31.8166 39.0384L31.1833 40.9677ZM31.7953 38.9704L31.81 38.9637L31.7953 38.9704Z" fill="#231F20"/>
<path d="M34.9302 38.5136C34.3902 38.5136 34.3676 38.643 34.2596 39.1683H34.0436C34.0716 38.967 34.1089 38.7656 34.1302 38.5563C34.1596 38.355 34.1729 38.1536 34.1729 37.9443H34.3476C34.4036 38.1616 34.5849 38.1536 34.7782 38.1536H38.4969C38.6889 38.1536 38.8689 38.147 38.8849 37.931L39.0582 37.959C39.0289 38.1536 39.0009 38.3483 38.9796 38.5416C38.9622 38.7363 38.9622 38.931 38.9622 39.1256L38.7462 39.2056C38.7342 38.939 38.6982 38.5136 38.2156 38.5136H37.0329V42.347C37.0329 42.903 37.2862 42.9656 37.6302 42.9656H37.7689V43.1816C37.4876 43.1816 36.9836 43.1536 36.5942 43.1536C36.1622 43.1536 35.6569 43.1816 35.3769 43.1816V42.9656H35.5129C35.9089 42.9656 36.1116 42.9296 36.1116 42.3616V38.5136H34.9302Z" fill="#231F20"/>
<path d="M37.7688 43.2129C37.4848 43.2129 36.9808 43.1849 36.5941 43.1849C36.1634 43.1849 35.6594 43.2129 35.3768 43.2129H35.3448V43.1822V42.9342H35.3768H35.5141C35.9088 42.9249 36.0701 42.9196 36.0794 42.3609L36.0781 38.5449H34.9301V38.5142V38.4822H36.1421V42.3609C36.1421 42.9396 35.9074 42.9956 35.5141 42.9969H35.4074V43.1516C35.6914 43.1489 36.1768 43.1222 36.5941 43.1222C36.9701 43.1222 37.4528 43.1489 37.7368 43.1516V42.9969H37.6301C37.2848 42.9956 37.0034 42.9129 37.0021 42.3462V38.4822H38.2154C38.6981 38.4836 38.7621 38.8942 38.7754 39.1609L38.9328 39.1036C38.9328 38.9169 38.9328 38.7276 38.9474 38.5396C38.9674 38.3542 38.9941 38.1689 39.0208 37.9862L38.9114 37.9662C38.8794 38.1769 38.6754 38.1876 38.4968 38.1849H34.7794H34.7408C34.5728 38.1862 34.3888 38.1769 34.3221 37.9742H34.2048C34.2021 38.1742 34.1888 38.3689 34.1608 38.5609C34.1408 38.7582 34.1061 38.9489 34.0781 39.1382H34.2341C34.3288 38.6369 34.3914 38.4729 34.9301 38.4822V38.5142V38.5449C34.3968 38.5542 34.4074 38.6436 34.2914 39.1769L34.2848 39.2009H34.2594H34.0074L34.0114 39.1649C34.0408 38.9622 34.0754 38.7609 34.0981 38.5529C34.1288 38.3516 34.1408 38.1516 34.1408 37.9449V37.9129H34.1728H34.3688L34.3754 37.9356C34.4261 38.1182 34.5581 38.1196 34.7408 38.1222C34.7541 38.1222 34.7661 38.1222 34.7794 38.1222H38.4968C38.6941 38.1196 38.8408 38.1156 38.8528 37.9276L38.8541 37.8942L38.8888 37.9009L39.0928 37.9329L39.0874 37.9636C39.0581 38.1569 39.0301 38.3516 39.0101 38.5449C38.9941 38.7369 38.9941 38.9316 38.9941 39.1262V39.1476L38.9728 39.1569L38.7181 39.2489V39.2076C38.6981 38.9369 38.6701 38.5449 38.2154 38.5449H37.0648V42.3462C37.0728 42.8889 37.2874 42.9276 37.6301 42.9342H37.7981V42.9649V43.2129H37.7688Z" fill="#231F20"/>
<path d="M39.3235 42.9648H39.4235C39.6848 42.9648 39.9568 42.9301 39.9568 42.5555V38.7808C39.9568 38.4061 39.6848 38.3701 39.4235 38.3701H39.3235V38.1541C39.6048 38.1541 40.0355 38.1821 40.3888 38.1821C40.7488 38.1821 41.1822 38.1541 41.5208 38.1541V38.3701H41.4195C41.1608 38.3701 40.8862 38.4061 40.8862 38.7808V42.5555C40.8862 42.9301 41.1608 42.9648 41.4195 42.9648H41.5208V43.1821C41.1755 43.1821 40.7422 43.1541 40.3822 43.1541C40.0288 43.1541 39.6048 43.1821 39.3235 43.1821V42.9648Z" fill="#231F20"/>
<path d="M41.5214 43.2129C41.1721 43.2129 40.7414 43.1836 40.3828 43.1836C40.0308 43.1836 39.6054 43.2129 39.3241 43.2129H39.2921V43.1822V42.9649V42.9342H39.3241H39.4241C39.6841 42.9302 39.9228 42.9076 39.9241 42.5556V38.7809C39.9228 38.4289 39.6841 38.4062 39.4241 38.4009H39.2921V38.3702V38.1222H39.3241C39.6054 38.1222 40.0374 38.1502 40.3881 38.1502C40.7481 38.1502 41.1801 38.1222 41.5214 38.1222H41.5508V38.1542V38.4009H41.5214H41.4201C41.1574 38.4062 40.9201 38.4289 40.9174 38.7809V42.5556C40.9201 42.9076 41.1574 42.9302 41.4201 42.9342H41.5508V42.9649V43.2129H41.5214ZM41.4894 43.1502V42.9969H41.4201C41.1614 42.9969 40.8561 42.9529 40.8561 42.5556V38.7809C40.8561 38.3822 41.1614 38.3382 41.4201 38.3382H41.4894V38.1849C41.1561 38.1862 40.7388 38.2129 40.3881 38.2129C40.0468 38.2129 39.6334 38.1862 39.3548 38.1849V38.3382H39.4241C39.6801 38.3382 39.9881 38.3822 39.9894 38.7809V42.5556C39.9881 42.9529 39.6801 42.9969 39.4241 42.9969H39.3548V43.1502C39.6321 43.1476 40.0401 43.1222 40.3828 43.1222C40.7308 43.1222 41.1481 43.1489 41.4894 43.1502" fill="#231F20"/>
<path d="M44.3939 38.0456C45.9286 38.0456 47.1526 38.9976 47.1526 40.5322C47.1526 42.1882 45.9659 43.2896 44.4299 43.2896C42.9032 43.2896 41.7366 42.2522 41.7366 40.7042C41.7366 39.2056 42.8952 38.0456 44.3939 38.0456ZM44.5019 42.9736C45.9006 42.9736 46.1432 41.7402 46.1432 40.6896C46.1432 39.6362 45.5766 38.3629 44.3792 38.3629C43.1192 38.3629 42.7446 39.4869 42.7446 40.4509C42.7446 41.7402 43.3352 42.9736 44.5019 42.9736" fill="#231F20"/>
<path d="M41.7037 40.7037C41.7077 39.1877 42.8797 38.017 44.3944 38.0144V38.045V38.0757C42.9117 38.0757 41.7677 39.2224 41.7651 40.7037C41.7677 42.2357 42.9171 43.257 44.4304 43.2584C45.9504 43.257 47.1211 42.1717 47.1224 40.5304C47.1211 39.0157 45.9171 38.0784 44.3944 38.0757V38.045V38.0144C45.9411 38.0157 47.1811 38.977 47.1837 40.5304C47.1824 42.205 45.9797 43.3184 44.4304 43.321C42.8904 43.3184 41.7077 42.2704 41.7037 40.7037ZM42.7131 40.4517C42.7157 39.481 43.0944 38.3304 44.3797 38.3304C45.6037 38.333 46.1744 39.6317 46.1757 40.6904C46.1744 41.7397 45.9264 43.0037 44.5037 43.0037V42.973V42.941C45.8731 42.9397 46.1104 41.7397 46.1131 40.6904C46.1131 39.6464 45.5504 38.3957 44.3797 38.3944C43.1437 38.3957 42.7784 39.4917 42.7757 40.4517C42.7771 41.733 43.3611 42.9397 44.5037 42.941V42.973V43.0037C43.3064 43.0024 42.7157 41.7477 42.7131 40.4517Z" fill="#231F20"/>
<path d="M52.0084 41.7625L52.0231 41.7479V39.0479C52.0231 38.4572 51.6111 38.3705 51.3951 38.3705H51.2391V38.1532C51.5764 38.1532 51.9084 38.1825 52.2457 38.1825C52.5417 38.1825 52.8364 38.1532 53.1324 38.1532V38.3705H53.0244C52.7217 38.3705 52.3817 38.4279 52.3817 39.2852V42.5639C52.3817 42.8145 52.3897 43.0679 52.4257 43.2905H52.1524L48.4417 39.1545V42.1239C48.4417 42.7492 48.5644 42.9652 49.1191 42.9652H49.2417V43.1825C48.9311 43.1825 48.6231 43.1532 48.3137 43.1532C47.9884 43.1532 47.6564 43.1825 47.3311 43.1825V42.9652H47.4324C47.9311 42.9652 48.0817 42.6279 48.0817 42.0519V39.0172C48.0817 38.6145 47.7511 38.3705 47.4257 38.3705H47.3311V38.1532C47.6057 38.1532 47.8871 38.1825 48.1604 38.1825C48.3764 38.1825 48.5857 38.1532 48.8017 38.1532L52.0084 41.7625Z" fill="#231F20"/>
<path d="M52.4264 43.321L52.1277 43.3104L48.473 39.2357V42.1237C48.481 42.749 48.577 42.9264 49.1184 42.933H49.273V42.965V43.213H49.241C48.9304 43.213 48.621 43.1837 48.313 43.1837C47.9904 43.1837 47.6584 43.213 47.3317 43.213H47.301V43.1824V42.933H47.3317H47.4344C47.9077 42.9317 48.045 42.6264 48.0504 42.0517V39.017C48.0504 38.633 47.7357 38.401 47.4264 38.401H47.301V38.369V38.1224H47.3317C47.6077 38.1224 47.889 38.1504 48.161 38.1504C48.3744 38.1504 48.581 38.1224 48.8264 38.133L51.9917 41.697V39.0477C51.989 38.4744 51.6064 38.405 51.3957 38.401H51.205V38.369V38.1224H51.237C51.5757 38.1224 51.909 38.1504 52.2437 38.1504C52.5397 38.1504 52.8344 38.1224 53.1317 38.1224H53.1637V38.1544V38.401H53.1317H53.0237C52.7277 38.409 52.421 38.4357 52.4144 39.285V42.5637C52.4144 42.8144 52.4197 43.065 52.4544 43.2864L52.461 43.321H52.4264ZM52.153 43.2584H52.389C52.357 43.0424 52.3517 42.801 52.3517 42.5637V39.285C52.3517 38.4184 52.7157 38.3397 53.0237 38.3384H53.1024V38.185C52.817 38.1864 52.533 38.213 52.2437 38.213C51.9157 38.213 51.5944 38.1864 51.269 38.185V38.3384H51.3957C51.6184 38.3397 52.053 38.4384 52.053 39.0477L52.045 41.7704L52.0304 41.785L52.009 41.8077L48.801 38.185C48.589 38.185 48.3784 38.213 48.161 38.213C47.8957 38.213 47.6237 38.1864 47.3624 38.185V38.3384H47.4264C47.765 38.3397 48.113 38.5957 48.113 39.017V42.0517C48.113 42.6277 47.9517 42.9957 47.4344 42.9984L47.3624 42.997V43.1504C47.6757 43.149 47.9957 43.1224 48.313 43.1224C48.613 43.1224 48.9117 43.149 49.2104 43.1504V42.9984H49.1184C48.553 42.997 48.4104 42.749 48.4104 42.1237V39.073L52.153 43.2584ZM52.009 41.7624L52.0304 41.741L52.009 41.7624ZM51.9917 41.7477V41.7464L51.985 41.741L51.9917 41.7477Z" fill="#231F20"/>
<path d="M54.2897 42.1523C54.219 42.3963 54.1324 42.5856 54.1324 42.7136C54.1324 42.9296 54.435 42.9656 54.6724 42.9656H54.7524V43.1816C54.4644 43.167 54.1684 43.1536 53.879 43.1536C53.6204 43.1536 53.3617 43.167 53.103 43.1816V42.9656H53.1444C53.427 42.9656 53.6644 42.799 53.771 42.4963L54.9257 39.191C55.019 38.9243 55.1497 38.5643 55.191 38.2976C55.4217 38.219 55.7084 38.0736 55.847 37.987C55.8684 37.9803 55.883 37.9723 55.9044 37.9723C55.927 37.9723 55.939 37.9723 55.9537 37.995C55.9764 38.0523 55.9977 38.1176 56.0204 38.175L57.3444 41.943C57.4297 42.195 57.5177 42.4616 57.6124 42.679C57.699 42.8803 57.851 42.9656 58.0884 42.9656H58.131V43.1816C57.807 43.167 57.483 43.1536 57.1364 43.1536C56.783 43.1536 56.423 43.167 56.055 43.1816V42.9656H56.135C56.3004 42.9656 56.583 42.9376 56.583 42.7576C56.583 42.663 56.5177 42.4683 56.4364 42.2376L56.1564 41.403H54.5217L54.2897 42.1523ZM55.343 38.9603H55.3284L54.6564 40.999H56.0057L55.343 38.9603Z" fill="#231F20"/>
<path d="M58.1283 43.213C57.8043 43.1997 57.4803 43.1837 57.1363 43.1837C56.7843 43.1837 56.4243 43.1997 56.0563 43.213L56.0256 43.2144V43.1824V42.9344H56.0549H56.1349C56.3016 42.9344 56.5496 42.8957 56.5496 42.757C56.5509 42.6757 56.4883 42.4784 56.4069 42.2477L56.1323 41.4344H54.5429L54.3203 42.161C54.2483 42.4077 54.1616 42.597 54.1629 42.713C54.1629 42.8904 54.4336 42.9344 54.6709 42.9344H54.7816V42.965V43.2144L54.7496 43.213C54.4616 43.1997 54.1656 43.1837 53.8789 43.1837C53.6216 43.1837 53.3629 43.1997 53.1029 43.213L53.0709 43.2144V43.1824V42.9344H53.1029H53.1443C53.4136 42.933 53.6376 42.7784 53.7429 42.4877L54.8949 39.181C54.9883 38.913 55.1163 38.5544 55.1803 38.269C55.4069 38.189 55.6963 38.0464 55.8363 37.9584C55.8549 37.9517 55.8763 37.9424 55.9043 37.9424C55.9243 37.941 55.9603 37.945 55.9843 37.985C56.0043 38.0424 56.0269 38.1064 56.0496 38.165L57.3749 41.933C57.4616 42.185 57.5469 42.4517 57.6403 42.6664C57.7256 42.857 57.8563 42.933 58.0869 42.9344H58.1603V42.965V43.2144L58.1283 43.213ZM56.0869 43.1504C56.4429 43.1357 56.7936 43.1224 57.1363 43.1224C57.4723 43.1224 57.7856 43.1357 58.1003 43.149L58.0989 42.9984H58.0869C57.8416 42.9984 57.6723 42.9024 57.5829 42.6904C57.4883 42.4717 57.4016 42.205 57.3163 41.9544L55.9896 38.185C55.9683 38.1277 55.9456 38.0624 55.9296 38.013C55.9229 38.005 55.9243 38.005 55.9189 38.005H55.9043C55.8883 38.005 55.8803 38.009 55.8643 38.0144C55.7229 38.1024 55.4349 38.2464 55.2216 38.3024C55.1776 38.5744 55.0456 38.9344 54.9536 39.2024L53.8003 42.5077C53.6909 42.821 53.4389 42.9984 53.1443 42.9984H53.1336V43.149C53.3816 43.1357 53.6296 43.1224 53.8789 43.1224C54.1589 43.1224 54.4429 43.1357 54.7203 43.149V42.9984H54.6709C54.4363 42.9957 54.1083 42.969 54.1003 42.713C54.1003 42.5717 54.1909 42.3877 54.2616 42.1437L54.2896 42.153L54.2616 42.1424L54.4976 41.3717H56.1776L56.4669 42.2277C56.5456 42.4597 56.6109 42.6517 56.6109 42.757C56.6003 42.9784 56.2989 42.993 56.1349 42.9984H56.0869V43.1504ZM54.6149 41.029L55.3056 38.929H55.3269H55.3429V38.961L55.3349 38.9624L55.3429 38.961V38.929H55.3656L56.0456 41.029H54.6149ZM54.7016 40.9677H55.9616L55.3336 39.0384L54.7016 40.9677ZM55.3136 38.9704L55.3269 38.9637L55.3136 38.9704Z" fill="#231F20"/>
<path d="M59.9458 42.476C59.9458 42.7653 60.1458 42.8506 60.3765 42.88C60.6725 42.9013 60.9965 42.9013 61.3285 42.8653C61.6312 42.8293 61.8898 42.6573 62.0205 42.476C62.1352 42.3173 62.1992 42.116 62.2432 41.9573H62.4525C62.3725 42.368 62.2712 42.772 62.1858 43.1826C61.5525 43.1826 60.9178 43.1533 60.2845 43.1533C59.6485 43.1533 59.0165 43.1826 58.3818 43.1826V42.9653H58.4805C58.7418 42.9653 59.0232 42.9293 59.0232 42.4826V38.7813C59.0232 38.4053 58.7418 38.3693 58.4805 38.3693H58.3818V38.1533C58.7632 38.1533 59.1392 38.1826 59.5205 38.1826C59.8885 38.1826 60.2485 38.1533 60.6152 38.1533V38.3693H60.4338C60.1605 38.3693 59.9458 38.3773 59.9458 38.7586V42.476Z" fill="#231F20"/>
<path d="M62.1855 43.2129C61.5495 43.2129 60.9162 43.1849 60.2842 43.1849C59.6508 43.1849 59.0162 43.2129 58.3802 43.2129H58.3508V43.1822V42.9342H58.3802H58.4815C58.7428 42.9289 58.9895 42.9102 58.9908 42.4836V38.7796C58.9895 38.4289 58.7442 38.4062 58.4815 38.4009H58.3508V38.3702V38.1222H58.3802C58.7642 38.1222 59.1388 38.1502 59.5202 38.1502C59.8855 38.1502 60.2455 38.1222 60.6148 38.1222H60.6455V38.1542V38.4009H60.6148H60.4348C60.1562 38.4076 59.9815 38.3956 59.9762 38.7582V42.4756C59.9788 42.7436 60.1535 42.8169 60.3788 42.8489C60.5055 42.8582 60.6388 42.8622 60.7775 42.8622C60.9548 42.8622 61.1388 42.8542 61.3242 42.8342C61.6175 42.7996 61.8708 42.6302 61.9935 42.4582C62.1042 42.3049 62.1682 42.1062 62.2122 41.9502L62.2175 41.9262H62.2428H62.4908L62.4842 41.9636C62.4015 42.3756 62.3028 42.7782 62.2148 43.1876L62.2095 43.2129H62.1855ZM62.1588 43.1502C62.2428 42.7596 62.3362 42.3782 62.4148 41.9889H62.2668C62.2215 42.1449 62.1575 42.3382 62.0455 42.4956C61.9095 42.6822 61.6442 42.8582 61.3295 42.8969C61.1415 42.9156 60.9548 42.9262 60.7775 42.9262C60.6388 42.9262 60.5028 42.9196 60.3735 42.9102C60.1388 42.8836 59.9122 42.7836 59.9122 42.4756V38.7582C59.9122 38.3582 60.1655 38.3382 60.4348 38.3382H60.5828V38.1849C60.2282 38.1862 59.8788 38.2129 59.5202 38.2129C59.1468 38.2129 58.7815 38.1862 58.4122 38.1849V38.3382H58.4815C58.7388 38.3382 59.0535 38.3822 59.0535 38.7796V42.4836C59.0535 42.9489 58.7402 42.9969 58.4815 42.9969H58.4122V43.1502C59.0362 43.1502 59.6575 43.1222 60.2842 43.1222C60.9108 43.1222 61.5362 43.1502 62.1588 43.1502" fill="#231F20"/>
<path d="M62.3639 37.9492C62.7986 37.9492 63.1226 38.2826 63.1226 38.7092C63.1226 39.1359 62.7986 39.4666 62.3639 39.4666C61.9306 39.4666 61.6052 39.1359 61.6052 38.7092C61.6052 38.2826 61.9306 37.9492 62.3639 37.9492ZM62.3639 39.3252C62.7039 39.3252 62.9639 39.0359 62.9639 38.7092C62.9639 38.3826 62.7079 38.0906 62.3639 38.0906C62.0226 38.0906 61.7626 38.3826 61.7626 38.7092C61.7626 39.0359 62.0226 39.3252 62.3639 39.3252ZM61.9866 39.1106V39.0719C62.0799 39.0599 62.0972 39.0626 62.0972 39.0039V38.4426C62.0972 38.3639 62.0892 38.3372 61.9906 38.3412V38.3026H62.3786C62.5119 38.3026 62.6346 38.3652 62.6346 38.5039C62.6346 38.6159 62.5599 38.6999 62.4546 38.7332L62.5799 38.9066C62.6372 38.9852 62.7039 39.0599 62.7466 39.0852V39.1106H62.5999C62.5279 39.1106 62.4652 38.9599 62.3266 38.7599H62.2426V39.0119C62.2426 39.0626 62.2599 39.0599 62.3532 39.0719V39.1106H61.9866ZM62.2426 38.7092H62.3332C62.4306 38.7092 62.4759 38.6359 62.4759 38.5159C62.4759 38.3946 62.4052 38.3532 62.3279 38.3532H62.2426V38.7092Z" fill="#231F20"/>
</svg>
