<svg width="366" height="62" viewBox="0 0 366 62" fill="none" xmlns="http://www.w3.org/2000/svg">
<path d="M17 1.90015H0.5V59.7002H17C25.7 59.7002 32.1 57.6002 37.6 53.0002C44.2 47.5002 48.1 39.3002 48.1 30.8002C48 13.8002 35.3 1.90015 17 1.90015ZM30.2 45.3001C26.7 48.5001 22.1 49.9001 14.8 49.9001H11.8V11.7001H14.8C22.1 11.7001 26.5 13.0001 30.2 16.4001C34.1 19.9001 36.4 25.2002 36.4 30.8002C36.4 36.3002 34.1 41.8001 30.2 45.3001Z" fill="#231F20"/>
<path d="M64.5 1.90015H53.2V59.7002H64.5V1.90015Z" fill="#231F20"/>
<path d="M92 24.1C85.2 21.6 83.3 19.9 83.3 16.8C83.3 13.2 86.8 10.4 91.7 10.4C95.1 10.4 97.8 11.8 100.8 15.1L106.7 7.39999C101.9 3.19999 96.1 1 89.7 1C79.5 1 71.7 8.1 71.7 17.5C71.7 25.5 75.3 29.5 85.9 33.3C90.3 34.9 92.6 35.9 93.7 36.6C96 38.1 97.1001 40.2 97.1001 42.6C97.1001 47.3 93.4 50.7 88.4 50.7C83 50.7 78.7001 48 76.1001 43L68.8 50C74 57.6 80.2 61 88.8 61C100.5 61 108.7 53.2 108.7 42C108.7 32.9 104.9 28.8 92 24.1Z" fill="#231F20"/>
<path d="M112.2 30.8C112.2 47.8 125.5 60.9 142.7 60.9C147.5 60.9 151.7 59.9 156.8 57.5V44.2C152.3 48.7 148.3 50.5 143.2 50.5C131.9 50.5 123.8 42.3 123.8 30.6C123.8 19.5 132.1 10.8 142.7 10.8C148.1 10.8 152.1 12.7 156.8 17.3V4C151.9 1.5 147.8 0.5 142.9 0.5C125.9 0.6 112.2 14 112.2 30.8Z" fill="#231F20"/>
<path d="M246.1 40.7002L230.7 1.90015H218.4L243 61.2002H249L274 1.90015H261.8L246.1 40.7002Z" fill="#231F20"/>
<path d="M279.1 59.7002H311V49.9001H290.3V34.3002H310.2V24.5002H290.3V11.7001H311V1.90015H279.1V59.7002Z" fill="#231F20"/>
<path d="M355.6 19.0002C355.6 8.20015 348.2 1.90015 335.2 1.90015H318.5V59.7002H329.8V36.5002H331.3L346.9 59.7002H360.8L342.6 35.4001C350.9 33.6001 355.6 27.8002 355.6 19.0002ZM333 28.5002H329.7V11.0002H333.2C340.2 11.0002 344 13.9002 344 19.6002C344 25.4002 340.2 28.5002 333 28.5002Z" fill="#231F20"/>
<path d="M191.2 61.7001C208.155 61.7001 221.9 47.9552 221.9 31C221.9 14.0449 208.155 0.300049 191.2 0.300049C174.245 0.300049 160.5 14.0449 160.5 31C160.5 47.9552 174.245 61.7001 191.2 61.7001Z" fill="url(#paint0_linear)"/>
<path opacity="0.65" d="M191.2 61.7001C208.155 61.7001 221.9 47.9552 221.9 31C221.9 14.0449 208.155 0.300049 191.2 0.300049C174.245 0.300049 160.5 14.0449 160.5 31C160.5 47.9552 174.245 61.7001 191.2 61.7001Z" fill="url(#paint1_linear)"/>
<path d="M362.8 4.10001C362.8 3.10001 362.1 2.5 360.9 2.5H359.3V7.60001H360.5V5.60001L361.9 7.60001H363.4L361.7 5.5C362.4 5.3 362.8 4.80001 362.8 4.10001ZM360.7 4.8H360.5V3.5H360.7C361.3 3.5 361.6 3.7 361.6 4.2C361.6 4.6 361.3 4.8 360.7 4.8Z" fill="#231F20"/>
<path d="M361.1 0.600098C358.6 0.600098 356.7 2.60009 356.7 5.00009C356.7 7.50009 358.7 9.40009 361.1 9.40009C363.5 9.40009 365.5 7.40009 365.5 5.00009C365.5 2.60009 363.5 0.600098 361.1 0.600098ZM361.1 8.70009C359.2 8.70009 357.6 7.1001 357.6 5.1001C357.6 3.1001 359.2 1.50009 361.1 1.50009C363 1.50009 364.6 3.2001 364.6 5.1001C364.6 7.1001 363 8.70009 361.1 8.70009Z" fill="#231F20"/>
<defs>
<linearGradient id="paint0_linear" x1="206.933" y1="55.6333" x2="185.659" y2="22.3239" gradientUnits="userSpaceOnUse">
<stop stop-color="#F89F20"/>
<stop offset="0.2502" stop-color="#F79A20"/>
<stop offset="0.5331" stop-color="#F68D20"/>
<stop offset="0.6196" stop-color="#F58720"/>
<stop offset="0.7232" stop-color="#F48120"/>
<stop offset="1" stop-color="#F37521"/>
</linearGradient>
<linearGradient id="paint1_linear" x1="203.57" y1="55.1789" x2="172.477" y2="-5.59455" gradientUnits="userSpaceOnUse">
<stop stop-color="#F58720"/>
<stop offset="0.3587" stop-color="#E16F27"/>
<stop offset="0.703" stop-color="#D4602C"/>
<stop offset="0.9816" stop-color="#D05B2E"/>
</linearGradient>
</defs>
</svg>
