<svg width="20" height="21" viewBox="0 0 20 21" fill="none" xmlns="http://www.w3.org/2000/svg">
<g opacity="0.8">
<g clip-path="url(#clip0)">
<path d="M17.5 9.3335C17.5 15.1668 10 20.1668 10 20.1668C10 20.1668 2.5 15.1668 2.5 9.3335C2.5 7.34437 3.29018 5.43672 4.6967 4.03019C6.10322 2.62367 8.01088 1.8335 10 1.8335C11.9891 1.8335 13.8968 2.62367 15.3033 4.03019C16.7098 5.43672 17.5 7.34437 17.5 9.3335Z" stroke="#247FA6" stroke-width="2" stroke-linecap="round" stroke-linejoin="round"/>
<path d="M9.99967 13.5001C12.3009 13.5001 14.1663 11.6346 14.1663 9.33342C14.1663 7.03223 12.3009 5.16675 9.99967 5.16675C7.69849 5.16675 5.83301 7.03223 5.83301 9.33342C5.83301 11.6346 7.69849 13.5001 9.99967 13.5001Z" stroke="#247FA6" stroke-width="2" stroke-linecap="round" stroke-linejoin="round"/>
</g>
</g>
<defs>
<clipPath id="clip0">
<rect width="20" height="20" fill="white" transform="translate(0 1)"/>
</clipPath>
</defs>
</svg>
