<svg width="13" height="18" viewBox="0 0 13 18" fill="none" xmlns="http://www.w3.org/2000/svg">
<path d="M4.69727 7.71973C5.11393 8.11035 5.60872 8.30566 6.18164 8.30566C6.75456 8.30566 7.23633 8.11035 7.62695 7.71973C8.04362 7.30306 8.25195 6.80827 8.25195 6.23535C8.25195 5.66243 8.04362 5.18066 7.62695 4.79004C7.23633 4.37337 6.75456 4.16504 6.18164 4.16504C5.60872 4.16504 5.11393 4.37337 4.69727 4.79004C4.30664 5.18066 4.11133 5.66243 4.11133 6.23535C4.11133 6.80827 4.30664 7.30306 4.69727 7.71973ZM2.04102 2.13379C3.18685 0.987956 4.56706 0.415039 6.18164 0.415039C7.79622 0.415039 9.16341 0.987956 10.2832 2.13379C11.429 3.25358 12.002 4.62077 12.002 6.23535C12.002 7.04264 11.7936 7.96712 11.377 9.00879C10.9863 10.0505 10.5046 11.027 9.93164 11.9385C9.35872 12.8499 8.78581 13.7093 8.21289 14.5166C7.66602 15.2979 7.19727 15.9229 6.80664 16.3916L6.18164 17.0557C6.02539 16.8734 5.81706 16.639 5.55664 16.3525C5.29622 16.04 4.82747 15.4411 4.15039 14.5557C3.47331 13.6442 2.87435 12.7718 2.35352 11.9385C1.85872 11.0791 1.40299 10.1156 0.986328 9.04785C0.569661 7.98014 0.361328 7.04264 0.361328 6.23535C0.361328 4.62077 0.921224 3.25358 2.04102 2.13379Z" fill="#4D49C4"/>
</svg>
