<svg width="73" height="57" viewBox="0 0 73 57" fill="none" xmlns="http://www.w3.org/2000/svg">
<path d="M12.3945 50.7942C12.1865 50.5862 11.9412 50.4249 11.6558 50.3089C11.3705 50.1942 11.0598 50.1369 10.7212 50.1369C10.5412 50.1369 10.3545 50.1515 10.1625 50.1835C9.96917 50.2129 9.77984 50.2675 9.59317 50.3462C9.40917 50.4249 9.23184 50.5329 9.06517 50.6702C8.89717 50.8089 8.75184 50.9822 8.62917 51.1929C8.42917 50.8635 8.15984 50.6049 7.8185 50.4169C7.47717 50.2302 7.08917 50.1369 6.6505 50.1369C6.5025 50.1369 6.3505 50.1502 6.19317 50.1769C6.0345 50.2035 5.8785 50.2502 5.72384 50.3155C5.56784 50.3809 5.41984 50.4715 5.2785 50.5835C5.13717 50.6969 5.00784 50.8409 4.89317 51.0142V50.2915H3.64917V56.2075H4.90517V52.9289C4.90517 52.6769 4.94517 52.4542 5.02384 52.2582C5.10384 52.0622 5.2105 51.8995 5.34384 51.7662C5.47717 51.6355 5.6345 51.5355 5.81317 51.4675C5.99317 51.3995 6.18384 51.3649 6.38784 51.3649C6.80917 51.3649 7.13717 51.4995 7.3705 51.7662C7.60384 52.0342 7.71984 52.4169 7.71984 52.9155V56.2075H8.97584V52.9289C8.97584 52.6769 9.0145 52.4542 9.0945 52.2582C9.1745 52.0622 9.28117 51.8995 9.4145 51.7662C9.54784 51.6355 9.70384 51.5355 9.88384 51.4675C10.0625 51.3995 10.2545 51.3649 10.4572 51.3649C10.8798 51.3649 11.2078 51.4995 11.4412 51.7662C11.6732 52.0342 11.7905 52.4169 11.7905 52.9155V56.2075H13.0465V52.4889C13.0465 52.1435 12.9892 51.8262 12.8758 51.5382C12.7612 51.2502 12.6012 51.0022 12.3945 50.7942Z" fill="#231F20"/>
<path d="M18.9648 54.0025C18.8781 54.2332 18.7568 54.4332 18.6008 54.6012C18.4434 54.7705 18.2568 54.9039 18.0381 54.9999C17.8208 55.0972 17.5768 55.1452 17.3088 55.1452C17.0288 55.1452 16.7794 55.0945 16.5594 54.9945C16.3381 54.8932 16.1528 54.7572 15.9994 54.5865C15.8474 54.4159 15.7301 54.2145 15.6488 53.9839C15.5661 53.7532 15.5248 53.5079 15.5248 53.2492C15.5248 52.9892 15.5661 52.7452 15.6488 52.5145C15.7301 52.2839 15.8474 52.0839 15.9994 51.9119C16.1528 51.7412 16.3381 51.6052 16.5594 51.5039C16.7794 51.4039 17.0288 51.3532 17.3088 51.3532C17.5768 51.3532 17.8208 51.4012 18.0381 51.4985C18.2568 51.5945 18.4434 51.7279 18.6008 51.8959C18.7568 52.0652 18.8781 52.2652 18.9648 52.4959C19.0514 52.7265 19.0941 52.9772 19.0941 53.2492C19.0941 53.5212 19.0514 53.7719 18.9648 54.0025ZM19.0141 51.0065C18.8074 50.7439 18.5528 50.5319 18.2474 50.3745C17.9434 50.2159 17.5794 50.1372 17.1554 50.1372C16.7394 50.1372 16.3528 50.2132 15.9941 50.3679C15.6354 50.5225 15.3234 50.7372 15.0554 51.0132C14.7874 51.2892 14.5768 51.6172 14.4248 51.9985C14.2728 52.3799 14.1968 52.7959 14.1968 53.2492C14.1968 53.7025 14.2728 54.1185 14.4248 54.4999C14.5768 54.8812 14.7874 55.2092 15.0554 55.4852C15.3234 55.7612 15.6354 55.9759 15.9941 56.1305C16.3528 56.2839 16.7394 56.3625 17.1554 56.3625C17.5794 56.3625 17.9434 56.2839 18.2474 56.1279C18.5528 55.9705 18.8074 55.7612 19.0141 55.4972V56.2079H20.3048V50.2905H19.0141V51.0065Z" fill="#231F20"/>
<path d="M26.2383 53.2402C25.877 52.9575 25.3716 52.7695 24.725 52.6749L24.1143 52.5815C23.9783 52.5615 23.8503 52.5375 23.7303 52.5109C23.6116 52.4842 23.509 52.4482 23.4223 52.4029C23.3356 52.3575 23.2663 52.3002 23.2156 52.2309C23.1636 52.1602 23.1383 52.0735 23.1383 51.9709C23.1383 51.7615 23.2356 51.5909 23.4316 51.4615C23.6276 51.3309 23.9023 51.2669 24.2556 51.2669C24.441 51.2669 24.6236 51.2829 24.8023 51.3162C24.9823 51.3495 25.1516 51.3895 25.3116 51.4389C25.473 51.4895 25.6183 51.5442 25.7503 51.6029C25.8823 51.6629 25.993 51.7189 26.0836 51.7735L26.6396 50.7669C26.3303 50.5695 25.9703 50.4149 25.5583 50.3055C25.1476 50.1975 24.709 50.1429 24.2436 50.1429C23.865 50.1429 23.525 50.1869 23.225 50.2749C22.9236 50.3642 22.6676 50.4895 22.4556 50.6522C22.2436 50.8149 22.081 51.0135 21.9676 51.2482C21.8543 51.4829 21.797 51.7455 21.797 52.0389C21.797 52.5162 21.9676 52.9029 22.3076 53.1962C22.6476 53.4909 23.1463 53.6842 23.805 53.7735L24.4223 53.8549C24.777 53.9042 25.0356 53.9829 25.201 54.0922C25.365 54.2015 25.4476 54.3402 25.4476 54.5095C25.4476 54.7322 25.3343 54.9069 25.1076 55.0375C24.881 55.1669 24.5463 55.2322 24.101 55.2322C23.8583 55.2322 23.641 55.2149 23.4503 55.1829C23.2583 55.1495 23.0836 55.1042 22.925 55.0495C22.7663 54.9935 22.625 54.9309 22.4983 54.8575C22.373 54.7855 22.257 54.7095 22.1503 54.6269L21.5503 55.5962C21.765 55.7562 21.989 55.8869 22.2236 55.9855C22.4583 56.0842 22.689 56.1615 22.9156 56.2162C23.1423 56.2722 23.3556 56.3095 23.5583 56.3282C23.7596 56.3469 23.937 56.3562 24.089 56.3562C24.513 56.3562 24.893 56.3082 25.229 56.2135C25.5636 56.1189 25.8463 55.9869 26.0743 55.8149C26.3036 55.6442 26.4783 55.4402 26.5996 55.2042C26.721 54.9669 26.7823 54.7069 26.7823 54.4229C26.7823 53.9162 26.601 53.5215 26.2383 53.2402Z" fill="#231F20"/>
<path d="M34.7141 52.7429C34.7474 52.5282 34.8047 52.3322 34.8874 52.1536C34.9687 51.9736 35.0754 51.8202 35.2047 51.6896C35.3354 51.5602 35.4901 51.4602 35.6687 51.3896C35.8474 51.3202 36.0527 51.2856 36.2834 51.2856C36.6941 51.2856 37.0301 51.4122 37.2901 51.6682C37.5487 51.9229 37.7141 52.2816 37.7834 52.7429H34.7141ZM38.3247 50.9976C38.0794 50.7242 37.7847 50.5122 37.4407 50.3616C37.0981 50.2122 36.7194 50.1362 36.3074 50.1362C35.8714 50.1362 35.4727 50.2122 35.1127 50.3616C34.7527 50.5122 34.4421 50.7242 34.1834 50.9976C33.9234 51.2722 33.7221 51.6002 33.5781 51.9829C33.4341 52.3656 33.3621 52.7882 33.3621 53.2496C33.3621 53.7189 33.4367 54.1442 33.5834 54.5282C33.7327 54.9109 33.9394 55.2389 34.2074 55.5096C34.4754 55.7816 34.7954 55.9922 35.1647 56.1389C35.5354 56.2882 35.9434 56.3616 36.3874 56.3616C36.8367 56.3616 37.2647 56.3002 37.6701 56.1762C38.0754 56.0536 38.4594 55.8376 38.8221 55.5282L38.1794 54.6082C37.9327 54.8056 37.6594 54.9589 37.3607 55.0682C37.0621 55.1776 36.7647 55.2322 36.4674 55.2322C36.2581 55.2322 36.0567 55.2029 35.8634 55.1456C35.6687 55.0882 35.4941 54.9976 35.3381 54.8776C35.1821 54.7549 35.0474 54.6002 34.9367 54.4096C34.8247 54.2202 34.7487 53.9922 34.7087 53.7242H39.0807C39.0887 53.6509 39.0954 53.5722 39.0994 53.4909C39.1034 53.4082 39.1047 53.3256 39.1047 53.2429C39.1047 52.7816 39.0367 52.3602 38.8981 51.9802C38.7607 51.5989 38.5687 51.2722 38.3247 50.9976" fill="#231F20"/>
<path d="M55.4244 54.0025C55.3377 54.2332 55.2164 54.4332 55.0604 54.6012C54.903 54.7705 54.7164 54.9039 54.4977 54.9999C54.2804 55.0972 54.0364 55.1452 53.7684 55.1452C53.4884 55.1452 53.239 55.0945 53.019 54.9945C52.7977 54.8932 52.6124 54.7572 52.459 54.5865C52.307 54.4159 52.1897 54.2145 52.1084 53.9839C52.0257 53.7532 51.9844 53.5079 51.9844 53.2492C51.9844 52.9892 52.0257 52.7452 52.1084 52.5145C52.1897 52.2839 52.307 52.0839 52.459 51.9119C52.6124 51.7412 52.7977 51.6052 53.019 51.5039C53.239 51.4039 53.4884 51.3532 53.7684 51.3532C54.0364 51.3532 54.2804 51.4012 54.4977 51.4985C54.7164 51.5945 54.903 51.7279 55.0604 51.8959C55.2164 52.0652 55.3377 52.2652 55.4244 52.4959C55.511 52.7265 55.5537 52.9772 55.5537 53.2492C55.5537 53.5212 55.511 53.7719 55.4244 54.0025ZM55.4737 51.0065C55.267 50.7439 55.0124 50.5319 54.707 50.3745C54.403 50.2159 54.0377 50.1372 53.615 50.1372C53.199 50.1372 52.8124 50.2132 52.4537 50.3679C52.095 50.5225 51.783 50.7372 51.515 51.0132C51.247 51.2892 51.0364 51.6172 50.8844 51.9985C50.7324 52.3799 50.6564 52.7959 50.6564 53.2492C50.6564 53.7025 50.7324 54.1185 50.8844 54.4999C51.0364 54.8812 51.247 55.2092 51.515 55.4852C51.783 55.7612 52.095 55.9759 52.4537 56.1305C52.8124 56.2839 53.199 56.3625 53.615 56.3625C54.0377 56.3625 54.403 56.2839 54.707 56.1279C55.0124 55.9705 55.267 55.7612 55.4737 55.4972V56.2079H56.7644V50.2905H55.4737V51.0065Z" fill="#231F20"/>
<path d="M31.7734 55.028C31.5654 55.1067 31.36 55.1453 31.1587 55.1453C31.0267 55.1453 30.904 55.1253 30.7907 55.084C30.6774 55.0427 30.5787 54.9773 30.4947 54.8893C30.4107 54.8013 30.344 54.6867 30.2947 54.5467C30.2454 54.4067 30.22 54.2373 30.22 54.04V51.464H32.2934V50.2907H30.22V48.5H28.9227V50.2907H27.744V51.464H28.9227V54.064C28.9227 54.8507 29.1094 55.4307 29.4814 55.804C29.8547 56.176 30.376 56.3613 31.048 56.3613C31.4227 56.3613 31.7587 56.304 32.0574 56.1893C32.2547 56.112 32.4374 56.0267 32.608 55.9293L32.168 54.8493C32.0427 54.916 31.912 54.976 31.7734 55.028Z" fill="#231F20"/>
<path d="M43.4271 50.1366C43.0657 50.1366 42.7377 50.2019 42.4457 50.3339C42.1524 50.4659 41.9071 50.7833 41.7097 51.0673V50.2913H40.5377V56.2073H41.7231V52.9526C41.7231 52.7019 41.7577 52.4766 41.8271 52.2793C41.8977 52.0819 41.9937 51.9153 42.1177 51.7793C42.2417 51.6433 42.3897 51.5406 42.5631 51.4699C42.7351 51.4006 42.9244 51.3646 43.1311 51.3646C43.2871 51.3646 43.4551 51.3846 43.6377 51.4206C43.7297 51.4406 43.8164 51.4633 43.8964 51.4913L44.2777 50.2553C44.1751 50.2233 44.0697 50.1939 43.9617 50.1766C43.8031 50.1499 43.6244 50.1366 43.4271 50.1366Z" fill="#231F20"/>
<path d="M61.371 50.1366C61.0084 50.1366 60.6804 50.2019 60.3884 50.3339C60.0964 50.4659 59.851 50.7833 59.6537 51.0673V50.2913H58.4817V56.2073H59.6657V52.9526C59.6657 52.7019 59.7017 52.4766 59.771 52.2793C59.8417 52.0819 59.9377 51.9153 60.0617 51.7793C60.1844 51.6433 60.3337 51.5406 60.507 51.4699C60.679 51.4006 60.8684 51.3646 61.0737 51.3646C61.231 51.3646 61.399 51.3846 61.5804 51.4206C61.6737 51.4406 61.7604 51.4633 61.8404 51.4913L62.2217 50.2553C62.119 50.2233 62.0137 50.1939 61.9044 50.1766C61.747 50.1499 61.5684 50.1366 61.371 50.1366Z" fill="#231F20"/>
<path d="M67.3503 54.0025C67.2649 54.2332 67.1423 54.4332 66.9863 54.6012C66.8289 54.7705 66.6423 54.9039 66.4236 54.9999C66.2063 55.0972 65.9623 55.1452 65.6956 55.1452C65.4156 55.1452 65.1649 55.0945 64.9449 54.9945C64.7249 54.8932 64.5383 54.7572 64.3863 54.5865C64.2343 54.4159 64.1169 54.2145 64.0343 53.9839C63.9516 53.7532 63.9103 53.5079 63.9103 53.2492C63.9103 52.9892 63.9516 52.7452 64.0343 52.5145C64.1169 52.2839 64.2343 52.0839 64.3863 51.9119C64.5383 51.7412 64.7249 51.6052 64.9449 51.5039C65.1649 51.4039 65.4156 51.3532 65.6956 51.3532C65.9623 51.3532 66.2063 51.4012 66.4236 51.4985C66.6423 51.5945 66.8289 51.7279 66.9863 51.8959C67.1423 52.0652 67.2649 52.2652 67.3503 52.4959C67.4369 52.7265 67.4809 52.9772 67.4809 53.2492C67.4809 53.5212 67.4369 53.7719 67.3503 54.0025ZM67.3996 47.8865V51.0065C67.1943 50.7439 66.9383 50.5319 66.6343 50.3745C66.3289 50.2159 65.9649 50.1372 65.5409 50.1372C65.1249 50.1372 64.7383 50.2132 64.3796 50.3679C64.0209 50.5225 63.7089 50.7372 63.4409 51.0132C63.1729 51.2892 62.9636 51.6172 62.8116 51.9985C62.6583 52.3799 62.5823 52.7959 62.5823 53.2492C62.5823 53.7025 62.6583 54.1185 62.8116 54.4999C62.9636 54.8812 63.1729 55.2092 63.4409 55.4852C63.7089 55.7612 64.0209 55.9759 64.3796 56.1305C64.7383 56.2839 65.1249 56.3625 65.5409 56.3625C65.9649 56.3625 66.3289 56.2839 66.6343 56.1279C66.9383 55.9705 67.1943 55.7612 67.3996 55.4972V56.2079H68.6903V47.8865H67.3996Z" fill="#231F20"/>
<path d="M46.5163 51.8816C46.6816 51.7149 46.8763 51.5842 47.1029 51.4922C47.3296 51.4002 47.5749 51.3536 47.8376 51.3536C48.1283 51.3536 48.3976 51.4002 48.6469 51.4922C48.8869 51.5816 49.0963 51.7069 49.2723 51.8656L49.8949 50.8322C49.6616 50.6456 49.3989 50.4936 49.1069 50.3749C48.7176 50.2149 48.2949 50.1362 47.8376 50.1362C47.3803 50.1362 46.9576 50.2149 46.5696 50.3749C46.1803 50.5322 45.8443 50.7509 45.5616 51.0282C45.2803 51.3069 45.0589 51.6349 44.8989 52.0149C44.7376 52.3922 44.6576 52.8042 44.6576 53.2496C44.6576 53.6936 44.7376 54.1056 44.8989 54.4842C45.0589 54.8629 45.2803 55.1909 45.5616 55.4696C45.8443 55.7469 46.1803 55.9656 46.5696 56.1242C46.9576 56.2829 47.3803 56.3616 47.8376 56.3616C48.2949 56.3616 48.7176 56.2829 49.1069 56.1242C49.3989 56.0056 49.6616 55.8536 49.8949 55.6669L49.2723 54.6322C49.0963 54.7922 48.8869 54.9162 48.6469 55.0069C48.3976 55.0989 48.1283 55.1456 47.8376 55.1456C47.5749 55.1456 47.3296 55.0989 47.1029 55.0069C46.8763 54.9136 46.6816 54.7842 46.5163 54.6176C46.3509 54.4509 46.2216 54.2509 46.1269 54.0189C46.0323 53.7856 45.9856 53.5296 45.9856 53.2496C45.9856 52.9696 46.0323 52.7136 46.1269 52.4802C46.2216 52.2482 46.3509 52.0482 46.5163 51.8816Z" fill="#231F20"/>
<path d="M71.3293 55.8066V55.9053H71.4426C71.4653 55.9053 71.484 55.9013 71.496 55.8946C71.508 55.888 71.5146 55.8746 71.5146 55.8573C71.5146 55.84 71.508 55.8266 71.496 55.8186C71.484 55.8106 71.4653 55.8066 71.4426 55.8066H71.3293ZM71.4453 55.676C71.5186 55.676 71.5746 55.6933 71.612 55.7253C71.6506 55.7586 71.6693 55.8026 71.6693 55.8573C71.6693 55.9 71.656 55.936 71.628 55.964C71.6013 55.992 71.5613 56.0106 71.5093 56.0186L71.676 56.212H71.496L71.3466 56.0253H71.3293V56.212H71.1786V55.676H71.4453ZM71.4106 56.3813C71.4693 56.3813 71.5266 56.3693 71.5786 56.3466C71.632 56.324 71.6786 56.292 71.7173 56.2533C71.756 56.2133 71.7866 56.168 71.8093 56.1146C71.8306 56.0613 71.8426 56.004 71.8426 55.944C71.8426 55.884 71.8306 55.828 71.8093 55.7746C71.7866 55.7213 71.756 55.6746 71.7173 55.636C71.6786 55.596 71.632 55.5653 71.5786 55.5426C71.5266 55.52 71.4693 55.508 71.4106 55.508C71.348 55.508 71.2906 55.52 71.2373 55.5426C71.184 55.5653 71.1373 55.596 71.0986 55.636C71.0586 55.6746 71.028 55.7213 71.0053 55.7746C70.9826 55.828 70.972 55.884 70.972 55.944C70.972 56.004 70.9826 56.0613 71.0053 56.1146C71.028 56.168 71.0586 56.2133 71.0986 56.2533C71.1373 56.292 71.184 56.324 71.2373 56.3466C71.2906 56.3693 71.348 56.3813 71.4106 56.3813V56.3813ZM71.4106 55.34C71.496 55.34 71.5773 55.3573 71.652 55.3893C71.7266 55.42 71.7933 55.464 71.8493 55.5186C71.9053 55.5733 71.9493 55.6373 71.9813 55.7093C72.0133 55.7826 72.0293 55.8613 72.0293 55.944C72.0293 56.0266 72.0133 56.104 71.9813 56.1773C71.9493 56.2506 71.9053 56.3146 71.8493 56.3706C71.7933 56.4253 71.7266 56.4693 71.652 56.5013C71.5773 56.532 71.496 56.5493 71.4106 56.5493C71.3226 56.5493 71.24 56.532 71.164 56.5013C71.088 56.4693 71.0226 56.4253 70.9666 56.3706C70.9106 56.3146 70.8666 56.2506 70.8346 56.1773C70.8026 56.104 70.7866 56.0266 70.7866 55.944C70.7866 55.8613 70.8026 55.7826 70.8346 55.7093C70.8666 55.6373 70.9106 55.5733 70.9666 55.5186C71.0226 55.464 71.088 55.42 71.164 55.3893C71.24 55.3573 71.3226 55.34 71.4106 55.34" fill="#231F20"/>
<path d="M27.6627 22.6335C27.6627 15.5455 30.9733 9.23346 36.1293 5.14946C32.328 2.13746 27.5253 0.334792 22.2987 0.334792C9.98267 0.334792 0 10.3188 0 22.6335C0 34.9481 9.98267 44.9321 22.2987 44.9321C27.5253 44.9321 32.328 43.1295 36.1293 40.1175C30.9733 36.0335 27.6627 29.7215 27.6627 22.6335Z" fill="#ED1D26"/>
<path d="M27.6626 22.6334C27.6626 29.7214 30.9733 36.0334 36.1293 40.1174C41.2853 36.0334 44.5973 29.7214 44.5973 22.6334C44.5973 15.5454 41.2853 9.23343 36.1293 5.14943C30.9733 9.23343 27.6626 15.5454 27.6626 22.6334Z" fill="#F2571A"/>
<path d="M72.1457 34.6946V34.1172L71.9577 34.6146H71.751L71.5644 34.1186V34.6946H71.3684V33.8626H71.6484L71.855 34.3959L72.0617 33.8626H72.3404V34.6946H72.1457ZM70.7484 34.6946V34.0426H70.483V33.8626H71.207V34.0426H70.943V34.6946H70.7484Z" fill="#F79511"/>
<path d="M49.9609 0.334792C44.7342 0.334792 39.9316 2.13879 36.1289 5.14946C41.2862 9.23346 44.5969 15.5455 44.5969 22.6335C44.5969 29.7228 41.2862 36.0335 36.1289 40.1175C39.9316 43.1295 44.7342 44.9321 49.9609 44.9321C62.2756 44.9321 72.2596 34.9481 72.2596 22.6335C72.2596 10.3188 62.2756 0.334792 49.9609 0.334792Z" fill="#F79511"/>
</svg>
