<svg width="16" height="15" viewBox="0 0 16 15" fill="none" xmlns="http://www.w3.org/2000/svg">
<path d="M3.45508 8.32129C4.18424 9.05046 5.06966 9.41504 6.11133 9.41504C7.15299 9.41504 8.03841 9.05046 8.76758 8.32129C9.49674 7.59212 9.86133 6.70671 9.86133 5.66504C9.86133 4.62337 9.49674 3.73796 8.76758 3.00879C8.03841 2.27962 7.15299 1.91504 6.11133 1.91504C5.06966 1.91504 4.18424 2.27962 3.45508 3.00879C2.72591 3.73796 2.36133 4.62337 2.36133 5.66504C2.36133 6.70671 2.72591 7.59212 3.45508 8.32129ZM11.1113 9.41504L15.252 13.5557L14.002 14.8057L9.86133 10.665V10.001L9.62695 9.7666C8.63737 10.626 7.46549 11.0557 6.11133 11.0557C4.60091 11.0557 3.31185 10.5348 2.24414 9.49316C1.20247 8.4515 0.681641 7.17546 0.681641 5.66504C0.681641 4.15462 1.20247 2.87858 2.24414 1.83691C3.31185 0.769206 4.60091 0.235352 6.11133 0.235352C7.62174 0.235352 8.89779 0.769206 9.93945 1.83691C10.9811 2.87858 11.502 4.15462 11.502 5.66504C11.502 6.21191 11.3717 6.83691 11.1113 7.54004C10.8509 8.21712 10.5514 8.764 10.2129 9.18066L10.4473 9.41504H11.1113Z" fill="#4D49C4"/>
</svg>
