<svg width="108" height="33" viewBox="0 0 108 33" fill="none" xmlns="http://www.w3.org/2000/svg">
<path d="M38.4713 32.3098L43.866 0.653816H52.4953L47.0966 32.3098H38.4713Z" fill="#1B54A2"/>
<path d="M78.3912 1.43288C76.6818 0.791543 74.0032 0.103543 70.6578 0.103543C62.1312 0.103543 56.1258 4.39688 56.0752 10.5502C56.0272 15.0995 60.3618 17.6369 63.6352 19.1515C66.9938 20.7022 68.1232 21.6915 68.1072 23.0782C68.0858 25.1995 65.4245 26.1689 62.9445 26.1689C59.4912 26.1689 57.6565 25.6889 54.8232 24.5075L53.7112 24.0035L52.5005 31.0902C54.5152 31.9742 58.2418 32.7395 62.1125 32.7795C71.1818 32.7795 77.0698 28.5355 77.1365 21.9635C77.1685 18.3635 74.8698 15.6222 69.8925 13.3635C66.8765 11.8995 65.0298 10.9222 65.0485 9.43821C65.0485 8.12354 66.6125 6.71554 69.9898 6.71554C72.8112 6.67288 74.8552 7.28754 76.4472 7.92888L77.2218 8.29421L78.3912 1.43288Z" fill="#1B54A2"/>
<path d="M89.877 21.0878C90.5916 19.2638 93.3156 12.2385 93.3156 12.2385C93.265 12.3225 94.0236 10.4065 94.4596 9.21716L95.0423 11.9465C95.0423 11.9465 96.6943 19.5038 97.0396 21.0878H89.877ZM100.517 0.683822H93.849C91.785 0.683822 90.2383 1.24782 89.3316 3.30916L76.517 32.3198H85.577C85.577 32.3198 87.0596 28.4198 87.3943 27.5625C88.3836 27.5625 97.1863 27.5772 98.445 27.5772C98.7023 28.6852 99.4943 32.3198 99.4943 32.3198H107.501L100.517 0.683822Z" fill="#1B54A2"/>
<path d="M31.2345 0.677139L22.7865 22.2638L21.8865 17.8771C20.3145 12.8198 15.4145 7.34114 9.93579 4.59714L17.6611 32.2825L26.7905 32.2718L40.3745 0.677139H31.2345Z" fill="#1B54A2"/>
<path d="M14.9499 0.657687H1.03657L0.925903 1.31635C11.7512 3.93635 18.9139 10.2684 21.8872 17.8777L18.8619 3.32969C18.3392 1.32569 16.8246 0.72702 14.9499 0.657687Z" fill="#F89C0E"/>
</svg>
