<svg width="182" height="140" viewBox="0 0 182 140" fill="none" xmlns="http://www.w3.org/2000/svg">
<g clip-path="url(#clip0)">
<path opacity="0.2" d="M181.592 15.8209H13.2334V140H181.592V15.8209Z" fill="#4D49C4"/>
<path d="M0 0V6.77811V134.328H168.955V6.77811V0H0Z" fill="url(#paint0_linear)"/>
<path d="M167.164 8.35822H2.3877V131.94H167.164V8.35822Z" fill="white"/>
<path d="M167.164 1.79105H2.3877V8.35821H167.164V1.79105Z" fill="#F5F5F5"/>
<path d="M7.16431 6.56717C8.04356 6.56717 8.75635 5.85439 8.75635 4.97513C8.75635 4.09587 8.04356 3.38309 7.16431 3.38309C6.28505 3.38309 5.57227 4.09587 5.57227 4.97513C5.57227 5.85439 6.28505 6.56717 7.16431 6.56717Z" fill="#FF5252"/>
<path d="M11.5422 6.56717C12.4215 6.56717 13.1343 5.85439 13.1343 4.97513C13.1343 4.09587 12.4215 3.38309 11.5422 3.38309C10.663 3.38309 9.9502 4.09587 9.9502 4.97513C9.9502 5.85439 10.663 6.56717 11.5422 6.56717Z" fill="#FFFF00"/>
<path d="M15.9202 6.56717C16.7994 6.56717 17.5122 5.85439 17.5122 4.97513C17.5122 4.09587 16.7994 3.38309 15.9202 3.38309C15.0409 3.38309 14.3281 4.09587 14.3281 4.97513C14.3281 5.85439 15.0409 6.56717 15.9202 6.56717Z" fill="#69F0AE"/>
<path d="M167.164 8.35822H84.7764V131.94H167.164V8.35822Z" fill="#247FA6"/>
<path d="M60.6966 50.9453H15.5225V55.9204H60.6966V50.9453Z" fill="url(#paint1_linear)"/>
<path d="M147.462 50.9453H102.288V55.9204H147.462V50.9453Z" fill="url(#paint2_linear)"/>
<path d="M60.0995 51.5423H16.3184V55.1244H60.0995V51.5423Z" fill="#4D49C4"/>
<path d="M69.453 62.0895H9.35352V65.2736H69.453V62.0895Z" fill="url(#paint3_linear)"/>
<path d="M156.219 62.0895H96.1191V65.2736H156.219V62.0895Z" fill="url(#paint4_linear)"/>
<path d="M156.219 67.0647H96.1191V70.2487H156.219V67.0647Z" fill="url(#paint5_linear)"/>
<path d="M156.219 72.0398H96.1191V75.2238H156.219V72.0398Z" fill="url(#paint6_linear)"/>
<path d="M156.219 77.015H96.1191V80.199H156.219V77.015Z" fill="url(#paint7_linear)"/>
<path d="M156.219 81.9901H96.1191V85.1741H156.219V81.9901Z" fill="url(#paint8_linear)"/>
<path d="M69.453 67.0647H9.35352V70.2487H69.453V67.0647Z" fill="url(#paint9_linear)"/>
<path d="M69.453 72.0398H9.35352V75.2238H69.453V72.0398Z" fill="url(#paint10_linear)"/>
<path d="M69.453 77.015H9.35352V80.199H69.453V77.015Z" fill="url(#paint11_linear)"/>
<path d="M69.453 81.9901H9.35352V85.1741H69.453V81.9901Z" fill="url(#paint12_linear)"/>
<path d="M69.0547 62.4875H9.9502V64.6766H69.0547V62.4875Z" fill="#4D49C4"/>
<path d="M69.0547 67.4627H9.9502V69.6517H69.0547V67.4627Z" fill="#4D49C4"/>
<path d="M69.0547 72.4378H9.9502V74.6269H69.0547V72.4378Z" fill="#4D49C4"/>
<path d="M69.0547 77.4129H9.9502V79.602H69.0547V77.4129Z" fill="#4D49C4"/>
<path d="M69.0547 82.3881H9.9502V84.5771H69.0547V82.3881Z" fill="#4D49C4"/>
<path d="M146.667 51.5423H102.886V55.1244H146.667V51.5423Z" fill="white"/>
<path d="M155.622 62.4875H96.5176V64.6766H155.622V62.4875Z" fill="white"/>
<path d="M155.622 67.4627H96.5176V69.6517H155.622V67.4627Z" fill="white"/>
<path d="M155.622 72.4378H96.5176V74.6269H155.622V72.4378Z" fill="white"/>
<path d="M155.622 77.4129H96.5176V79.602H155.622V77.4129Z" fill="white"/>
<path d="M155.622 82.3881H96.5176V84.5771H155.622V82.3881Z" fill="white"/>
</g>
<defs>
<linearGradient id="paint0_linear" x1="84.4776" y1="134.328" x2="84.4776" y2="0" gradientUnits="userSpaceOnUse">
<stop stop-color="#808080" stop-opacity="0.25"/>
<stop offset="0.54" stop-color="#808080" stop-opacity="0.12"/>
<stop offset="1" stop-color="#808080" stop-opacity="0.1"/>
</linearGradient>
<linearGradient id="paint1_linear" x1="8666.37" y1="1448.96" x2="8666.37" y2="1324.58" gradientUnits="userSpaceOnUse">
<stop stop-color="#808080" stop-opacity="0.25"/>
<stop offset="0.54" stop-color="#808080" stop-opacity="0.12"/>
<stop offset="1" stop-color="#808080" stop-opacity="0.1"/>
</linearGradient>
<linearGradient id="paint2_linear" x1="124.875" y1="55.9204" x2="124.875" y2="50.9453" gradientUnits="userSpaceOnUse">
<stop stop-opacity="0.12"/>
<stop offset="0.55" stop-opacity="0.09"/>
<stop offset="1" stop-opacity="0.02"/>
</linearGradient>
<linearGradient id="paint3_linear" x1="11909.1" y1="1106.47" x2="11909.1" y2="1055.52" gradientUnits="userSpaceOnUse">
<stop stop-color="#808080" stop-opacity="0.25"/>
<stop offset="0.54" stop-color="#808080" stop-opacity="0.12"/>
<stop offset="1" stop-color="#808080" stop-opacity="0.1"/>
</linearGradient>
<linearGradient id="paint4_linear" x1="38199.2" y1="1106.47" x2="38199.2" y2="1055.52" gradientUnits="userSpaceOnUse">
<stop stop-opacity="0.12"/>
<stop offset="0.55" stop-opacity="0.09"/>
<stop offset="1" stop-opacity="0.02"/>
</linearGradient>
<linearGradient id="paint5_linear" x1="38199.2" y1="1191.05" x2="38199.2" y2="1140.1" gradientUnits="userSpaceOnUse">
<stop stop-opacity="0.12"/>
<stop offset="0.55" stop-opacity="0.09"/>
<stop offset="1" stop-opacity="0.02"/>
</linearGradient>
<linearGradient id="paint6_linear" x1="38199.2" y1="1275.61" x2="38199.2" y2="1224.67" gradientUnits="userSpaceOnUse">
<stop stop-opacity="0.12"/>
<stop offset="0.55" stop-opacity="0.09"/>
<stop offset="1" stop-opacity="0.02"/>
</linearGradient>
<linearGradient id="paint7_linear" x1="38199.2" y1="1360.19" x2="38199.2" y2="1309.24" gradientUnits="userSpaceOnUse">
<stop stop-opacity="0.12"/>
<stop offset="0.55" stop-opacity="0.09"/>
<stop offset="1" stop-opacity="0.02"/>
</linearGradient>
<linearGradient id="paint8_linear" x1="38199.2" y1="1444.77" x2="38199.2" y2="1393.83" gradientUnits="userSpaceOnUse">
<stop stop-opacity="0.12"/>
<stop offset="0.55" stop-opacity="0.09"/>
<stop offset="1" stop-opacity="0.02"/>
</linearGradient>
<linearGradient id="paint9_linear" x1="11909.1" y1="1191.05" x2="11909.1" y2="1140.1" gradientUnits="userSpaceOnUse">
<stop stop-color="#808080" stop-opacity="0.25"/>
<stop offset="0.54" stop-color="#808080" stop-opacity="0.12"/>
<stop offset="1" stop-color="#808080" stop-opacity="0.1"/>
</linearGradient>
<linearGradient id="paint10_linear" x1="11909.1" y1="1275.61" x2="11909.1" y2="1224.67" gradientUnits="userSpaceOnUse">
<stop stop-color="#808080" stop-opacity="0.25"/>
<stop offset="0.54" stop-color="#808080" stop-opacity="0.12"/>
<stop offset="1" stop-color="#808080" stop-opacity="0.1"/>
</linearGradient>
<linearGradient id="paint11_linear" x1="11909.1" y1="1360.19" x2="11909.1" y2="1309.24" gradientUnits="userSpaceOnUse">
<stop stop-color="#808080" stop-opacity="0.25"/>
<stop offset="0.54" stop-color="#808080" stop-opacity="0.12"/>
<stop offset="1" stop-color="#808080" stop-opacity="0.1"/>
</linearGradient>
<linearGradient id="paint12_linear" x1="11909.1" y1="1444.77" x2="11909.1" y2="1393.83" gradientUnits="userSpaceOnUse">
<stop stop-color="#808080" stop-opacity="0.25"/>
<stop offset="0.54" stop-color="#808080" stop-opacity="0.12"/>
<stop offset="1" stop-color="#808080" stop-opacity="0.1"/>
</linearGradient>
<clipPath id="clip0">
<rect width="181.592" height="140" fill="white"/>
</clipPath>
</defs>
</svg>
