<svg width="71" height="49" viewBox="0 0 71 49" fill="none" xmlns="http://www.w3.org/2000/svg">
<g clip-path="url(#clip0)">
<path d="M66.5 48.3442H4.5C2.3 48.3442 0.5 46.5442 0.5 44.3442V4.34424C0.5 2.14424 2.3 0.344238 4.5 0.344238H66.5C68.7 0.344238 70.5 2.14424 70.5 4.34424V44.3442C70.5 46.5442 68.7 48.3442 66.5 48.3442Z" fill="#D7DFF1"/>
<path d="M40.2 43.8442H30.8C20.1 43.8442 11.5 35.2442 11.5 24.5442V24.1442C11.5 13.4442 20.1 4.84424 30.8 4.84424H40.2C50.9 4.84424 59.5 13.4442 59.5 24.1442V24.5442C59.5 35.2442 50.9 43.8442 40.2 43.8442Z" fill="#0A5296"/>
<path d="M32.1 8.54425C23.4 8.54425 16.3 15.6443 16.3 24.3443C16.3 33.0443 23.4 40.1442 32.1 40.1442C40.8 40.1442 47.9001 33.0443 47.9001 24.3443C47.9001 15.6443 40.8 8.54425 32.1 8.54425ZM20.8 24.4443C20.8 19.3443 24 15.0443 29 13.8443V35.1442C24.1 33.8442 20.8 29.5443 20.8 24.4443ZM34.1 35.0443V13.7443C39.1 14.9443 42.3 19.2443 42.3 24.3443C42.3 29.4443 39.1 33.8442 34.1 35.0443Z" fill="white"/>
</g>
<defs>
<clipPath id="clip0">
<rect width="70" height="48" fill="white" transform="translate(0.5 0.344238)"/>
</clipPath>
</defs>
</svg>
