<svg width="185" height="140" viewBox="0 0 185 140" fill="none" xmlns="http://www.w3.org/2000/svg">
<g clip-path="url(#clip0)">
<path d="M179.006 130.961L179.741 129.151C180.633 128.91 181.538 128.72 182.452 128.581L182.392 129.461L182.768 128.535C183.9 128.374 184.659 128.34 184.659 128.34C184.659 128.34 183.133 132.006 180.633 134.625L178.128 134.716L179.99 135.253C179.682 135.534 179.357 135.795 179.016 136.036C175.572 138.447 171.992 139.278 171.02 137.89C170.049 136.502 172.053 133.423 175.497 131.011C176.611 130.27 177.832 129.703 179.118 129.332L179.006 130.961Z" fill="#E6E6E6"/>
<path d="M172.508 122.659L171.576 119.985C172.317 118.869 173.121 117.795 173.983 116.77L174.76 117.786L174.283 116.417C175.361 115.159 176.155 114.394 176.155 114.394C176.155 114.394 178.002 119.847 177.785 125.092L175.146 127.588L177.686 126.391C177.62 126.991 177.516 127.588 177.375 128.175C175.932 134.098 172.829 138.427 170.443 137.846C168.057 137.265 167.292 131.993 168.735 126.071C169.239 124.198 170.026 122.413 171.071 120.778L172.508 122.659Z" fill="#E6E6E6"/>
<path d="M152.528 140C168.97 140 182.3 139.312 182.3 138.463C182.3 137.615 168.97 136.927 152.528 136.927C136.085 136.927 122.756 137.615 122.756 138.463C122.756 139.312 136.085 140 152.528 140Z" fill="#E6E6E6"/>
<path d="M52.4067 23.8781H31.3745V24.2622H52.4067C53.4422 24.2622 54.4352 24.6735 55.1674 25.4057C55.8996 26.1379 56.3109 27.131 56.3109 28.1665C56.3109 29.202 55.8996 30.195 55.1674 30.9272C54.4352 31.6594 53.4422 32.0707 52.4067 32.0707H20.5814C19.5459 32.0707 18.5528 31.6594 17.8207 30.9272C17.0885 30.195 16.6771 29.202 16.6771 28.1665C16.6771 27.131 17.0885 26.1379 17.8207 25.4057C18.5528 24.6735 19.5459 24.2622 20.5814 24.2622H21.7707V23.8781H20.5814C19.444 23.8781 18.3533 24.3299 17.549 25.1341C16.7448 25.9383 16.293 27.0291 16.293 28.1665C16.293 29.3038 16.7448 30.3946 17.549 31.1989C18.3533 32.0031 19.444 32.4549 20.5814 32.4549H52.4067C53.544 32.4549 54.6348 32.0031 55.4391 31.1989C56.2433 30.3946 56.6951 29.3038 56.6951 28.1665C56.6951 27.0291 56.2433 25.9383 55.4391 25.1341C54.6348 24.3299 53.544 23.8781 52.4067 23.8781Z" fill="#E6E6E6"/>
<path d="M52.4067 37.1313H31.3745V37.5155H52.4067C53.4422 37.5155 54.4352 37.9268 55.1674 38.659C55.8996 39.3912 56.311 40.3843 56.311 41.4198C56.311 42.4552 55.8996 43.4483 55.1674 44.1805C54.4352 44.9127 53.4422 45.324 52.4067 45.324H20.5814C19.5459 45.324 18.5528 44.9127 17.8207 44.1805C17.0885 43.4483 16.6771 42.4552 16.6771 41.4198C16.6771 40.3843 17.0885 39.3912 17.8207 38.659C18.5528 37.9268 19.5459 37.5155 20.5814 37.5155H21.7707V37.1313H20.5814C19.4445 37.1321 18.3545 37.5843 17.5509 38.3884C16.7473 39.1926 16.2959 40.2829 16.2959 41.4198C16.2959 42.5566 16.7473 43.647 17.5509 44.4511C18.3545 45.2553 19.4445 45.7074 20.5814 45.7082H52.4067C53.5435 45.7074 54.6336 45.2553 55.4372 44.4511C56.2408 43.647 56.6922 42.5566 56.6922 41.4198C56.6922 40.2829 56.2408 39.1926 55.4372 38.3884C54.6336 37.5843 53.5435 37.1321 52.4067 37.1313Z" fill="#4D49C4"/>
<path d="M52.4067 50.3846H31.3745V50.7687H52.4067C53.4422 50.7687 54.4352 51.1801 55.1674 51.9123C55.8996 52.6445 56.311 53.6375 56.311 54.673C56.311 55.7085 55.8996 56.7015 55.1674 57.4337C54.4352 58.1659 53.4422 58.5773 52.4067 58.5773H20.5814C19.5459 58.5773 18.5528 58.1659 17.8207 57.4337C17.0885 56.7015 16.6771 55.7085 16.6771 54.673C16.6771 53.6375 17.0885 52.6445 17.8207 51.9123C18.5528 51.1801 19.5459 50.7687 20.5814 50.7687H21.7707V50.3846H20.5814C19.444 50.3846 18.3533 50.8364 17.549 51.6406C16.7448 52.4449 16.293 53.5356 16.293 54.673C16.293 55.8104 16.7448 56.9011 17.549 57.7054C18.3533 58.5096 19.444 58.9614 20.5814 58.9614H52.4067C53.5435 58.9606 54.6336 58.5085 55.4372 57.7043C56.2408 56.9002 56.6922 55.8099 56.6922 54.673C56.6922 53.5362 56.2408 52.4458 55.4372 51.6417C54.6336 50.8375 53.5435 50.3854 52.4067 50.3846Z" fill="#E6E6E6"/>
<path d="M24.1449 22.8632C23.8453 22.8681 23.5596 22.9906 23.3494 23.2043C23.1393 23.4179 23.0215 23.7056 23.0215 24.0053C23.0215 24.305 23.1393 24.5927 23.3494 24.8063C23.5596 25.02 23.8453 25.1425 24.1449 25.1474H29.1554C29.4581 25.1521 29.7503 25.0364 29.9678 24.8257C30.1853 24.6151 30.3102 24.3267 30.3152 24.024C30.3202 23.7213 30.2047 23.429 29.9943 23.2113C29.7839 22.9937 29.4956 22.8684 29.1929 22.8632C29.1804 22.863 29.1679 22.863 29.1554 22.8632H24.1449Z" fill="#3F3D56"/>
<path d="M24.145 36.3086C23.8453 36.3135 23.5596 36.436 23.3494 36.6496C23.1393 36.8633 23.0215 37.151 23.0215 37.4506C23.0215 37.7503 23.1393 38.038 23.3494 38.2517C23.5596 38.4653 23.8453 38.5878 24.145 38.5927H29.1555C29.4584 38.5977 29.7508 38.4821 29.9685 38.2715C30.1862 38.0608 30.3113 37.7723 30.3163 37.4694C30.3213 37.1665 30.2057 36.874 29.9951 36.6563C29.7844 36.4386 29.4959 36.3135 29.193 36.3086C29.1805 36.3084 29.168 36.3084 29.1555 36.3086H24.145Z" fill="#3F3D56"/>
<path d="M24.145 49.3697C23.8453 49.3746 23.5596 49.4971 23.3494 49.7108C23.1393 49.9244 23.0215 50.2121 23.0215 50.5118C23.0215 50.8115 23.1393 51.0992 23.3494 51.3129C23.5596 51.5265 23.8453 51.649 24.145 51.6539H29.1555C29.4584 51.6589 29.7508 51.5433 29.9685 51.3327C30.1862 51.122 30.3113 50.8335 30.3163 50.5306C30.3213 50.2277 30.2057 49.9352 29.9951 49.7175C29.7844 49.4998 29.4959 49.3747 29.193 49.3697C29.1805 49.3695 29.168 49.3695 29.1555 49.3697H24.145Z" fill="#3F3D56"/>
<path d="M22.1577 27.0244C21.858 27.0293 21.5723 27.1518 21.3621 27.3654C21.152 27.5791 21.0342 27.8668 21.0342 28.1665C21.0342 28.4662 21.152 28.7539 21.3621 28.9675C21.5723 29.1812 21.858 29.3037 22.1577 29.3086H50.7935C51.0964 29.3135 51.3889 29.198 51.6066 28.9873C51.8243 28.7767 51.9494 28.4881 51.9544 28.1852C51.9593 27.8823 51.8438 27.5899 51.6331 27.3722C51.4224 27.1545 51.1339 27.0294 50.831 27.0244C50.8185 27.0242 50.806 27.0242 50.7935 27.0244H22.1577Z" fill="#E6E6E6"/>
<path d="M52.4067 11.3931H31.3745V11.7773H52.4067C53.4422 11.7773 54.4352 12.1886 55.1674 12.9208C55.8996 13.653 56.311 14.6461 56.311 15.6815C56.311 16.717 55.8996 17.7101 55.1674 18.4423C54.4352 19.1745 53.4422 19.5858 52.4067 19.5858H20.5814C19.5464 19.5851 18.554 19.1734 17.8225 18.4413C17.0909 17.7092 16.6799 16.7165 16.6799 15.6815C16.6799 14.6466 17.0909 13.6539 17.8225 12.9218C18.554 12.1897 19.5464 11.778 20.5814 11.7773H21.7707V11.3931H20.5814C19.4445 11.3939 18.3545 11.8461 17.5509 12.6502C16.7473 13.4544 16.2959 14.5447 16.2959 15.6815C16.2959 16.8184 16.7473 17.9087 17.5509 18.7129C18.3545 19.517 19.4445 19.9692 20.5814 19.97H52.4067C53.5435 19.9692 54.6336 19.517 55.4372 18.7129C56.2408 17.9087 56.6922 16.8184 56.6922 15.6815C56.6922 14.5447 56.2408 13.4544 55.4372 12.6502C54.6336 11.8461 53.5435 11.3939 52.4067 11.3931Z" fill="#E6E6E6"/>
<path d="M24.145 10.3783C23.8453 10.3832 23.5596 10.5057 23.3494 10.7193C23.1393 10.933 23.0215 11.2207 23.0215 11.5204C23.0215 11.8201 23.1393 12.1078 23.3494 12.3214C23.5596 12.5351 23.8453 12.6575 24.145 12.6625H29.1555C29.4584 12.6674 29.7508 12.5519 29.9685 12.3412C30.1862 12.1305 30.3113 11.842 30.3163 11.5391C30.3213 11.2362 30.2057 10.9437 29.9951 10.726C29.7844 10.5083 29.4959 10.3832 29.193 10.3783C29.1805 10.3781 29.168 10.3781 29.1555 10.3783H24.145Z" fill="#3F3D56"/>
<path d="M22.1576 14.5395C21.858 14.5444 21.5723 14.6669 21.3621 14.8805C21.152 15.0942 21.0342 15.3819 21.0342 15.6816C21.0342 15.9812 21.152 16.2689 21.3621 16.4826C21.5723 16.6962 21.858 16.8187 22.1576 16.8236H50.7935C50.9435 16.8262 51.0926 16.7992 51.2323 16.7442C51.3719 16.6891 51.4993 16.6071 51.6072 16.5028C51.7151 16.3985 51.8014 16.2739 51.8611 16.1362C51.9209 15.9985 51.9529 15.8504 51.9554 15.7003C51.9578 15.5503 51.9307 15.4012 51.8755 15.2616C51.8203 15.122 51.7382 14.9947 51.6337 14.8869C51.5293 14.7791 51.4047 14.6929 51.2669 14.6333C51.1292 14.5737 50.981 14.5418 50.831 14.5395C50.8185 14.5393 50.806 14.5393 50.7935 14.5395H22.1576Z" fill="#E6E6E6"/>
<path d="M22.1577 40.2777C21.858 40.2826 21.5723 40.4051 21.3621 40.6187C21.152 40.8324 21.0342 41.1201 21.0342 41.4198C21.0342 41.7195 21.152 42.0072 21.3621 42.2208C21.5723 42.4344 21.858 42.5569 22.1577 42.5619H50.7935C50.9435 42.5643 51.0925 42.5372 51.232 42.4821C51.3715 42.427 51.4988 42.3449 51.6066 42.2406C51.7144 42.1363 51.8006 42.0118 51.8603 41.8742C51.9199 41.7365 51.9519 41.5885 51.9544 41.4385C51.9568 41.2885 51.9297 41.1395 51.8746 41C51.8195 40.8605 51.7374 40.7332 51.6331 40.6255C51.5288 40.5177 51.4043 40.4315 51.2667 40.3718C51.129 40.3121 50.981 40.2801 50.831 40.2777C50.8185 40.2775 50.806 40.2775 50.7935 40.2777H22.1577Z" fill="#4D49C4"/>
<path d="M22.1577 53.5309C21.858 53.5358 21.5723 53.6583 21.3621 53.872C21.152 54.0856 21.0342 54.3733 21.0342 54.673C21.0342 54.9727 21.152 55.2604 21.3621 55.4741C21.5723 55.6877 21.858 55.8102 22.1577 55.8151H50.7935C50.9435 55.8176 51.0925 55.7905 51.232 55.7353C51.3715 55.6802 51.4988 55.5982 51.6066 55.4938C51.7144 55.3895 51.8006 55.265 51.8603 55.1274C51.9199 54.9898 51.9519 54.8417 51.9544 54.6918C51.9568 54.5418 51.9297 54.3928 51.8746 54.2533C51.8195 54.1138 51.7374 53.9865 51.6331 53.8787C51.5288 53.7709 51.4043 53.6847 51.2667 53.625C51.129 53.5654 50.981 53.5334 50.831 53.5309C50.8185 53.5307 50.806 53.5307 50.7935 53.5309H22.1577Z" fill="#E6E6E6"/>
<path d="M65.2299 41.5088L60.9082 39.0137V44.0039L65.2299 41.5088L60.9082 39.0137V44.0039L65.2299 41.5088Z" fill="#4D49C4"/>
<path d="M68.975 68.7633H1.44057C1.21141 68.7631 0.991707 68.6719 0.829665 68.5099C0.667624 68.3478 0.576479 68.1281 0.576228 67.899V1.44057C0.576479 1.21141 0.667624 0.991707 0.829665 0.829665C0.991707 0.667624 1.21141 0.576479 1.44057 0.576228H71.5484C71.7776 0.576478 71.9973 0.667624 72.1593 0.829665C72.3214 0.991707 72.4125 1.21141 72.4128 1.44057V40.7885H72.989V1.44057C72.9886 1.05864 72.8367 0.692464 72.5666 0.422395C72.2965 0.152326 71.9304 0.00041729 71.5484 0H1.44057C1.05864 0.00041729 0.692464 0.152326 0.422395 0.422395C0.152326 0.692464 0.00041729 1.05864 0 1.44057V67.899C0.00041729 68.2809 0.152326 68.6471 0.422395 68.9171C0.692464 69.1872 1.05864 69.3391 1.44057 69.3395H68.975V68.7633Z" fill="#E6E6E6"/>
<path d="M130.937 39.8281H70.3989C69.6132 39.8281 68.9756 40.3255 68.9756 40.9385V54.0417H132.361V40.9385C132.361 40.3255 131.723 39.8281 130.937 39.8281Z" fill="#4D49C4"/>
<path d="M131.304 39.4439H70.0314C69.6494 39.444 69.283 39.5959 69.0129 39.866C68.7428 40.1361 68.591 40.5025 68.5908 40.8845V89.8639C68.591 90.246 68.7428 90.6123 69.0129 90.8824C69.283 91.1526 69.6494 91.3044 70.0314 91.3045H131.304C131.686 91.3044 132.052 91.1526 132.322 90.8824C132.592 90.6123 132.744 90.246 132.744 89.8639V40.8845C132.744 40.5025 132.592 40.1361 132.322 39.866C132.052 39.5959 131.686 39.444 131.304 39.4439ZM132.168 89.8639C132.168 90.0931 132.077 90.3127 131.915 90.4747C131.753 90.6368 131.533 90.7279 131.304 90.7283H70.0314C69.8023 90.7279 69.5826 90.6368 69.4206 90.4747C69.2586 90.3127 69.1674 90.0931 69.1671 89.8639V40.8845C69.1674 40.6553 69.2586 40.4357 69.4206 40.2737C69.5826 40.1117 69.8023 40.0205 70.0314 40.0201H131.304C131.533 40.0205 131.753 40.1117 131.915 40.2737C132.077 40.4357 132.168 40.6553 132.168 40.8845V89.8639Z" fill="#E6E6E6"/>
<path d="M116.581 61.2092H95.5483V61.5933H116.581C117.616 61.5933 118.609 62.0047 119.341 62.7369C120.073 63.4691 120.485 64.4621 120.485 65.4976C120.485 66.5331 120.073 67.5261 119.341 68.2583C118.609 68.9905 117.616 69.4019 116.581 69.4019H84.7552C83.7197 69.4019 82.7267 68.9905 81.9945 68.2583C81.2623 67.5261 80.851 66.5331 80.851 65.4976C80.851 64.4621 81.2623 63.4691 81.9945 62.7369C82.7267 62.0047 83.7197 61.5933 84.7552 61.5933H85.9445V61.2092H84.7552C83.6179 61.2092 82.5271 61.661 81.7229 62.4652C80.9186 63.2695 80.4668 64.3602 80.4668 65.4976C80.4668 66.635 80.9186 67.7257 81.7229 68.53C82.5271 69.3342 83.6179 69.786 84.7552 69.786H116.581C117.718 69.786 118.809 69.3342 119.613 68.53C120.417 67.7257 120.869 66.635 120.869 65.4976C120.869 64.3602 120.417 63.2695 119.613 62.4652C118.809 61.661 117.718 61.2092 116.581 61.2092Z" fill="#E6E6E6"/>
<path d="M116.581 74.4625H95.5483V74.8466H116.581C117.616 74.8466 118.609 75.258 119.341 75.9901C120.073 76.7223 120.485 77.7154 120.485 78.7509C120.485 79.7864 120.073 80.7794 119.341 81.5116C118.609 82.2438 117.616 82.6552 116.581 82.6552H84.7552C83.7197 82.6552 82.7267 82.2438 81.9945 81.5116C81.2623 80.7794 80.851 79.7864 80.851 78.7509C80.851 77.7154 81.2623 76.7223 81.9945 75.9901C82.7267 75.258 83.7197 74.8466 84.7552 74.8466H85.9445V74.4625H84.7552C83.6179 74.4625 82.5271 74.9143 81.7229 75.7185C80.9186 76.5227 80.4668 77.6135 80.4668 78.7509C80.4668 79.8882 80.9186 80.979 81.7229 81.7833C82.5271 82.5875 83.6179 83.0393 84.7552 83.0393H116.581C117.718 83.0393 118.809 82.5875 119.613 81.7833C120.417 80.979 120.869 79.8882 120.869 78.7509C120.869 77.6135 120.417 76.5227 119.613 75.7185C118.809 74.9143 117.718 74.4625 116.581 74.4625Z" fill="#E6E6E6"/>
<path d="M88.3179 60.3864C88.0182 60.3913 87.7325 60.5138 87.5223 60.7274C87.3121 60.9411 87.1943 61.2288 87.1943 61.5285C87.1943 61.8282 87.3121 62.1159 87.5223 62.3295C87.7325 62.5432 88.0182 62.6656 88.3179 62.6706H93.3283C93.6312 62.6755 93.9237 62.56 94.1414 62.3493C94.3591 62.1386 94.4842 61.8501 94.4891 61.5472C94.4941 61.2443 94.3786 60.9519 94.1679 60.7342C93.9572 60.5165 93.6687 60.3914 93.3658 60.3864C93.3533 60.3862 93.3408 60.3862 93.3283 60.3864H88.3179Z" fill="#3F3D56"/>
<path d="M88.3179 73.4475C88.0182 73.4525 87.7325 73.5749 87.5223 73.7886C87.3121 74.0022 87.1943 74.2899 87.1943 74.5896C87.1943 74.8893 87.3121 75.177 87.5223 75.3907C87.7325 75.6043 88.0182 75.7268 88.3179 75.7317H93.3283C93.6312 75.7367 93.9237 75.6212 94.1414 75.4105C94.3591 75.1998 94.4842 74.9113 94.4891 74.6084C94.4941 74.3055 94.3786 74.013 94.1679 73.7953C93.9572 73.5776 93.6687 73.4525 93.3658 73.4475C93.3533 73.4473 93.3408 73.4473 93.3283 73.4475H88.3179Z" fill="#3F3D56"/>
<path d="M86.3306 64.3555C86.0309 64.3604 85.7452 64.4829 85.535 64.6966C85.3248 64.9102 85.207 65.1979 85.207 65.4976C85.207 65.7973 85.3248 66.085 85.535 66.2986C85.7452 66.5123 86.0309 66.6348 86.3306 66.6397H114.966C115.116 66.6422 115.265 66.6151 115.405 66.5599C115.544 66.5048 115.672 66.4228 115.779 66.3185C115.887 66.2141 115.973 66.0896 116.033 65.952C116.093 65.8144 116.125 65.6663 116.127 65.5164C116.13 65.3664 116.103 65.2174 116.048 65.0779C115.992 64.9384 115.91 64.8111 115.806 64.7033C115.702 64.5955 115.577 64.5093 115.44 64.4496C115.302 64.3899 115.154 64.358 115.004 64.3555C114.991 64.3553 114.979 64.3553 114.966 64.3555H86.3306Z" fill="#E6E6E6"/>
<path d="M86.3306 77.6088C86.0309 77.6137 85.7452 77.7362 85.535 77.9498C85.3248 78.1635 85.207 78.4512 85.207 78.7509C85.207 79.0506 85.3248 79.3383 85.535 79.5519C85.7452 79.7656 86.0309 79.888 86.3306 79.893H114.966C115.116 79.8954 115.265 79.8683 115.405 79.8132C115.544 79.7581 115.672 79.676 115.779 79.5717C115.887 79.4674 115.973 79.3429 116.033 79.2053C116.093 79.0676 116.125 78.9196 116.127 78.7696C116.13 78.6197 116.103 78.4707 116.048 78.3312C115.992 78.1916 115.91 78.0644 115.806 77.9566C115.702 77.8488 115.577 77.7626 115.44 77.7029C115.302 77.6432 115.154 77.6113 115.004 77.6088C114.991 77.6086 114.979 77.6086 114.966 77.6088H86.3306Z" fill="#E6E6E6"/>
<path d="M77.4103 51.0668C79.6923 51.0668 81.5422 49.2169 81.5422 46.9349C81.5422 44.6529 79.6923 42.803 77.4103 42.803C75.1282 42.803 73.2783 44.6529 73.2783 46.9349C73.2783 49.2169 75.1282 51.0668 77.4103 51.0668Z" fill="white"/>
<path d="M84.8215 43.6731C84.5529 43.6775 84.2968 43.7873 84.1084 43.9788C83.92 44.1703 83.8145 44.4282 83.8145 44.6968C83.8145 44.9654 83.92 45.2233 84.1084 45.4148C84.2968 45.6063 84.5529 45.7161 84.8215 45.7205H110.489C110.623 45.7227 110.757 45.6984 110.882 45.649C111.007 45.5996 111.121 45.526 111.217 45.4326C111.314 45.3391 111.391 45.2274 111.445 45.1041C111.498 44.9807 111.527 44.848 111.529 44.7136C111.531 44.5792 111.507 44.4456 111.458 44.3206C111.408 44.1955 111.335 44.0815 111.241 43.9848C111.148 43.8882 111.036 43.811 110.913 43.7575C110.789 43.704 110.657 43.6753 110.522 43.6731C110.511 43.6729 110.5 43.6729 110.489 43.6731H84.8215Z" fill="white"/>
<path d="M84.8215 48.1494C84.5529 48.1538 84.2968 48.2636 84.1084 48.4551C83.92 48.6466 83.8145 48.9044 83.8145 49.1731C83.8145 49.4417 83.92 49.6996 84.1084 49.8911C84.2968 50.0826 84.5529 50.1924 84.8215 50.1968H127.016C127.288 50.2012 127.55 50.0976 127.745 49.9088C127.94 49.72 128.052 49.4614 128.057 49.1899C128.061 48.9184 127.958 48.6562 127.769 48.4611C127.58 48.266 127.322 48.1538 127.05 48.1494C127.039 48.1492 127.028 48.1492 127.016 48.1494H84.8215Z" fill="white"/>
<path d="M166.098 52.1545L157.647 53.1148C157.762 50.5189 157.543 48.0975 156.687 46.008L163.601 43.511C162.982 46.0961 164.145 49.0448 166.098 52.1545Z" fill="#FBBEBE"/>
<path d="M167.117 80.9822L169.854 85.8691C170.017 86.16 170.121 86.4802 170.161 86.8113C170.2 87.1425 170.174 87.4781 170.083 87.799C169.993 88.12 169.84 88.42 169.633 88.6819C169.427 88.9438 169.171 89.1624 168.88 89.3254C168.869 89.3315 168.858 89.3376 168.847 89.3435C168.478 89.543 168.066 89.6481 167.647 89.6493C167.227 89.6505 166.814 89.5479 166.444 89.3506C166.074 89.1532 165.759 88.8674 165.526 88.5184C165.294 88.1695 165.151 87.7684 165.111 87.351L164.666 82.6807L163.149 64.8542L160.562 53.1287L165.934 51.6039L168.434 64.7896L167.117 80.9822Z" fill="#FBBEBE"/>
<path d="M171.668 133.019L168.211 132.826L160.528 98.6369L144.202 133.019L140.744 132.826L150.732 79.8134L150.924 70.2096L163.409 69.4413C168.075 74.5729 170.718 79.88 171.092 85.3836L171.668 133.019Z" fill="#2F2E41"/>
<path d="M143.921 139.022C143.266 139.32 142.637 136.829 142.166 137.443C140.584 139.505 136.901 138.858 136.918 138.62C136.674 138.542 136.472 138.37 136.355 138.142C136.238 137.914 136.216 137.65 136.294 137.406C136.299 137.391 136.304 137.377 136.31 137.362C136.364 137.216 136.454 137.085 136.571 136.981C136.687 136.877 136.828 136.803 136.979 136.765L138.621 136.354L141.2 131.82L143.832 131.642C144.419 132.39 144.828 133.262 145.03 134.191C145.231 135.12 145.219 136.083 144.995 137.007C144.756 137.982 144.387 138.809 143.921 139.022Z" fill="#2F2E41"/>
<path d="M171.211 139.022C170.556 139.32 169.927 136.829 169.456 137.443C167.634 139.818 164.085 138.998 164.208 138.62C164.087 138.581 163.975 138.519 163.879 138.437C163.782 138.355 163.703 138.255 163.645 138.142C163.587 138.029 163.552 137.906 163.541 137.78C163.531 137.654 163.546 137.527 163.584 137.406C163.589 137.391 163.594 137.377 163.6 137.362C163.654 137.216 163.744 137.085 163.861 136.981C163.977 136.877 164.118 136.803 164.269 136.765L165.911 136.354L168.49 131.82L171.3 131.464L171.371 131.58C171.914 132.456 172.264 133.437 172.398 134.459C172.532 135.48 172.446 136.519 172.147 137.505C171.913 138.254 171.595 138.846 171.211 139.022Z" fill="#2F2E41"/>
<path d="M158.415 47.7367C161.704 47.7367 164.37 45.0708 164.37 41.7823C164.37 38.4938 161.704 35.8279 158.415 35.8279C155.127 35.8279 152.461 38.4938 152.461 41.7823C152.461 45.0708 155.127 47.7367 158.415 47.7367Z" fill="#FBBEBE"/>
<path d="M163.793 70.4017L150.924 71.17L149.771 63.8711C148.578 60.5901 150.069 57.5761 152.46 54.6515L157.454 49.0812L164.369 48.8892C165.3 49.1948 166.125 49.7589 166.747 50.5155C167.369 51.2722 167.763 52.1902 167.883 53.1624C168.382 57.2458 167.637 61.3846 165.745 65.0377L163.793 70.4017Z" fill="#575A89"/>
<path d="M149.771 86.7281L150.692 92.2534C150.747 92.5823 150.737 92.9188 150.661 93.2437C150.586 93.5685 150.448 93.8754 150.254 94.1467C150.06 94.4181 149.815 94.6486 149.532 94.8251C149.249 95.0016 148.934 95.1207 148.605 95.1755C148.593 95.1776 148.58 95.1795 148.568 95.1814C148.153 95.2442 147.73 95.2034 147.335 95.0625C146.94 94.9217 146.586 94.6852 146.305 94.3743C146.023 94.0633 145.823 93.6875 145.723 93.2805C145.622 92.8734 145.624 92.4478 145.728 92.0415L146.89 87.4964L151.5 70.2096L153.037 58.3008L158.607 58.685L156.494 71.9383L149.771 86.7281Z" fill="#FBBEBE"/>
<path d="M165.555 64.7354H165.417C162.82 62.4849 160.563 59.962 162.386 56.8035C160.84 52.8799 159.116 48.8053 159.221 46.2846C159.33 44.4208 158.73 42.5847 157.541 41.1451C155.899 39.2262 155.533 38.3693 152.533 39.0949C152.512 37.5873 153.091 36.1332 154.142 35.0523C155.193 33.9715 156.631 33.3525 158.138 33.3316C158.233 33.3303 158.329 33.3313 158.424 33.3348L160.298 33.403C161.732 33.4551 166.315 34.0413 167.298 34.9875C167.797 35.4834 168.175 36.0878 168.401 36.7536C168.628 37.4194 168.698 38.1286 168.605 38.8258C168.421 40.3904 168.915 41.7717 170.234 42.9301C172.758 45.5408 173.8 48.2497 172.368 51.1222C171.288 54.1632 171.339 56.6663 174.126 57.8697C175.031 61.3434 169.145 64.7354 165.555 64.7354Z" fill="#2F2E41"/>
<path d="M159.184 60.6058C156.8 58.7819 154.43 58.6378 152.077 60.4137L152.72 53.12C152.702 52.0892 153.086 51.0919 153.791 50.3397C154.496 49.5875 155.466 49.1393 156.496 49.0903C157.016 49.0655 157.536 49.1435 158.027 49.3197C158.517 49.4958 158.967 49.7668 159.353 50.1172C159.738 50.4675 160.05 50.8903 160.272 51.3614C160.494 51.8325 160.621 52.3428 160.646 52.863C160.65 52.9478 160.652 53.0327 160.65 53.1177L159.184 60.6058Z" fill="#575A89"/>
<path d="M158.511 44.3754C158.936 44.3754 159.28 43.7304 159.28 42.9348C159.28 42.1392 158.936 41.4942 158.511 41.4942C158.087 41.4942 157.743 42.1392 157.743 42.9348C157.743 43.7304 158.087 44.3754 158.511 44.3754Z" fill="#A0616A"/>
</g>
<defs>
<clipPath id="clip0">
<rect width="184.659" height="140" fill="white"/>
</clipPath>
</defs>
</svg>
