<svg width="172" height="182" viewBox="0 0 172 182" fill="none" xmlns="http://www.w3.org/2000/svg">
<path d="M94.7876 181.997C119.741 181.997 139.971 178.896 139.971 175.071C139.971 171.246 119.741 168.145 94.7876 168.145C69.8336 168.145 49.6045 171.246 49.6045 175.071C49.6045 178.896 69.8336 181.997 94.7876 181.997Z" fill="#3F3D56" fill-opacity="0.2"/>
<path d="M98.5141 13.6538C94.6861 7.1857 87.1127 6.88426 87.1127 6.88426C87.1127 6.88426 79.7329 5.94053 74.9987 15.7916C70.5862 24.9736 64.4962 33.839 74.0183 35.9884L75.7383 30.6351L76.8034 36.387C78.1592 36.4845 79.5193 36.5077 80.8776 36.4566C91.0749 36.1274 100.786 36.5529 100.474 32.8937C100.058 28.0292 102.197 19.8775 98.5141 13.6538Z" fill="#2F2E41"/>
<path d="M84.7285 25.8347C84.7285 25.8347 89.6756 32.7606 86.7073 38.3673C83.7391 43.9739 93.6332 49.9104 93.6332 49.9104L100.889 34.0798C100.889 34.0798 92.314 28.4732 94.6226 23.1963L84.7285 25.8347Z" fill="#FBBEBE"/>
<path d="M88.0261 28.803C92.7618 28.803 96.601 24.9639 96.601 20.2281C96.601 15.4923 92.7618 11.6532 88.0261 11.6532C83.2903 11.6532 79.4512 15.4923 79.4512 20.2281C79.4512 24.9639 83.2903 28.803 88.0261 28.803Z" fill="#FBBEBE"/>
<path d="M58.3516 30.1406L65.5175 20.895C65.5175 20.895 68.0407 11.2038 71.6952 11.6951C75.3496 12.1864 70.2518 23.3173 70.2518 23.3173L63.1315 33.5513L58.3516 30.1406Z" fill="#FBBEBE"/>
<path d="M94.623 153.139L96.9317 165.342L101.879 166.661L100.56 152.149L94.623 153.139Z" fill="#FBBEBE"/>
<path d="M144.423 139.947L153.328 152.149L156.955 153.798L159.924 148.851L151.019 137.308L144.423 139.947Z" fill="#FBBEBE"/>
<path d="M92.644 44.6336L87.1425 37.3913C87.1425 37.3913 76.4836 39.3567 75.4942 40.3461C74.5048 41.3355 78.1326 59.4747 78.1326 59.4747C78.1326 59.4747 78.7922 64.4218 81.7605 67.0602L84.7287 69.039L109.134 64.092L110.052 53.2329C110.386 49.2776 109.89 45.2962 108.596 41.5436C107.303 37.791 105.239 34.3502 102.538 31.4414L98.2916 32.022L92.644 44.6336Z" fill="#575A89"/>
<path d="M76.8137 41.0057L75.1647 40.3461L67.5792 39.6865C67.5792 39.6865 64.9408 39.0269 65.6004 37.7077C66.26 36.3885 66.9196 36.0587 65.6004 35.7289C64.2812 35.399 63.9514 35.0692 64.2812 34.0798C64.611 33.0904 66.5898 31.1116 66.5898 31.1116L60.9832 26.4944C60.9832 26.4944 60.6797 26.709 60.1892 27.1061C57.4056 29.3599 48.5976 37.4914 55.0467 45.623C62.6322 55.1873 71.5369 60.7939 78.7926 58.8151L76.8137 41.0057Z" fill="#575A89"/>
<path d="M84.0684 67.39V72.0073C84.0684 72.0073 81.1002 77.6139 82.0896 82.8908C83.079 88.1676 83.4088 90.806 83.4088 90.806C83.5165 95.2939 84.2946 99.7405 85.7175 103.998C88.0261 110.594 80.4406 153.799 90.0049 154.458C99.5692 155.118 104.846 155.777 107.814 152.479C110.783 149.181 102.867 92.4551 102.867 92.4551C102.867 92.4551 129.911 148.851 135.518 146.543C141.124 144.234 155.306 138.957 153.657 135.989C152.008 133.021 110.453 67.0602 110.453 67.0602L109.133 64.092L84.0684 67.39Z" fill="#2F2E41"/>
<path d="M99.8998 163.033C99.8998 163.033 94.623 162.703 94.623 164.352C94.623 166.001 91.9846 171.608 91.9846 171.608C91.9846 171.608 90.0057 178.204 95.2826 177.544C100.559 176.885 103.857 170.948 103.857 170.948L102.538 164.682L99.8998 163.033Z" fill="#2F2E41"/>
<path d="M154.976 151.49C154.976 151.49 150.359 148.522 150.689 150.5C151.019 152.479 151.348 157.756 153.657 158.086C155.966 158.416 162.891 160.395 163.221 161.054C163.551 161.714 171.466 164.352 171.466 160.065C171.466 155.777 166.519 152.479 166.519 152.479L160.913 148.192C160.913 148.192 157.285 147.862 156.625 150.171C155.966 152.479 154.976 151.49 154.976 151.49Z" fill="#2F2E41"/>
<path d="M88.0395 12.393C91.0638 12.393 93.5154 9.94132 93.5154 6.91702C93.5154 3.89272 91.0638 1.44104 88.0395 1.44104C85.0152 1.44104 82.5635 3.89272 82.5635 6.91702C82.5635 9.94132 85.0152 12.393 88.0395 12.393Z" fill="#2F2E41"/>
<path d="M81.9868 5.47598C81.987 4.12353 82.4876 2.81898 83.3922 1.81362C84.2968 0.808251 85.5414 0.173198 86.8864 0.0307882C86.6949 0.0105018 86.5025 0.000222185 86.31 0C84.8576 0 83.4648 0.576931 82.4379 1.60388C81.4109 2.63082 80.834 4.02366 80.834 5.47598C80.834 6.9283 81.4109 8.32113 82.4379 9.34808C83.4648 10.375 84.8576 10.952 86.31 10.952C86.5025 10.9517 86.6949 10.9415 86.8864 10.9212C85.5414 10.7788 84.2968 10.1437 83.3922 9.13835C82.4876 8.13298 81.987 6.82842 81.9868 5.47598Z" fill="#2F2E41"/>
<path d="M96.8216 13.0304L89.3397 9.11105L79.0069 10.7146L76.8691 20.1562L82.1908 19.9514L83.6776 16.4828V19.8943L86.133 19.8L87.5581 14.2774L88.4489 20.1562L97.1781 19.9781L96.8216 13.0304Z" fill="#2F2E41"/>
<path d="M96.3734 68.154L84.8345 68.466C84.8345 68.466 74.9886 70.3818 75.541 66.4078C76.0934 62.4338 85.6987 63.8237 85.6987 63.8237L96.2129 62.2198L96.3734 68.154Z" fill="#FBBEBE"/>
<path d="M105.503 30.8824C106.083 30.7946 106.675 30.9167 107.173 31.2267C107.671 31.5368 108.042 32.0144 108.219 32.5736C110.478 39.6921 117.438 63.5136 110.523 66.7817C102.379 70.6311 96.436 70.4618 96.436 70.4618L93.2549 62.6297L96.1507 59.912L99.2424 40.033L100.724 31.6063L105.503 30.8824Z" fill="#575A89"/>
<path opacity="0.4" d="M103.362 44.1388L102.043 57.331L90.5 62.278L103.362 59.3098V44.1388Z" fill="black"/>
<path d="M67.2869 63.5578H66.5455V43.2459C66.5455 40.128 65.3069 37.1378 63.1022 34.9331C60.8976 32.7284 57.9074 31.4899 54.7895 31.4899H11.756C10.2122 31.4899 8.68348 31.7939 7.25718 32.3847C5.83088 32.9755 4.53491 33.8415 3.44326 34.9331C2.35162 36.0247 1.48568 37.3207 0.89488 38.747C0.304084 40.1733 3.40896e-06 41.702 0 43.2458V154.679C-1.46098e-06 156.222 0.304071 157.751 0.894863 159.177C1.48566 160.604 2.3516 161.9 3.44324 162.991C4.53488 164.083 5.83085 164.949 7.25715 165.54C8.68345 166.13 10.2121 166.435 11.756 166.435H54.7895C57.9073 166.435 60.8975 165.196 63.1022 162.991C65.3069 160.787 66.5455 157.796 66.5455 154.679V78.0161H67.2869V63.5578Z" fill="#E6E6E6"/>
<path d="M55.2642 34.5484H49.6469C49.9052 35.1817 50.0038 35.8688 49.934 36.5492C49.8642 37.2297 49.6282 37.8825 49.2466 38.4502C48.8651 39.0179 48.3498 39.483 47.7462 39.8047C47.1426 40.1263 46.4691 40.2946 45.7851 40.2946H21.1317C20.4477 40.2946 19.7743 40.1263 19.1706 39.8047C18.567 39.483 18.0517 39.0179 17.6702 38.4502C17.2887 37.8825 17.0526 37.2296 16.9828 36.5492C16.913 35.8688 17.0116 35.1817 17.27 34.5483H12.0234C9.69499 34.5483 7.46195 35.4733 5.81553 37.1197C4.1691 38.7661 3.24414 40.9992 3.24414 43.3276V154.597C3.24414 156.925 4.16909 159.158 5.81552 160.805C7.46194 162.451 9.69497 163.376 12.0234 163.376H55.2642C56.4171 163.376 57.5587 163.149 58.6238 162.708C59.689 162.267 60.6568 161.62 61.472 160.805C62.2873 159.989 62.9339 159.022 63.3751 157.957C63.8163 156.891 64.0434 155.75 64.0434 154.597V43.3276C64.0434 42.1747 63.8163 41.0331 63.3751 39.9679C62.9339 38.9028 62.2873 37.9349 61.472 37.1197C60.6568 36.3045 59.689 35.6578 58.6238 35.2166C57.5587 34.7754 56.4171 34.5484 55.2642 34.5484Z" fill="white"/>
<path d="M60.4751 121.941H8.62808C8.37353 121.941 8.1295 121.84 7.94951 121.66C7.76951 121.48 7.66826 121.236 7.66797 120.981V108.12C7.66826 107.866 7.76951 107.622 7.94951 107.442C8.1295 107.262 8.37353 107.16 8.62808 107.16H60.4751C60.7296 107.16 60.9737 107.262 61.1537 107.442C61.3337 107.622 61.4349 107.866 61.4352 108.12V120.981C61.4349 121.236 61.3336 121.48 61.1536 121.66C60.9736 121.84 60.7296 121.941 60.4751 121.941ZM8.62808 107.544C8.47533 107.544 8.32888 107.605 8.22087 107.713C8.11287 107.821 8.05212 107.967 8.05198 108.12V120.981C8.05212 121.134 8.11287 121.281 8.22087 121.389C8.32888 121.497 8.47533 121.557 8.62808 121.557H60.4751C60.6278 121.557 60.7743 121.497 60.8823 121.389C60.9903 121.281 61.051 121.134 61.0512 120.981V108.12C61.051 107.967 60.9903 107.821 60.8823 107.713C60.7743 107.605 60.6278 107.544 60.4751 107.544H8.62808Z" fill="#E6E6E6"/>
<path d="M15.3489 118.583C17.576 118.583 19.3814 116.778 19.3814 114.551C19.3814 112.324 17.576 110.518 15.3489 110.518C13.1218 110.518 11.3164 112.324 11.3164 114.551C11.3164 116.778 13.1218 118.583 15.3489 118.583Z" fill="#E6E6E6"/>
<path d="M24.662 111.863C24.4857 111.865 24.3176 111.938 24.1939 112.063C24.0703 112.189 24.001 112.358 24.001 112.535C24.001 112.711 24.0703 112.88 24.1939 113.006C24.3176 113.132 24.4857 113.204 24.662 113.207H56.3462C56.5244 113.21 56.6967 113.143 56.8252 113.019C56.9536 112.895 57.0277 112.726 57.0312 112.548C57.0346 112.369 56.9671 112.197 56.8435 112.069C56.7199 111.94 56.5504 111.866 56.3721 111.863L56.3682 111.863C56.3609 111.862 56.3536 111.862 56.3462 111.863H24.662Z" fill="#E6E6E6"/>
<path d="M24.662 115.895C24.4857 115.898 24.3176 115.97 24.1939 116.096C24.0703 116.221 24.001 116.391 24.001 116.567C24.001 116.743 24.0703 116.913 24.1939 117.038C24.3176 117.164 24.4857 117.236 24.662 117.239H56.3462C56.5241 117.241 56.6958 117.173 56.8235 117.049C56.9513 116.925 57.0247 116.756 57.0276 116.578C57.0305 116.4 56.9627 116.228 56.8391 116.1C56.7155 115.972 56.5462 115.898 56.3683 115.895C56.3609 115.895 56.3535 115.895 56.3462 115.895H24.662Z" fill="#E6E6E6"/>
<path d="M60.4751 143.448H8.62808C8.37353 143.448 8.1295 143.347 7.94951 143.167C7.76951 142.987 7.66826 142.743 7.66797 142.488V129.627C7.66826 129.373 7.76951 129.129 7.94951 128.949C8.1295 128.769 8.37353 128.667 8.62808 128.667H60.4751C60.7296 128.667 60.9737 128.769 61.1537 128.949C61.3337 129.129 61.4349 129.373 61.4352 129.627V142.488C61.4349 142.743 61.3336 142.987 61.1536 143.167C60.9736 143.347 60.7296 143.448 60.4751 143.448ZM8.62808 129.051C8.47533 129.051 8.32888 129.112 8.22087 129.22C8.11287 129.328 8.05212 129.474 8.05198 129.627V142.488C8.05212 142.641 8.11287 142.787 8.22087 142.895C8.32888 143.004 8.47533 143.064 8.62808 143.064H60.4751C60.6278 143.064 60.7743 143.004 60.8823 142.895C60.9903 142.787 61.051 142.641 61.0512 142.488V129.627C61.051 129.474 60.9903 129.328 60.8823 129.22C60.7743 129.112 60.6278 129.051 60.4751 129.051H8.62808Z" fill="#E6E6E6"/>
<path d="M15.3489 140.09C17.576 140.09 19.3814 138.285 19.3814 136.058C19.3814 133.83 17.576 132.025 15.3489 132.025C13.1218 132.025 11.3164 133.83 11.3164 136.058C11.3164 138.285 13.1218 140.09 15.3489 140.09Z" fill="#E6E6E6"/>
<path d="M24.662 133.369C24.4857 133.372 24.3176 133.444 24.1939 133.57C24.0703 133.696 24.001 133.865 24.001 134.041C24.001 134.218 24.0703 134.387 24.1939 134.513C24.3176 134.638 24.4857 134.711 24.662 134.713H56.3462C56.5241 134.716 56.6958 134.648 56.8235 134.524C56.9513 134.4 57.0247 134.23 57.0276 134.052C57.0305 133.874 56.9627 133.703 56.8391 133.575C56.7155 133.447 56.5462 133.373 56.3683 133.369C56.3609 133.369 56.3535 133.369 56.3462 133.369H24.662Z" fill="#E6E6E6"/>
<path d="M24.662 137.402C24.4857 137.405 24.3176 137.477 24.1939 137.603C24.0703 137.728 24.001 137.898 24.001 138.074C24.001 138.25 24.0703 138.419 24.1939 138.545C24.3176 138.671 24.4857 138.743 24.662 138.746H56.3462C56.5241 138.748 56.6958 138.68 56.8235 138.556C56.9513 138.432 57.0247 138.263 57.0276 138.085C57.0305 137.907 56.9627 137.735 56.8391 137.607C56.7155 137.479 56.5462 137.405 56.3683 137.402C56.3609 137.402 56.3535 137.402 56.3462 137.402H24.662Z" fill="#E6E6E6"/>
<path d="M33.4611 95.2528C28.625 95.2548 23.9861 93.3356 20.565 89.9173C17.1439 86.4991 15.2208 81.8618 15.2188 77.0256V77.0104C15.2188 76.9722 15.2187 76.932 15.221 76.8938C15.2766 66.9035 23.4596 58.7679 33.4611 58.7679C38.2993 58.7673 42.9395 60.6887 46.361 64.1095C49.7825 67.5302 51.705 72.17 51.7056 77.0082C51.7061 81.8463 49.7847 86.4866 46.364 89.9081C42.9432 93.3296 38.3034 95.252 33.4653 95.2526H33.4611V95.2528ZM33.4611 59.1515C28.7463 59.162 24.2262 61.0327 20.8827 64.357C17.5393 67.6813 15.6428 72.1906 15.6052 76.9053C15.6031 76.9461 15.6031 76.9794 15.6031 77.0099C15.6027 80.5423 16.6498 83.9956 18.6119 86.933C20.5741 89.8705 23.3633 92.16 26.6267 93.5123C29.8901 94.8645 33.4813 95.2186 36.946 94.5299C40.4107 93.8412 43.5933 92.1405 46.0915 89.643C48.5896 87.1455 50.2911 83.9632 50.9807 80.4987C51.6703 77.0342 51.317 73.4429 49.9656 70.1792C48.6142 66.9154 46.3253 64.1257 43.3884 62.1628C40.4515 60.1999 36.9984 59.1519 33.4659 59.1515H33.4611Z" fill="#E6E6E6"/>
<path d="M58.4285 117.31C62.5247 117.31 65.8453 113.989 65.8453 109.893C65.8453 105.797 62.5247 102.476 58.4285 102.476C54.3323 102.476 51.0117 105.797 51.0117 109.893C51.0117 113.989 54.3323 117.31 58.4285 117.31Z" fill="white"/>
<path d="M55.8528 113.23C55.8401 113.23 55.8274 113.23 55.8146 113.23H51.8281C51.3222 113.222 50.8398 113.015 50.4849 112.655C50.1299 112.294 49.9309 111.809 49.9307 111.303C49.9305 110.797 50.1291 110.311 50.4838 109.95C50.8384 109.59 51.3207 109.383 51.8265 109.374H55.8164C55.836 109.374 55.8572 109.374 55.8783 109.374C56.3872 109.381 56.8727 109.589 57.2288 109.953C57.585 110.316 57.783 110.806 57.7796 111.315C57.7763 111.824 57.5718 112.311 57.2109 112.669C56.8499 113.028 56.3617 113.23 55.8528 113.23Z" fill="#4D49C4"/>
<path d="M61.5805 116.93C61.3838 116.93 61.1952 116.852 61.0561 116.713C60.917 116.574 60.8389 116.385 60.8389 116.189V106.741H51.5679C51.3711 106.741 51.1825 106.663 51.0434 106.524C50.9043 106.385 50.8262 106.196 50.8262 105.999C50.8262 105.803 50.9043 105.614 51.0434 105.475C51.1825 105.336 51.3711 105.258 51.5679 105.258H61.5805C61.7772 105.258 61.9659 105.336 62.105 105.475C62.2441 105.614 62.3222 105.803 62.3222 105.999V116.189C62.3222 116.385 62.2441 116.574 62.105 116.713C61.9659 116.852 61.7772 116.93 61.5805 116.93Z" fill="#4D49C4"/>
<path d="M68.1555 131.771C67.8879 131.895 67.5818 131.908 67.3048 131.807C67.0277 131.705 66.8023 131.498 66.6781 131.23L60.279 117.438C60.1549 117.17 60.1422 116.864 60.2436 116.587C60.3451 116.31 60.5525 116.085 60.8201 115.961C61.0877 115.836 61.3937 115.824 61.6708 115.925C61.9478 116.026 62.1732 116.234 62.2974 116.501L68.6965 130.294C68.8207 130.561 68.8334 130.867 68.732 131.144C68.6305 131.421 68.4232 131.647 68.1555 131.771Z" fill="#3F3D56"/>
<path d="M61.7563 117.979C60.1595 118.72 58.3789 118.97 56.6396 118.699C54.9003 118.428 53.2805 117.647 51.985 116.455C50.6895 115.264 49.7764 113.715 49.3613 112.004C48.9463 110.293 49.0477 108.498 49.653 106.845C50.2582 105.192 51.3401 103.756 52.7616 102.718C54.1832 101.679 55.8807 101.086 57.6395 101.013C59.3982 100.939 61.1393 101.389 62.6424 102.305C64.1455 103.221 65.3432 104.563 66.0841 106.159C67.0747 108.301 67.1755 110.748 66.3641 112.964C65.5528 115.18 63.8957 116.983 61.7563 117.979ZM55.2012 103.85C54.0036 104.406 52.9976 105.304 52.3106 106.431C51.6235 107.559 51.2862 108.864 51.3412 110.184C51.3962 111.503 51.8412 112.776 52.6198 113.842C53.3984 114.908 54.4757 115.719 55.7154 116.173C56.9551 116.627 58.3016 116.703 59.5846 116.392C60.8675 116.081 62.0294 115.396 62.9232 114.424C63.817 113.453 64.4026 112.238 64.606 110.933C64.8093 109.629 64.6213 108.293 64.0657 107.096C63.319 105.491 61.9664 104.249 60.3046 103.64C58.6427 103.032 56.8074 103.107 55.2012 103.85Z" fill="#3F3D56"/>
</svg>
