<svg width="195" height="156" viewBox="0 0 195 156" fill="none" xmlns="http://www.w3.org/2000/svg">
<g clip-path="url(#clip0)">
<path d="M183.343 147.614C183.343 147.614 191.689 147.108 190.706 152.979C190.706 152.979 190.903 154.015 189.965 154.486C189.965 154.486 189.949 154.05 189.108 154.199C188.809 154.25 188.505 154.264 188.202 154.243C187.792 154.215 187.403 154.053 187.092 153.783C187.092 153.783 184.747 152.81 183.833 148.963C183.833 148.963 183.157 148.123 183.185 147.907L184.593 148.501C184.593 148.501 184.113 149.521 184.49 150.367C184.49 150.367 184.537 148.539 184.808 148.584C184.863 148.594 185.538 148.939 185.538 148.939C185.538 148.939 184.711 150.722 185.341 152.006C185.341 152.006 185.104 149.817 185.803 149.066L186.79 149.648C186.79 149.648 185.821 151.483 186.478 152.979C186.478 152.979 186.31 150.682 186.998 149.789L187.896 150.492C187.896 150.492 186.988 152.301 187.543 153.541C187.543 153.541 187.614 150.869 188.091 150.667C188.091 150.667 188.881 151.362 188.998 151.657C188.998 151.657 188.374 152.969 188.761 153.662C188.761 153.662 188.998 151.879 189.191 151.879C189.191 151.879 189.981 153.058 190.056 153.86C190.056 153.86 190.022 152.656 189.383 151.758C189.834 151.843 190.251 152.06 190.581 152.38C190.581 152.38 190.459 151.546 189.189 151.473C189.189 151.473 188.542 150.579 188.368 150.524C188.368 150.524 189.632 150.419 190.398 150.76C190.398 150.76 189.724 149.967 188.137 150.33L187.248 149.603C187.248 149.603 188.913 149.375 189.618 149.626C189.618 149.626 188.806 148.931 187.009 149.438L186.044 148.86C186.044 148.86 187.464 148.553 188.309 148.662C188.309 148.662 187.416 148.178 185.762 148.701L185.071 148.39C185.071 148.39 186.111 148.192 186.415 148.152C186.719 148.113 186.735 148.036 186.735 148.036C186.077 147.925 185.401 148.001 184.782 148.253C184.782 148.253 183.317 147.707 183.343 147.614Z" fill="#4D49C4"/>
<path opacity="0.1" d="M189.092 156C185.83 156 183.185 155.551 183.185 154.997C183.185 154.444 185.83 153.995 189.092 153.995C192.355 153.995 195 154.444 195 154.997C195 155.551 192.355 156 189.092 156Z" fill="#4D49C4"/>
<path d="M0.088531 134.282C0.088531 134.282 4.79559 133.997 4.23485 137.305C4.26361 137.474 4.2386 137.646 4.16341 137.8C4.08823 137.953 3.96672 138.078 3.81627 138.157C3.81627 138.157 3.81626 137.912 3.3345 137.995C3.16554 138.023 2.99393 138.031 2.82312 138.019C2.59213 138.003 2.37238 137.913 2.19722 137.761C2.19722 137.761 0.874357 137.212 0.359028 135.043C0.359028 135.043 -0.0200591 134.569 -0.00623798 134.448L0.783538 134.789C0.783538 134.789 0.513032 135.364 0.726271 135.843C0.726271 135.843 0.751944 134.811 0.903975 134.835C0.935566 134.835 1.3186 135.033 1.3186 135.033C1.3186 135.033 0.850667 136.024 1.20212 136.761C1.20212 136.761 1.06982 135.528 1.46273 135.104L2.02347 135.431C2.02347 135.431 1.47657 136.467 1.84776 137.311C1.84776 137.311 1.75101 136.016 2.13998 135.512L2.6474 135.909C2.6474 135.909 2.13404 136.927 2.44995 137.628C2.44995 137.628 2.49143 136.121 2.75995 136.008C2.95221 136.17 3.12393 136.356 3.27133 136.56C3.27133 136.56 2.91986 137.299 3.13705 137.692C3.13705 137.692 3.27131 136.687 3.38188 136.683C3.38188 136.683 3.8222 137.347 3.86761 137.803C3.84732 137.38 3.71658 136.97 3.48851 136.614C3.74321 136.662 3.97806 136.785 4.16378 136.967C4.16378 136.967 4.09467 136.495 3.374 136.453C3.374 136.453 3.00873 135.95 2.91001 135.919C2.91001 135.919 3.62277 135.859 4.05517 136.051C4.05517 136.051 3.67411 135.607 2.77969 135.81L2.28015 135.399C2.28015 135.399 3.21801 135.271 3.61488 135.413C3.61488 135.413 3.15682 135.017 2.14591 135.306L1.60096 134.979C2.01956 134.887 2.44836 134.851 2.87644 134.87C2.87644 134.87 2.37493 134.597 1.44102 134.892L1.04613 134.716C1.04613 134.716 1.63845 134.601 1.80233 134.583C1.96621 134.565 1.98399 134.518 1.98399 134.518C1.61249 134.456 1.23114 134.498 0.882259 134.641C0.882259 134.641 0.0747099 134.334 0.088531 134.282Z" fill="#4D49C4"/>
<path opacity="0.1" d="M3.33121 139.009C1.49161 139.009 0.000320435 138.756 0.000320435 138.445C0.000320435 138.133 1.49161 137.88 3.33121 137.88C5.17082 137.88 6.66211 138.133 6.66211 138.445C6.66211 138.756 5.17082 139.009 3.33121 139.009Z" fill="#4D49C4"/>
<path d="M9.7675 143.291C9.7675 143.291 15.45 142.948 14.7708 146.946C14.8053 147.149 14.775 147.358 14.6842 147.542C14.5934 147.727 14.4468 147.878 14.2653 147.974C14.2653 147.974 14.2653 147.677 13.673 147.776C13.4689 147.811 13.2614 147.821 13.055 147.806C12.7764 147.786 12.5116 147.676 12.3007 147.493C12.3007 147.493 10.7034 146.831 10.0834 144.212C10.0834 144.212 9.62336 143.639 9.64113 143.493L10.6007 143.905C10.6007 143.905 10.273 144.598 10.5296 145.175C10.5296 145.175 10.5612 143.929 10.7448 143.958C10.7824 143.958 11.2444 144.198 11.2444 144.198C11.2444 144.198 10.6797 145.409 11.1062 146.286C11.1062 146.286 10.9443 144.796 11.4201 144.287L12.0954 144.683C12.0954 144.683 11.4359 145.934 11.8821 146.952C11.8821 146.952 11.7676 145.389 12.2375 144.773L12.8477 145.25C12.8477 145.25 12.2296 146.482 12.6068 147.326C12.6068 147.326 12.6561 145.508 12.9819 145.371C12.9819 145.371 13.517 145.842 13.598 146.039C13.598 146.039 13.1734 146.932 13.436 147.404C13.436 147.404 13.5979 146.191 13.7302 146.185C13.7302 146.185 14.2633 146.988 14.3226 147.538C14.296 147.03 14.1374 146.536 13.8625 146.108C14.1703 146.166 14.4544 146.314 14.6799 146.532C14.6799 146.532 14.597 145.965 13.7322 145.916C13.7322 145.916 13.2919 145.306 13.1734 145.268C13.1734 145.268 14.0343 145.197 14.5556 145.428C14.5556 145.428 14.0955 144.893 13.0155 145.137L12.4113 144.642C12.4113 144.642 13.5446 144.485 14.0244 144.658C14.0244 144.658 13.4716 144.184 12.2474 144.529L11.5899 144.133C11.5899 144.133 12.5554 143.925 13.13 144C13.13 144 12.5238 143.671 11.3964 144.028L10.9265 143.816C10.9265 143.816 11.6353 143.675 11.8407 143.653C12.046 143.631 12.0598 143.574 12.0598 143.574C11.6117 143.499 11.1517 143.551 10.731 143.723C10.731 143.723 9.7517 143.354 9.7675 143.291Z" fill="#4D49C4"/>
<path opacity="0.1" d="M13.6831 148.998C11.4619 148.998 9.66119 148.693 9.66119 148.317C9.66119 147.941 11.4619 147.635 13.6831 147.635C15.9044 147.635 17.7051 147.941 17.7051 148.317C17.7051 148.693 15.9044 148.998 13.6831 148.998Z" fill="#4D49C4"/>
<path opacity="0.1" d="M35.9604 146.774C25.8922 146.774 17.7303 145.495 17.7303 143.919C17.7303 142.342 25.8922 141.064 35.9604 141.064C46.0286 141.064 54.1904 142.342 54.1904 143.919C54.1904 145.495 46.0286 146.774 35.9604 146.774Z" fill="#4D49C4"/>
<path opacity="0.1" d="M93.648 154.203C82.3345 154.203 73.1631 153.28 73.1631 152.141C73.1631 151.002 82.3345 150.078 93.648 150.078C104.961 150.078 114.133 151.002 114.133 152.141C114.133 153.28 104.961 154.203 93.648 154.203Z" fill="#4D49C4"/>
<path opacity="0.1" d="M155.711 152.154C147.124 152.154 140.162 151.723 140.162 151.192C140.162 150.66 147.124 150.229 155.711 150.229C164.298 150.229 171.26 150.66 171.26 151.192C171.26 151.723 164.298 152.154 155.711 152.154Z" fill="#4D49C4"/>
<path opacity="0.1" d="M128.104 6.78563C122.337 1.6345 113.282 0.578518 105.043 0.988627C79.1597 2.27839 55.7961 14.8174 35.5857 29.0009C28.2684 34.1342 21.0656 39.6677 16.3171 46.7386C6.64232 61.1301 9.51709 81.0689 22.9591 92.9264C27.5339 96.9602 33.0781 100.059 38.7704 102.795C48.8914 107.671 59.8121 111.583 71.2974 112.701C79.4894 113.493 87.7821 112.849 95.9247 111.74C118.678 108.641 141.011 101.794 159.729 90.0854C167.939 84.9342 175.678 78.5548 179.063 70.2436C182.447 61.9325 180.281 51.4004 171.897 46.481C168.43 44.4463 164.284 43.5271 160.226 42.6652C154.252 41.3953 148.182 40.1432 142.79 37.5597C137.222 34.893 130.629 29.7359 131.733 23.8339C132.914 17.5 133.864 11.9368 128.104 6.78563Z" fill="#4D49C4"/>
<path opacity="0.9" d="M80.3127 77.6196V39.7905H75.1791V28.4977H111.963V39.7905H106.829V77.6196C113.919 80.3214 120.022 85.1223 124.329 91.3853C128.636 97.6484 130.944 105.077 130.945 112.687C130.945 133.4 114.21 150.191 93.5671 150.191C72.9243 150.191 56.1909 133.4 56.1909 112.687C56.1927 105.077 58.5009 97.647 62.8092 91.3838C67.1174 85.1206 73.222 80.3202 80.3127 77.6196Z" fill="#96B7FE"/>
<path opacity="0.1" d="M80.3122 39.6736H106.837V40.1828H80.3122V39.6736Z" fill="black"/>
<path d="M114.48 111.68C114.48 111.68 91.9718 111.284 80.7175 105.632C69.4631 99.9794 63.0324 105.026 63.6366 108.455C64.2407 111.884 67.4532 118.535 80.3147 119.352C93.1762 120.168 114.48 111.68 114.48 111.68Z" fill="#246987"/>
<path opacity="0.1" d="M114.48 111.68C114.48 111.68 91.9718 111.284 80.7175 105.632C69.4631 99.9794 63.0324 105.026 63.6366 108.455C64.2407 111.884 67.4532 118.535 80.3147 119.352C93.1762 120.168 114.48 111.68 114.48 111.68Z" fill="black"/>
<path d="M124.12 108.055C124.12 108.055 126.525 141.527 94.9832 142.132C63.4414 142.736 63.6349 108.451 63.6349 108.451C63.6349 108.451 75.2841 121.153 102.82 110.668C102.82 110.676 117.087 106.844 124.12 108.055Z" fill="#247FA6"/>
<path opacity="0.1" d="M63.7373 108.572C64.3671 116.283 68.4523 140.42 94.971 139.911C120.966 139.417 123.91 116.614 124.141 108.592C124.286 112.897 124.157 141.569 94.9769 142.13C63.4273 142.724 63.6287 108.449 63.6287 108.449C63.6287 108.449 63.6682 108.499 63.7373 108.572Z" fill="black"/>
<path opacity="0.3" d="M94.7908 97.7189C92.5302 97.7189 90.6977 95.8801 90.6977 93.6119C90.6977 91.3436 92.5302 89.5048 94.7908 89.5048C97.0513 89.5048 98.8838 91.3436 98.8838 93.6119C98.8838 95.8801 97.0513 97.7189 94.7908 97.7189Z" fill="#4D49C4"/>
<path opacity="0.3" d="M92.4531 79.7237C91.0541 79.7237 89.9199 78.5856 89.9199 77.1818C89.9199 75.7779 91.0541 74.6399 92.4531 74.6399C93.8522 74.6399 94.9863 75.7779 94.9863 77.1818C94.9863 78.5856 93.8522 79.7237 92.4531 79.7237Z" fill="#4D49C4"/>
<path opacity="0.3" d="M98.1064 65.0528C96.7074 65.0528 95.5732 63.9148 95.5732 62.5109C95.5732 61.1071 96.7074 59.9691 98.1064 59.9691C99.5055 59.9691 100.64 61.1071 100.64 62.5109C100.64 63.9148 99.5055 65.0528 98.1064 65.0528Z" fill="#4D49C4"/>
<path opacity="0.2" d="M119.811 96.7798C120.029 98.5114 119.985 100.679 118.443 101.487C119.736 100.81 114.435 93.1265 115.187 91.5574C116.796 88.2092 119.614 95.1711 119.811 96.7798Z" fill="white"/>
<path opacity="0.3" d="M100.154 20.9492C97.8935 20.9492 96.061 19.1105 96.061 16.8422C96.061 14.574 97.8935 12.7352 100.154 12.7352C102.415 12.7352 104.247 14.574 104.247 16.8422C104.247 19.1105 102.415 20.9492 100.154 20.9492Z" fill="#4D49C4"/>
<path opacity="0.3" d="M87.8744 12.8541C86.194 12.8541 84.8318 11.4872 84.8318 9.80102C84.8318 8.11488 86.194 6.74799 87.8744 6.74799C89.5548 6.74799 90.917 8.11488 90.917 9.80102C90.917 11.4872 89.5548 12.8541 87.8744 12.8541Z" fill="#4D49C4"/>
<path opacity="0.3" d="M96.645 3.17389C95.7716 3.17389 95.0635 2.46339 95.0635 1.58694C95.0635 0.710499 95.7716 0 96.645 0C97.5185 0 98.2266 0.710499 98.2266 1.58694C98.2266 2.46339 97.5185 3.17389 96.645 3.17389Z" fill="#4D49C4"/>
<path opacity="0.9" d="M138.963 52.1413H172.041V61.9859H167V138.789C167.02 140.317 166.737 141.834 166.169 143.252C165.6 144.669 164.756 145.959 163.686 147.047C162.616 148.135 161.341 148.998 159.936 149.588C158.531 150.177 157.023 150.481 155.5 150.481C153.977 150.481 152.469 150.177 151.064 149.588C149.659 148.998 148.384 148.135 147.314 147.047C146.245 145.959 145.401 144.669 144.832 143.252C144.263 141.834 143.98 140.317 144 138.789V61.9859H138.963V52.1413Z" fill="#96B7FE"/>
<path d="M159.338 79.3868C159.338 79.3868 151.152 76.4527 148.873 78.5389C148.873 78.5389 152.188 83.4285 155.241 83.2323C158.293 83.0362 159.338 79.3868 159.338 79.3868Z" fill="#246987"/>
<path opacity="0.1" d="M159.338 79.3868C159.338 79.3868 151.152 76.4527 148.873 78.5389C148.873 78.5389 152.188 83.4285 155.241 83.2323C158.293 83.0362 159.338 79.3868 159.338 79.3868Z" fill="#206A8A"/>
<path d="M148.877 78.5468V134.29C148.877 135.215 149.058 136.13 149.411 136.984C149.764 137.839 150.28 138.615 150.932 139.269C151.584 139.923 152.357 140.441 153.209 140.795C154.06 141.149 154.972 141.331 155.894 141.331C157.755 141.331 159.54 140.589 160.856 139.269C162.172 137.948 162.911 136.157 162.911 134.29V78.5468C162.911 78.5468 159.533 77.6335 156.35 79.5909C153.167 81.5483 148.877 78.5468 148.877 78.5468Z" fill="#247FA6"/>
<path opacity="0.1" d="M144.004 61.9245H167.004V62.3782H144.004V61.9245Z" fill="black"/>
<path opacity="0.1" d="M155.894 137.941C156.816 137.941 157.728 137.759 158.58 137.405C159.431 137.051 160.205 136.532 160.857 135.878C161.508 135.224 162.025 134.448 162.378 133.593C162.73 132.739 162.911 131.823 162.911 130.898V134.419C162.911 136.286 162.172 138.077 160.856 139.398C159.54 140.718 157.755 141.46 155.894 141.46C154.033 141.46 152.248 140.718 150.932 139.398C149.616 138.077 148.877 136.286 148.877 134.419V130.898C148.877 131.823 149.058 132.739 149.41 133.593C149.763 134.448 150.28 135.224 150.931 135.878C151.583 136.532 152.357 137.051 153.208 137.405C154.06 137.759 154.972 137.941 155.894 137.941Z" fill="black"/>
<path opacity="0.3" d="M155.892 73.0728C155.102 73.0728 154.462 72.4306 154.462 71.6384C154.462 70.8462 155.102 70.204 155.892 70.204C156.681 70.204 157.321 70.8462 157.321 71.6384C157.321 72.4306 156.681 73.0728 155.892 73.0728Z" fill="#4D49C4"/>
<path opacity="0.3" d="M151.215 67.4659C150.712 67.4659 150.305 67.057 150.305 66.5526C150.305 66.0482 150.712 65.6393 151.215 65.6393C151.717 65.6393 152.125 66.0482 152.125 66.5526C152.125 67.057 151.717 67.4659 151.215 67.4659Z" fill="#4D49C4"/>
<path opacity="0.3" d="M157.582 65.6412C157.079 65.6412 156.672 65.2323 156.672 64.7279C156.672 64.2235 157.079 63.8146 157.582 63.8146C158.085 63.8146 158.492 64.2235 158.492 64.7279C158.492 65.2323 158.085 65.6412 157.582 65.6412Z" fill="#4D49C4"/>
<path opacity="0.2" d="M165.224 89.9348C165.441 91.6663 165.397 93.8338 163.855 94.6421C165.151 93.9645 159.847 86.2834 160.599 84.7123C162.213 81.368 165.026 88.328 165.224 89.9348Z" fill="white"/>
<path opacity="0.3" d="M152.926 45.9817C151.008 45.9817 149.453 44.4215 149.453 42.4968C149.453 40.5721 151.008 39.0118 152.926 39.0118C154.844 39.0118 156.399 40.5721 156.399 42.4968C156.399 44.4215 154.844 45.9817 152.926 45.9817Z" fill="#4D49C4"/>
<path opacity="0.3" d="M163.346 39.113C161.92 39.113 160.764 37.9527 160.764 36.5215C160.764 35.0903 161.92 33.9301 163.346 33.9301C164.772 33.9301 165.929 35.0903 165.929 36.5215C165.929 37.9527 164.772 39.113 163.346 39.113Z" fill="#4D49C4"/>
<path opacity="0.3" d="M155.904 30.8988C155.163 30.8988 154.562 30.2957 154.562 29.5516C154.562 28.8076 155.163 28.2044 155.904 28.2044C156.646 28.2044 157.247 28.8076 157.247 29.5516C157.247 30.2957 156.646 30.8988 155.904 30.8988Z" fill="#4D49C4"/>
<path d="M18.1169 89.4157C18.1169 89.4157 21.1477 74.2912 19.9887 72.4091C19.9887 72.4091 19.9472 70.6597 20.0163 68.4308C20.0163 68.3456 20.0163 68.2604 20.0163 68.1732C19.8133 68.3122 19.6009 68.4367 19.3805 68.5457C18.3123 69.0985 17.0846 69.2577 15.9114 68.9954L16.8335 67.9692C17.0527 67.7235 17.2837 67.46 17.3311 67.1351C17.3437 66.8226 17.2757 66.5121 17.1336 66.2336C16.2629 64.0246 16.2096 61.245 17.8958 59.559C19.3134 58.1404 19.6609 56.3098 21.1931 55.0161C22.3185 54.0671 22.9365 52.6763 23.5209 51.335C24.0146 50.1978 24.5082 49.0526 24.7945 47.8481C25.0156 46.907 25.1025 45.9342 25.4065 45.0149C25.7106 44.0957 26.2753 43.2021 27.1618 42.792C27.4906 42.6768 27.8095 42.535 28.1155 42.3681C28.4946 42.1125 28.7216 41.6964 28.9941 41.3339C30.3762 39.4894 35.0359 40.5751 37.2394 41.324C37.8377 41.5123 38.3918 41.8203 38.8683 42.2294L38.8486 42.1957L38.7933 42.1145C39.0337 42.31 39.2417 42.5428 39.4093 42.8039C39.7311 43.3151 39.8654 43.9154 40.1319 44.4543C40.4558 45.1081 42.2525 46.9327 41.4805 47.6678C41.4275 47.717 41.3668 47.7571 41.3008 47.7866C41.0126 47.9047 40.6964 47.9364 40.3906 47.8778C40.4024 47.9035 40.4143 47.9293 40.4242 47.9551C40.6865 48.6038 40.8206 49.2976 40.819 49.9977C40.806 51.4633 40.2134 52.8638 39.1714 53.8911C38.1295 54.9184 36.7236 55.4884 35.263 55.4757C34.6856 55.4766 34.1116 55.3884 33.561 55.2142C33.5472 55.2835 33.5353 55.3529 33.5235 55.4222C33.5235 55.4519 33.5235 55.4797 33.5096 55.5074L33.6064 55.6441L33.6222 55.6183L36.5029 59.66C36.9432 59.9691 39.4804 61.8116 39.6166 63.1925C39.7667 64.7042 39.9167 66.4753 39.9167 66.4753L39.9365 66.8538C40.0622 66.9591 40.2092 67.036 40.3673 67.0791C40.5255 67.1222 40.691 67.1305 40.8526 67.1034C41.751 66.9548 41.751 70.4239 41.751 70.4239C41.751 70.4239 42.3433 70.9766 42.7599 70.4972C43.1765 70.0177 44.2566 71.6403 44.2566 71.6403L51.0664 71.9355H51.2224L51.5896 70.7944C51.6298 70.6765 51.714 70.5788 51.8245 70.5219C51.9349 70.465 52.0631 70.4533 52.182 70.4893C52.2108 70.4972 52.2387 70.5085 52.2649 70.5229L52.2886 70.5388C52.3055 70.5484 52.3214 70.5597 52.336 70.5725C52.3454 70.5787 52.354 70.586 52.3617 70.5943C52.3751 70.6058 52.3877 70.6184 52.3992 70.6319C52.4062 70.6401 52.4128 70.6487 52.4189 70.6577L52.4308 70.6696C52.4731 70.7283 52.5013 70.7961 52.5129 70.8676C52.5246 70.9392 52.5194 71.0125 52.4979 71.0816L52.182 72.0604C53.495 72.3258 54.8396 73.0728 53.7438 75.1332L59.2959 74.105L57.4991 75.6166L48.2193 77.5384C48.3417 77.7603 48.2607 78.0793 47.8777 78.529C46.229 80.4745 43.216 81.0015 42.0057 81.1402C41.6877 81.8557 41.2903 82.533 40.821 83.1591L40.9276 85.0967C40.9276 85.0967 43.992 99.8745 44.5547 100.625C44.2766 100.301 44.0225 99.9567 43.7945 99.5951C44.685 102.632 45.9289 106.789 46.2547 107.411C46.7799 108.402 47.2656 112.427 46.6673 112.687C46.4798 112.766 45.9605 112.729 45.2122 112.671V113.004L45.2457 125.634C45.2457 125.634 45.0957 133.383 45.5084 134.12C45.921 134.857 46.0316 136.406 46.0316 136.406C46.0316 136.406 47.6862 139.463 48.9932 140.691L49.0229 140.717L49.0643 140.428C49.0643 140.428 50.6439 142.421 54.115 142.31C54.115 142.31 56.2098 143.675 53.104 143.748C49.9982 143.822 46.0336 143.637 46.0336 143.637C46.0336 143.637 43.2693 139.396 40.9454 139.948V143.158H40.2346V139.921C39.9051 139.702 39.6232 139.42 39.406 139.089C39.1888 138.758 39.0408 138.387 38.971 137.997C38.9097 137.596 38.9538 137.186 39.0989 136.808C39.244 136.429 39.4851 136.095 39.7983 135.839C39.9391 135.711 40.0522 135.555 40.1303 135.382C40.2084 135.208 40.25 135.02 40.2524 134.829L40.278 134.851C40.278 134.787 40.2938 134.722 40.3037 134.653C40.5012 132.992 40.7598 129.577 39.8595 127.045C38.6254 123.576 38.2503 118.745 39.1487 115.867C39.438 114.948 39.6753 114.013 39.8595 113.067C39.8812 112.946 39.9029 112.834 39.9207 112.727C39.3056 112.811 38.6968 112.936 38.0983 113.101C36.0133 113.676 31.4582 113.783 27.5686 113.753C27.5587 113.86 27.5468 113.971 27.535 114.084C27.4637 114.862 27.3169 115.632 27.0967 116.382C26.6109 117.86 26.3859 124.35 26.3859 124.35C26.3859 124.35 25.756 129.69 26.0996 131.865C26.297 133.074 26.4629 134.286 26.5715 135.504V135.528C26.5715 135.528 27.6021 138.478 28.3485 140.085C28.3682 140.127 28.386 140.166 28.4057 140.206C28.6077 140.224 28.8066 140.268 28.998 140.335C28.998 140.335 30.007 142.363 31.0179 142.696C32.0288 143.029 31.6912 144.135 29.4087 143.728C27.1263 143.322 23.6828 142.991 23.6828 142.991L23.5328 140.925L22.8319 140.045L23.0096 142.106L22.2612 141.959L22.36 139.451L21.2128 138.011C21.2128 138.011 19.8307 136.774 21.8861 134.341V134.393C21.9078 134.357 21.9295 134.322 21.9532 134.288V134.276C22.2928 133.745 22.5653 132.757 22.0678 131.001C21.1694 127.831 20.6462 124.953 20.6462 124.953C20.6462 124.953 18.6381 117.244 21.0529 113.594H20.9443C21.192 113.081 21.3674 112.536 21.4655 111.974C21.4774 111.906 21.4873 111.837 21.4991 111.776C19.7221 111.673 17.9589 111.348 16.5314 110.65C16.5472 110.628 17.4061 92.3301 18.1169 89.4157ZM40.7894 76.6568V76.6924L41.1587 76.7102L40.7894 76.6568ZM42.0472 76.8311C42.1079 76.8441 42.1647 76.8712 42.213 76.9104C42.3704 77.1346 42.4695 77.3947 42.5013 77.6672L43.0739 77.5364C43.0739 77.5364 43.4687 77.4512 44.0611 77.3561L44.3355 77.0807C43.5734 77.0094 42.7915 76.9242 42.0472 76.8311Z" fill="url(#paint0_linear)"/>
<path d="M23.1031 139.469L23.3223 142.08L22.5898 141.931L22.7003 139.102L23.1031 139.469Z" fill="#1D2366"/>
<path d="M39.8085 127.08C40.6911 129.602 40.4384 133.008 40.2409 134.662C40.1679 135.275 40.1007 135.653 40.1007 135.653C40.1007 135.653 41.4197 138.668 41.5303 138.779C41.6408 138.89 45.416 141.2 45.416 141.2L48.0538 142.744C48.0538 142.744 50.7292 141.567 49.436 141.159C49.1742 141.053 48.9384 140.891 48.7449 140.685C47.4655 139.461 45.8444 136.416 45.8444 136.416C45.8444 136.416 45.7358 134.872 45.333 134.137C44.9303 133.402 45.0764 125.682 45.0764 125.682L45.0428 113.093V111.453L40.0238 111.49C39.9914 112.048 39.9188 112.602 39.8066 113.148C39.6258 114.091 39.3924 115.022 39.1076 115.938C38.2349 118.813 38.6002 123.623 39.8085 127.08Z" fill="#FFB0B1"/>
<path opacity="0.1" d="M40.1027 135.653C40.1027 135.653 41.4217 138.668 41.5322 138.779C41.6428 138.89 45.416 141.2 45.416 141.2L48.0538 142.744C48.0538 142.744 50.7292 141.567 49.436 141.159C49.1742 141.053 48.9384 140.892 48.7449 140.685L48.6304 141.49L47.7498 141.452L40.2409 134.662C40.1699 135.273 40.1027 135.653 40.1027 135.653Z" fill="black"/>
<path d="M40.1938 134.837L47.7599 141.676L48.6405 141.712L48.8222 140.426C48.8222 140.426 50.3623 142.407 53.7702 142.3C53.7702 142.3 55.8216 143.661 52.7829 143.734C49.7443 143.808 45.8566 143.623 45.8566 143.623C45.8566 143.623 43.1456 139.395 40.875 139.948V143.146H40.178V139.911C39.8538 139.691 39.5772 139.409 39.3648 139.08C39.1524 138.75 39.0086 138.381 38.942 137.995C38.8813 137.597 38.9239 137.189 39.0657 136.812C39.2075 136.436 39.4437 136.102 39.7516 135.843C39.8898 135.715 40.0003 135.559 40.0764 135.386C40.1524 135.213 40.1924 135.026 40.1938 134.837Z" fill="#1D2366"/>
<path d="M22.4061 131.013C22.8938 132.762 22.6272 133.747 22.2955 134.276V134.288C21.8641 134.943 21.5643 135.675 21.413 136.445L21.3814 136.612L24.8248 141.648L26.6926 142.383C26.6926 142.383 29.6977 141.355 29.1488 141.06C29.0106 140.986 28.7954 140.606 28.5565 140.069C27.82 138.484 26.8091 135.54 26.8091 135.54V135.514C26.7045 134.3 26.5347 133.091 26.3471 131.887C26.0114 129.721 26.6275 124.4 26.6275 124.4C26.6275 124.4 26.8466 117.931 27.3245 116.459C27.5393 115.711 27.6827 114.944 27.7529 114.169C27.8516 113.244 27.8733 112.489 27.8733 112.489C27.8733 112.489 25.8989 109.731 22.2679 112.709C21.979 112.948 21.7245 113.226 21.5117 113.535C19.0061 117.101 21.022 124.988 21.022 124.988C21.022 124.988 21.5275 127.853 22.4061 131.013Z" fill="#FFB0B1"/>
<path opacity="0.1" d="M21.3814 136.602L24.8248 141.638L26.6926 142.373C26.6926 142.373 29.6977 141.345 29.1488 141.05C29.0106 140.977 28.7954 140.596 28.5565 140.059C27.285 140.059 26.6255 141.264 26.6255 141.264L25.0143 141.008C25.0143 141.008 22.8879 136.816 22.412 136.56C21.9362 136.305 22.339 134.647 22.339 134.647V134.225L22.3015 134.27V134.282C21.8673 134.938 21.5654 135.673 21.413 136.446L21.3814 136.602Z" fill="black"/>
<path d="M26.5109 141.381C26.5109 141.381 27.427 139.691 29.1843 140.315C29.1843 140.315 30.1715 142.338 31.1587 142.668C32.146 142.999 31.8182 144.101 29.5792 143.697C27.3402 143.292 23.9737 142.962 23.9737 142.962L23.8276 140.903L21.557 137.999C21.557 137.999 20.2006 136.766 22.2165 134.341V134.763C22.2165 134.763 21.8216 136.418 22.2895 136.675C22.7575 136.933 24.8899 141.123 24.8899 141.123L26.5109 141.381Z" fill="#1D2366"/>
<path opacity="0.1" d="M40.0297 111.492C39.9974 112.049 39.9248 112.604 39.8126 113.15C41.8798 112.845 43.797 112.998 45.0527 113.095V111.455L40.0297 111.492Z" fill="black"/>
<path opacity="0.1" d="M21.3081 113.992C21.3081 113.992 24.2461 114.135 27.7448 114.165C27.8435 113.24 27.8652 112.485 27.8652 112.485C27.8652 112.485 25.8908 109.727 22.2598 112.705C21.9709 112.944 21.7164 113.222 21.5036 113.531C21.4464 113.688 21.3812 113.842 21.3081 113.992Z" fill="black"/>
<path d="M21.3086 113.662C21.3086 113.662 34.1682 114.286 38.0914 113.184C42.0146 112.083 45.8944 113.036 46.4808 112.778C47.0672 112.52 46.5894 108.514 46.0859 107.522C45.5824 106.529 42.7511 96.4925 42.7511 96.4925L40.0402 82.3012L37.1812 81.5087L36.9837 81.4532L32.0062 80.0664L28.3554 79.056C28.3554 79.056 21.1013 107.474 21.7252 109.566C21.9513 110.369 21.9872 111.214 21.8299 112.033C21.7322 112.598 21.5568 113.146 21.3086 113.662Z" fill="#1D2366"/>
<path d="M49.4812 72.5952C49.4812 72.5952 52.048 75.3531 50.1051 76.8964C48.1623 78.4398 46.8808 77.045 46.8808 77.045L49.4812 72.5952Z" fill="#C7DAF5"/>
<path opacity="0.1" d="M49.4812 72.5952C49.4812 72.5952 52.048 75.3531 50.1051 76.8964C48.1623 78.4398 46.8808 77.045 46.8808 77.045L49.4812 72.5952Z" fill="black"/>
<path d="M28.7258 54.4355C28.7258 54.4355 29.0259 54.7208 29.4801 55.1468C30.1257 55.751 31.0813 56.6366 31.9303 57.3796C33.115 58.4059 34.0726 59.1627 33.7271 58.5148C33.3815 57.867 33.4467 56.7535 33.6185 55.7055L33.654 55.4975C33.7973 54.7278 33.9872 53.9676 34.2227 53.2211C34.2227 53.2211 32.3252 50.7604 31.2748 49.7896C30.8799 49.4271 30.6094 49.2725 30.5956 49.5261C30.5759 49.8708 30.3172 50.6237 30.0033 51.44C29.9914 51.4637 29.9816 51.4895 29.9717 51.5133C29.7584 52.0621 29.5195 52.6346 29.3083 53.124C28.9864 53.8749 28.7258 54.4355 28.7258 54.4355Z" fill="#FFB0B1"/>
<path opacity="0.1" d="M29.9736 51.5133C30.1521 52.4758 30.5848 53.3726 31.2267 54.1101C31.8685 54.8475 32.6959 55.3985 33.6224 55.7055C33.7677 54.8646 33.9695 54.0346 34.2266 53.221C34.2266 53.221 30.6548 48.589 30.5995 49.5261C30.5659 49.8827 30.3014 50.6712 29.9736 51.5133Z" fill="black"/>
<path opacity="0.1" d="M33.9746 56.9437L33.5126 56.2919C33.5126 56.2919 33.2066 58.1662 32.0792 57.34C30.9518 56.5138 30.8945 63.561 30.8945 63.561L32.1068 81.7048L40.8457 81.1798L40.5989 72.413L39.6117 68.0008L37.1653 61.5758L35.7003 59.4539L33.9746 56.9437Z" fill="black"/>
<path d="M30.8974 63.6719L31.9912 80.0763L32.1058 81.8138L36.9787 81.5226L37.1761 81.5107L40.8506 81.2908L40.6038 72.522L39.6166 68.1118L37.1702 61.6867L35.6993 59.5629L33.9677 57.0547L33.5056 56.4009C33.5056 56.4009 33.1996 58.2771 32.0722 57.4489L32.0505 57.4331C30.9507 56.7238 30.8974 63.6719 30.8974 63.6719Z" fill="#1D2366"/>
<path d="M39.4804 66.5665C39.4804 66.5665 39.9187 67.4858 40.7993 67.3392C41.6799 67.1926 41.6779 70.6478 41.6779 70.6478C41.6779 70.6478 42.2702 71.1986 42.6651 70.7211C43.06 70.2436 44.1302 71.8603 44.1302 71.8603L50.7979 72.1555C50.7979 72.1555 47.8362 73.5146 48.4167 77.6335C48.4167 77.6335 38.347 77.0075 38.0114 76.0486C37.6757 75.0897 39.4804 66.5665 39.4804 66.5665Z" fill="white"/>
<path opacity="0.03" d="M39.4804 66.5665C39.4804 66.5665 39.9187 67.4858 40.7993 67.3392C41.6799 67.1926 41.6779 70.6478 41.6779 70.6478C41.6779 70.6478 42.2702 71.1986 42.6651 70.7211C43.06 70.2436 44.1302 71.8603 44.1302 71.8603L50.7979 72.1555C50.7979 72.1555 47.8362 73.5146 48.4167 77.6335C48.4167 77.6335 38.347 77.0075 38.0114 76.0486C37.6757 75.0897 39.4804 66.5665 39.4804 66.5665Z" fill="black"/>
<path d="M58.8623 74.3229L57.1031 75.8306L42.6304 78.8816L44.4271 77.045L58.8623 74.3229Z" fill="white"/>
<path d="M33.9484 57.5222C34.1873 57.8828 34.8744 59.7769 35.451 61.4232C35.9288 62.7942 36.3296 63.9988 36.3296 63.9988C36.3296 63.9988 37.2635 70.1029 37.7394 71.2044C38.2152 72.306 37.9585 76.6131 37.9585 76.6131L39.7355 87.2383C39.7355 87.2383 40.5411 92.7164 41.785 95.9873C43.0052 99.1989 44.3873 100.711 44.4248 100.756C43.8739 100.009 40.8708 85.2809 40.8708 85.2809L39.8836 66.7131C39.8836 66.7131 39.7375 64.9498 39.5894 63.4421C39.4413 61.9344 36.4757 59.8759 36.4757 59.8759L33.6088 55.7847C33.3146 56.1869 33.5081 56.8605 33.9484 57.5222Z" fill="white"/>
<path d="M41.4255 81.3819C41.4255 81.3819 45.639 81.1997 47.6904 78.7351C49.7419 76.2704 42.9636 77.7445 42.9636 77.7445L41.2064 78.1407L41.4255 81.3819Z" fill="#FFB0B1"/>
<path opacity="0.1" d="M21.711 109.58C21.9371 110.383 21.9729 111.228 21.8157 112.047C26.4201 112.376 31.3463 111.124 31.3463 111.124C32.2624 111.97 34.6811 113.22 34.6811 113.22L36.0001 96.8215C36.8412 94.6144 37.1709 83.0343 37.1709 83.0343C37.1709 83.0343 37.0959 82.428 36.9735 81.5206C36.9735 81.4988 36.9735 81.4751 36.9636 81.4533C36.6339 78.9173 35.9764 74.1565 35.6644 73.5126C35.2241 72.631 37.0189 70.2793 37.0189 70.2793L36.2034 63.2896L36.1047 62.4476C34.381 61.6749 33.0621 59.2123 33.0621 59.2123L32.0512 57.4292C30.9475 56.7199 30.8941 63.668 30.8941 63.668L31.988 80.0724L28.3373 79.0619C28.3373 79.0619 21.0891 107.484 21.711 109.58Z" fill="black"/>
<path d="M16.9836 110.72C22.0027 113.22 31.1266 110.904 31.1266 110.904C32.0427 111.75 34.4614 113 34.4614 113L35.7803 96.6015C36.6214 94.3964 36.9512 82.8163 36.9512 82.8163C36.9512 82.8163 35.8889 74.1763 35.4506 73.2946C35.3223 73.0371 35.3835 72.6547 35.5355 72.2426C36.2846 70.2785 36.56 68.1644 36.3391 66.0731L35.9876 63.0716L35.8889 62.2296C34.1672 61.4569 32.8483 58.9923 32.8483 58.9923L31.9302 57.3796L30.24 54.4078L29.4404 53.0012L29.3061 53.124L28.2676 54.067C28.2676 54.067 27.8273 54.4316 27.1678 54.9923C25.7304 56.2067 23.2466 58.3464 21.9671 59.654C20.8397 60.8091 20.4843 65.2925 20.3876 68.6685C20.3185 70.8894 20.3599 72.6309 20.3599 72.6309C21.4972 74.5051 18.5296 89.5801 18.5296 89.5801C17.8267 92.4846 16.9836 110.72 16.9836 110.72Z" fill="white"/>
<path opacity="0.03" d="M26.6179 58.9566C26.6179 58.9566 30.0633 65.5382 29.6586 68.0365C29.2538 70.5348 28.1205 73.3679 28.6713 74.0296C28.8598 74.2802 29.1035 74.4836 29.3833 74.6238C29.6632 74.764 29.9716 74.8373 30.2845 74.838C30.8334 74.8756 32.3004 75.9038 32.3004 76.0148C32.3004 76.1257 33.6548 76.1257 34.8672 76.6409C36.0795 77.156 37.8722 77.4492 37.8722 77.4492C37.8722 77.4492 41.3532 77.3382 41.6829 77.6691C42.0127 78 42.3424 79.9851 41.6454 81.5661C40.9484 83.1471 40.1804 84.324 39.594 84.5379C39.0075 84.7519 35.3074 83.5097 32.3043 83.2145C29.3012 82.9193 26.0256 80.5379 26.0256 80.5379C26.0256 80.5379 22.436 79.2501 21.8121 77.0807C21.1882 74.9113 22.5822 63.0003 22.5822 63.0003C22.5822 63.0003 23.6563 57.4489 26.6179 58.9566Z" fill="black"/>
<path opacity="0.03" d="M27.0594 58.4059C27.0594 58.4059 30.5028 64.9855 30.1 67.4857C29.6972 69.986 28.5619 72.8172 29.1128 73.4789C29.3012 73.7295 29.5449 73.9328 29.8248 74.0731C30.1046 74.2133 30.4131 74.2866 30.7259 74.2872C31.2748 74.3249 32.7398 75.3531 32.7398 75.4641C32.7398 75.575 34.0963 75.573 35.3066 76.0881C36.5169 76.6033 38.3117 76.8965 38.3117 76.8965C38.3117 76.8965 41.7926 76.7875 42.1224 77.1184C42.4521 77.4492 42.7818 79.4344 42.0849 81.0154C41.3879 82.5964 40.6198 83.7732 40.0334 83.9872C39.447 84.2012 35.7469 82.957 32.7418 82.6638C29.7367 82.3705 26.473 79.9812 26.473 79.9812C26.473 79.9812 22.8834 78.6954 22.2595 76.526C21.6356 74.3566 23.0295 62.4456 23.0295 62.4456C23.0295 62.4456 24.0918 56.8982 27.0594 58.4059Z" fill="black"/>
<path d="M26.7302 58.6258C26.7302 58.6258 30.1716 65.2074 29.7768 67.6978C29.3819 70.1881 28.2387 73.0292 28.7895 73.6909C28.9776 73.9418 29.2213 74.1454 29.5012 74.2857C29.7812 74.426 30.0897 74.4991 30.4026 74.4992C30.9515 74.5369 32.4166 75.5651 32.4166 75.6761C32.4166 75.787 33.773 75.787 34.9834 76.3021C36.1937 76.8172 37.9885 77.1104 37.9885 77.1104C37.9885 77.1104 41.4694 76.9995 41.7991 77.3304C42.1289 77.6612 42.4586 79.6464 41.7616 81.2274C41.0646 82.8084 40.2966 83.9852 39.7102 84.1992C39.1238 84.4132 35.4237 83.1709 32.4186 82.8757C29.4135 82.5805 26.1537 80.1932 26.1537 80.1932C26.1537 80.1932 22.5641 78.9054 21.9402 76.736C21.3163 74.5666 22.7102 62.6556 22.7102 62.6556C22.7102 62.6556 23.7626 57.1181 26.7302 58.6258Z" fill="white"/>
<path opacity="0.1" d="M26.803 76.2724C26.803 76.2724 29.5514 75.7216 28.5978 76.6409C27.6441 77.5602 27.6461 78.3685 26.4733 78.3309C25.3005 78.2932 26.803 76.2724 26.803 76.2724Z" fill="black"/>
<path opacity="0.1" d="M22.1488 96.0884C22.1488 96.0884 23.3947 96.9344 21.0135 98.8819C18.6323 100.829 22.1488 96.0884 22.1488 96.0884Z" fill="black"/>
<path opacity="0.1" d="M24.5321 103.036C24.5321 103.147 24.9705 107.08 23.3218 108.073C21.6731 109.065 24.5321 103.036 24.5321 103.036Z" fill="black"/>
<path d="M50.6922 72.1515C52.019 72.1971 54.8918 72.6052 53.4031 75.3907C52.0861 77.8554 49.8748 76.209 48.6368 74.9569C48.9388 73.7922 49.6745 72.7882 50.6922 72.1515Z" fill="#FFB0B1"/>
<path d="M48.6143 74.9355C48.5943 74.9175 48.5764 74.8976 48.5584 74.8796C48.5764 74.8976 48.5943 74.9175 48.6143 74.9355Z" fill="#FFB0B1"/>
<path opacity="0.1" d="M27.1684 55.1012C28.5782 56.0681 29.7609 56.8843 29.9899 57.0547C30.6237 57.5223 31.8321 60.2801 32.6021 61.6868C33.2221 62.82 35.2301 63.1112 35.9883 63.1826L35.8975 62.3485C34.1757 61.5778 32.8568 59.1132 32.8568 59.1132L29.4489 53.122L28.2761 54.1879C28.2761 54.1879 27.8279 54.5425 27.1684 55.1012Z" fill="black"/>
<path d="M27.1684 54.9923C28.5782 55.9571 29.7609 56.7754 29.9899 56.9438C30.6237 57.4133 31.8321 60.1692 32.6021 61.5758C33.2221 62.7091 35.2301 63.0003 35.9883 63.0716L35.8896 62.2296C34.1678 61.4569 32.8489 58.9923 32.8489 58.9923L29.441 53.0012L28.2682 54.067C28.2682 54.067 27.8279 54.4237 27.1684 54.9923Z" fill="#DCE7FF"/>
<path d="M29.8815 50.2988C29.8803 50.6825 29.9207 51.0651 30.002 51.44C30.1488 52.1405 30.4334 52.8046 30.8391 53.3934C31.5766 54.4697 32.6742 55.2451 33.9327 55.5789C35.1911 55.9126 36.5271 55.7826 37.6983 55.2125C38.8694 54.6424 39.7981 53.6699 40.3158 52.4715C40.8335 51.2731 40.9059 49.9282 40.5199 48.6808C40.1339 47.4334 39.3151 46.3662 38.212 45.6727C37.1089 44.9793 35.7946 44.7057 34.5076 44.9014C33.2206 45.0971 32.0462 45.7493 31.1974 46.7396C30.3487 47.7299 29.8818 48.9927 29.8815 50.2988Z" fill="#FFB0B1"/>
<path opacity="0.1" d="M20.3817 68.6685C21.1268 68.2082 21.7335 67.5536 22.1369 66.7744C22.443 66.1662 22.6464 65.4669 23.1716 65.033C23.6415 64.6486 24.2772 64.5535 24.8597 64.3812C26.7887 63.8086 28.4137 62.0394 28.469 60.0225C28.4966 59.0735 28.2024 58.1245 28.3367 57.1854C28.4124 56.6525 28.6239 56.1482 28.9508 55.7213C29.1104 55.5156 29.2874 55.324 29.4799 55.1488C29.7366 54.9051 30.0071 54.6693 30.2401 54.4098C30.3912 54.2505 30.5237 54.0743 30.6349 53.8847C30.7219 53.7293 30.7927 53.5654 30.8462 53.3954C31.2056 52.2701 30.8798 50.9308 31.2826 49.7916C31.2826 49.7718 31.2964 49.75 31.3043 49.7302C31.4583 49.324 31.7683 48.9199 32.1967 48.8882C32.6252 48.8565 32.9984 49.2151 33.409 49.3775C34.2699 49.7123 35.1999 49.1417 35.9166 48.5593C36.6333 47.9768 37.4428 47.3111 38.357 47.4419C38.9592 47.5271 39.437 47.9411 39.9918 48.1551C40.1204 48.2023 40.2524 48.2394 40.3867 48.2661C39.9153 47.0897 39.0506 46.1147 37.9409 45.5082C36.8313 44.9017 35.5459 44.7016 34.3053 44.9423C33.0647 45.1829 31.9463 45.8492 31.1418 46.827C30.3374 47.8047 29.8971 49.0329 29.8965 50.3008C29.8953 50.6844 29.9356 51.0671 30.0169 51.4419C30.0051 51.4657 29.9952 51.4915 29.9854 51.5152C29.7721 52.064 29.5332 52.6366 29.3219 53.1259L28.2834 54.069C28.2834 54.069 27.8431 54.4335 27.1836 54.9942C25.7462 56.2087 23.2624 58.3484 21.983 59.656C20.8397 60.809 20.4843 65.2925 20.3817 68.6685Z" fill="black"/>
<path d="M40.0437 44.7931C39.7811 44.2562 39.6488 43.6558 39.3369 43.1487C38.8768 42.4057 38.0712 41.9401 37.2479 41.6548C35.0918 40.9099 30.5348 39.8262 29.1744 41.6548C28.9059 42.0174 28.6847 42.4334 28.3135 42.689C28.0135 42.853 27.7012 42.9934 27.3796 43.109C26.5109 43.5192 25.956 44.4087 25.6599 45.324C25.3637 46.2393 25.2768 47.2101 25.0675 48.1492C24.7911 49.3498 24.3034 50.489 23.8197 51.6223C23.2491 52.9596 22.635 54.3444 21.5412 55.2915C20.0386 56.5812 19.701 58.4059 18.313 59.8185C16.6604 61.4986 16.7137 64.2703 17.5647 66.4694C17.7057 66.7475 17.7737 67.0571 17.7621 67.3689C17.682 67.6873 17.5128 67.976 17.2744 68.201L16.3721 69.2233C17.4499 69.4566 18.5741 69.3315 19.5747 68.8668C20.5754 68.4021 21.398 67.6232 21.9183 66.6477C22.2263 66.0395 22.4297 65.3401 22.9549 64.9082C23.4248 64.5219 24.0586 64.4288 24.643 64.2544C26.5721 63.6819 28.197 61.9126 28.2523 59.8958C28.28 58.9488 27.9858 57.9978 28.1181 57.0587C28.1973 56.5325 28.4079 56.035 28.7301 55.6124C29.2376 54.9507 29.9977 54.501 30.4084 53.7758C31.1034 52.5455 30.5763 50.9447 31.0778 49.6153C31.2318 49.2191 31.5398 48.805 31.9702 48.7733C32.4006 48.7416 32.7718 49.1022 33.1825 49.2627C34.0434 49.5975 34.9714 49.0269 35.6881 48.4444C36.4048 47.8619 37.2163 47.1982 38.1285 47.329C38.7327 47.4142 39.2085 47.8263 39.7653 48.0403C40.176 48.1988 41.0092 48.3414 41.3705 47.9927C42.1267 47.2636 40.3675 45.4449 40.0437 44.7931Z" fill="#591D4B"/>
<path opacity="0.1" d="M21.4047 66.0395C21.7107 65.4313 21.9141 64.7319 22.4393 64.298C22.9092 63.9117 23.545 63.8186 24.1274 63.6462C26.0565 63.0736 27.6814 61.3044 27.7367 59.2875C27.7663 58.3385 27.4702 57.3896 27.6044 56.4505C27.6802 55.9175 27.8916 55.4132 28.2185 54.9864C28.7239 54.3246 29.4861 53.8729 29.8948 53.1478C30.5917 51.9175 30.0626 50.3167 30.5641 48.9873C30.7181 48.591 31.0261 48.177 31.4566 48.1453C31.887 48.1136 32.2582 48.4722 32.6689 48.6326C33.5297 48.9694 34.4597 48.3988 35.1744 47.8164C35.8892 47.2339 36.7027 46.5702 37.6168 46.699C38.2092 46.7842 38.6949 47.1963 39.2517 47.4122C39.6623 47.5707 40.4956 47.7134 40.8569 47.3647C41.6131 46.6316 39.8539 44.8129 39.536 44.163C39.2734 43.6261 39.1411 43.0258 38.8291 42.5186L38.7758 42.4354C39.008 42.6327 39.2079 42.8654 39.3681 43.1249C39.6841 43.6321 39.8144 44.2324 40.075 44.7693C40.3929 45.4211 42.1521 47.2398 41.3959 47.9709C41.0365 48.3196 40.2112 48.169 39.7907 48.0185C39.2359 47.8045 38.76 47.3924 38.1558 47.3052C37.2436 47.1764 36.4322 47.8401 35.7154 48.4226C34.9987 49.0051 34.0687 49.5757 33.2099 49.2409C32.7972 49.0804 32.4379 48.7178 31.9976 48.7515C31.5573 48.7852 31.2571 49.1874 31.1031 49.5935C30.6016 50.915 31.1308 52.5158 30.4358 53.754C30.0251 54.4772 29.263 54.9289 28.7575 55.5906C28.4307 56.0175 28.2192 56.5218 28.1434 57.0547C28.0092 57.9938 28.3053 58.9428 28.2757 59.8918C28.2145 61.9107 26.5955 63.6799 24.6664 64.2505C24.084 64.4228 23.4482 64.5159 22.9783 64.9043C22.4531 65.3362 22.2517 66.0355 21.9437 66.6438C21.4234 67.6192 20.6008 68.3982 19.6001 68.8628C18.5995 69.3275 17.4753 69.4527 16.3975 69.2193L16.822 68.7359C18.6859 68.7676 20.5596 67.7096 21.4047 66.0395Z" fill="black"/>
<path opacity="0.1" d="M34.0566 57.6332C34.2975 57.9938 34.9846 59.8878 35.5592 61.5322C36.0963 61.3242 36.5859 59.9849 36.5859 59.9849L33.7249 55.8937C33.4248 56.2979 33.6183 56.9715 34.0566 57.6332Z" fill="black"/>
<path d="M33.9483 57.5222C34.1872 57.8828 34.8743 59.7769 35.4509 61.4232C35.9879 61.2152 36.4756 59.8759 36.4756 59.8759L33.6087 55.7847C33.3145 56.1869 33.508 56.8605 33.9483 57.5222Z" fill="#DCE7FF"/>
<path d="M50.6153 76.3358L52.2047 71.3135C52.2238 71.2544 52.231 71.1922 52.226 71.1303C52.221 71.0684 52.2039 71.0081 52.1757 70.9529C52.1474 70.8977 52.1086 70.8486 52.0614 70.8085C52.0142 70.7684 51.9596 70.738 51.9006 70.7191C51.8418 70.6994 51.7797 70.6917 51.7178 70.6965C51.656 70.7012 51.5957 70.7183 51.5406 70.7467C51.4854 70.7752 51.4365 70.8143 51.3966 70.862C51.3567 70.9096 51.3267 70.9648 51.3083 71.0242L49.7189 76.0505L49.8769 77.1025L50.6153 76.3358Z" fill="#BE8B87"/>
<path opacity="0.1" d="M52.0537 70.8676C51.9947 70.8486 51.9326 70.8414 51.8708 70.8465C51.8091 70.8516 51.7489 70.869 51.6939 70.8975C51.6388 70.9261 51.5899 70.9652 51.55 71.0128C51.5101 71.0604 51.48 71.1154 51.4614 71.1747L49.872 76.1971L49.9924 76.9896L49.8759 77.1104L49.7179 76.0584L51.3074 71.036C51.3257 70.9766 51.3558 70.9215 51.3956 70.8738C51.4355 70.8262 51.4845 70.787 51.5396 70.7586C51.5948 70.7302 51.6551 70.7131 51.7169 70.7083C51.7787 70.7036 51.8409 70.7113 51.8997 70.7309C51.9987 70.7618 52.0843 70.8253 52.1426 70.9112C52.1146 70.8935 52.0848 70.8789 52.0537 70.8676Z" fill="white"/>
<path d="M50.6152 76.3358L49.7228 76.0505L49.8531 76.9143L49.8807 77.1025L50.1414 76.8291L50.6152 76.3358Z" fill="#EFC8C4"/>
<path d="M50.1406 76.8291C50.1243 76.8101 50.105 76.7941 50.0834 76.7815C50.0706 76.7737 50.0559 76.7695 50.0409 76.7695C50.0259 76.7695 50.0112 76.7737 49.9985 76.7815C49.9855 76.7964 49.9749 76.8131 49.9669 76.8311C49.955 76.8519 49.9385 76.8697 49.9186 76.8831C49.8987 76.8965 49.8761 76.9051 49.8524 76.9083L49.88 77.1065L50.1406 76.8291Z" fill="#727A9C"/>
<path d="M52.2119 73.0926C52.2119 73.0926 49.0232 73.0748 49.7755 74.4339C50.5277 75.793 51.6986 75.9594 51.6986 75.9594L52.2119 73.0926Z" fill="#FFB0B1"/>
</g>
<defs>
<linearGradient id="paint0_linear" x1="37.6145" y1="143.808" x2="37.6145" y2="40.3175" gradientUnits="userSpaceOnUse">
<stop stop-color="#808080" stop-opacity="0.25"/>
<stop offset="0.54" stop-color="#808080" stop-opacity="0.12"/>
<stop offset="1" stop-color="#808080" stop-opacity="0.1"/>
</linearGradient>
<clipPath id="clip0">
<rect width="195" height="156" fill="white" transform="matrix(-1 0 0 1 195 0)"/>
</clipPath>
</defs>
</svg>
