<svg width="208" height="130" viewBox="0 0 208 130" fill="none" xmlns="http://www.w3.org/2000/svg">
<g clip-path="url(#clip0)">
<path d="M204.815 52.5155C197.191 22.5357 170.847 0.894428 139.925 0.026418C123.577 -0.432473 106.375 4.98926 93.851 23.9619C71.4622 57.8775 95.2268 81.3142 111.795 92.4509C119.799 97.8421 127.012 104.325 133.223 111.711C144.414 124.991 165.944 141.493 191.584 115.636C210.168 96.8953 209.893 72.485 204.815 52.5155Z" fill="#F2F2F2"/>
<path d="M28.6159 75.2446C28.4105 74.9403 28.2085 74.628 28.0156 74.3162L28.3272 74.1234C28.5175 74.4313 28.7168 74.7394 28.9194 75.0396L28.6159 75.2446Z" fill="#3F3D56"/>
<path d="M26.9109 72.3531C26.5711 71.6863 26.2553 70.9975 25.9724 70.3058L26.3113 70.167C26.5906 70.8494 26.9021 71.529 27.2373 72.1868L26.9109 72.3531ZM25.2068 68.1877C24.9821 67.4746 24.7845 66.743 24.6195 66.0136L24.9769 65.9327C25.1396 66.6525 25.3345 67.3741 25.5562 68.0775L25.2068 68.1877ZM24.2145 63.7983C24.1107 63.059 24.0363 62.3052 23.9932 61.5576L24.3589 61.5365C24.4013 62.2742 24.4748 63.018 24.5772 63.7473L24.2145 63.7983ZM24.3212 59.3146L23.9551 59.306C23.9727 58.5573 24.0213 57.8014 24.0996 57.0595L24.4639 57.0979C24.3867 57.83 24.3386 58.5758 24.3212 59.3146ZM24.7878 54.9005L24.4279 54.8322C24.5674 54.0976 24.7394 53.3599 24.9391 52.6395L25.2921 52.7374C25.095 53.4481 24.9254 54.1759 24.7878 54.9005ZM25.9742 50.6234L25.6306 50.4966C25.8895 49.7949 26.1814 49.0952 26.4979 48.417L26.8298 48.5719C26.5175 49.241 26.2297 49.9312 25.9742 50.6234ZM76.1409 49.4911C75.8545 48.8121 75.5359 48.1361 75.1937 47.4818L75.5184 47.3121C75.8652 47.9753 76.1882 48.6605 76.4784 49.3488L76.1409 49.4911ZM27.8521 46.5983L27.5341 46.4166C27.9051 45.7677 28.3079 45.1258 28.7316 44.5088L29.0335 44.7161C28.6156 45.3249 28.2181 45.9582 27.8521 46.5983ZM74.0839 45.5573C73.6894 44.9343 73.264 44.3197 72.8194 43.7308L73.1119 43.5101C73.5624 44.107 73.9936 44.7299 74.3933 45.3614L74.0839 45.5573ZM30.3656 42.9374L30.0815 42.7059C30.5541 42.1262 31.0563 41.559 31.5746 41.02L31.8386 41.2738C31.3273 41.8056 30.8317 42.3653 30.3656 42.9374ZM71.4095 42.0139C70.9181 41.4632 70.398 40.9263 69.8635 40.4179L70.116 40.1525C70.6576 40.6677 71.1848 41.2119 71.6828 41.7699L71.4095 42.0139ZM33.4427 39.7365L33.2003 39.4619C33.7608 38.9672 34.3488 38.4895 34.948 38.0423L35.1671 38.3358C34.5759 38.7771 33.9957 39.2484 33.4427 39.7365ZM68.1921 38.9539C67.6175 38.4908 67.0166 38.0459 66.4063 37.6316L66.6119 37.3285C67.2306 37.7484 67.8396 38.1992 68.4219 38.6686L68.1921 38.9539ZM37.0001 37.0815L36.8058 36.771C37.4401 36.3743 38.0981 35.9995 38.7618 35.657L38.9297 35.9825C38.275 36.3204 37.6258 36.6902 37.0001 37.0815ZM64.5178 36.4605C63.8743 36.0974 63.2086 35.7571 62.5392 35.4492L62.6923 35.1163C63.3708 35.4285 64.0456 35.7734 64.6979 36.1414L64.5178 36.4605ZM40.9432 35.0466L40.8026 34.7084C41.4929 34.4217 42.2034 34.1605 42.9145 33.9321L43.0265 34.2808C42.3251 34.5061 41.6241 34.7638 40.9432 35.0466ZM60.4836 34.6048C59.7904 34.3531 59.0776 34.1274 58.3652 33.9339L58.4612 33.5805C59.1833 33.7765 59.9058 34.0053 60.6086 34.2604L60.4836 34.6048ZM45.1676 33.69L45.085 33.3331C45.8124 33.1645 46.5568 33.0242 47.2974 32.9159L47.3503 33.2784C46.6197 33.3852 45.8854 33.5236 45.1676 33.69V33.69ZM56.1985 33.4412C55.4744 33.3077 54.7344 33.2027 53.9989 33.1292L54.0354 32.7647C54.7808 32.8393 55.5309 32.9456 56.2648 33.0809L56.1985 33.4412ZM49.5596 33.0481L49.5365 32.6825C50.2815 32.6355 51.0412 32.6188 51.7876 32.6323L51.781 32.9986C51.0438 32.9851 50.2949 33.0018 49.5596 33.0481Z" fill="#3F3D56"/>
<path d="M77.2446 52.6429C77.1466 52.2943 77.04 51.943 76.9277 51.5986L77.2759 51.485C77.3897 51.8341 77.4978 52.1903 77.5972 52.5437L77.2446 52.6429Z" fill="#3F3D56"/>
<path d="M75.0108 32.1295H74.6445C74.6445 31.7629 74.651 31.391 74.6638 31.0241L75.0299 31.0368C75.0173 31.3995 75.0108 31.7671 75.0108 32.1295Z" fill="#3F3D56"/>
<path d="M75.1856 28.8342L74.8213 28.7954C74.8998 28.0576 75.006 27.3139 75.1369 26.5849L75.4975 26.6496C75.3681 27.3701 75.2632 28.1051 75.1856 28.8342ZM75.9655 24.4932L75.6106 24.4027C75.7939 23.6838 76.0059 22.9629 76.2404 22.2602L76.5879 22.3761C76.3561 23.0706 76.1467 23.7828 75.9655 24.4932ZM134.385 20.6285C134.111 19.9488 133.809 19.2705 133.487 18.6129L133.816 18.4519C134.142 19.1174 134.448 19.8037 134.725 20.4917L134.385 20.6285ZM77.3621 20.3075L77.0239 20.1667C77.3087 19.4822 77.6224 18.7989 77.9563 18.1356L78.2834 18.3004C77.9535 18.9558 77.6435 19.631 77.3621 20.3075ZM132.446 16.6667C132.078 16.0337 131.682 15.4056 131.269 14.8L131.572 14.5936C131.99 15.2064 132.39 15.8419 132.763 16.4824L132.446 16.6667ZM79.3467 16.365L79.0321 16.1772C79.4118 15.5412 79.82 14.91 80.2454 14.3012L80.5457 14.511C80.1253 15.1126 79.7218 15.7364 79.3467 16.365H79.3467ZM129.961 13.0221C129.506 12.4471 129.024 11.8818 128.53 11.3419L128.8 11.0945C129.3 11.6409 129.788 12.2128 130.249 12.7946L129.961 13.0221ZM81.874 12.7477L81.5894 12.517C82.0567 11.9407 82.5504 11.3742 83.0571 10.8334L83.3245 11.0838C82.8237 11.6184 82.3357 12.1782 81.874 12.7477ZM126.983 9.76779C126.45 9.26358 125.893 8.77242 125.327 8.30783L125.559 8.02469C126.132 8.49465 126.696 8.99171 127.235 9.50182L126.983 9.76779ZM84.8896 9.52758L84.6406 9.25875C85.1845 8.75516 85.7536 8.26463 86.3321 7.80093L86.5612 8.08676C85.9895 8.54508 85.4271 9.0298 84.8896 9.52757V9.52758ZM123.571 6.96958C122.973 6.54622 122.352 6.13931 121.725 5.76012L121.914 5.44676C122.549 5.83042 123.177 6.24216 123.783 6.67053L123.571 6.96958ZM88.331 6.76891L88.1228 6.46752C88.7326 6.04648 89.3655 5.64216 90.004 5.26566L90.1901 5.58117C89.559 5.95329 88.9336 6.35287 88.331 6.7689V6.76891ZM119.796 4.68615C119.143 4.35257 118.47 4.03885 117.796 3.75347L117.938 3.41614C118.621 3.70482 119.302 4.02239 119.963 4.3599L119.796 4.68615ZM92.1292 4.52992L91.9663 4.20189C92.6298 3.87242 93.3138 3.5629 93.9993 3.282L94.1383 3.62095C93.4608 3.89853 92.7849 4.20438 92.1292 4.52991V4.52992ZM115.733 2.96747C115.04 2.73155 114.329 2.51781 113.619 2.33224L113.711 1.97792C114.43 2.16563 115.15 2.38197 115.851 2.62066L115.733 2.96747ZM96.2069 2.85908L96.0928 2.51102C96.7968 2.28028 97.5187 2.07218 98.2385 1.8925L98.3272 2.2479C97.6159 2.42542 96.9025 2.63102 96.2069 2.85907L96.2069 2.85908ZM111.465 1.85155C110.744 1.71785 110.01 1.60866 109.282 1.52692L109.323 1.16293C110.06 1.24566 110.803 1.3561 111.532 1.49133L111.465 1.85155ZM100.486 1.79127L100.423 1.43033C101.153 1.30325 101.897 1.20102 102.635 1.12635L102.672 1.49087C101.943 1.56456 101.207 1.66562 100.486 1.79127L100.486 1.79127ZM107.081 1.35896C106.348 1.32918 105.602 1.32525 104.874 1.34698L104.863 0.980855C105.6 0.958856 106.354 0.9627 107.096 0.993017L107.081 1.35896Z" fill="#3F3D56"/>
<path d="M135.456 23.7718C135.358 23.4232 135.252 23.0713 135.142 22.7256L135.49 22.614C135.602 22.9637 135.709 23.3198 135.809 23.6725L135.456 23.7718Z" fill="#3F3D56"/>
<path d="M28.4021 79.7909C31.7718 79.7909 34.5034 79.5861 34.5034 79.3333C34.5034 79.0806 31.7718 78.8757 28.4021 78.8757C25.0324 78.8757 22.3008 79.0806 22.3008 79.3333C22.3008 79.5861 25.0324 79.7909 28.4021 79.7909Z" fill="#4D49C4"/>
<path d="M77.0603 57.6736C80.43 57.6736 83.1616 57.4687 83.1616 57.216C83.1616 56.9633 80.43 56.7584 77.0603 56.7584C73.6906 56.7584 70.959 56.9633 70.959 57.216C70.959 57.4687 73.6906 57.6736 77.0603 57.6736Z" fill="#4D49C4"/>
<path d="M137.158 34.6413C140.528 34.6413 143.259 34.4364 143.259 34.1837C143.259 33.931 140.528 33.7261 137.158 33.7261C133.788 33.7261 131.057 33.931 131.057 34.1837C131.057 34.4364 133.788 34.6413 137.158 34.6413Z" fill="#4D49C4"/>
<path d="M134.74 32.6814L116.394 51.028L116.653 51.2869L134.999 32.9403L134.74 32.6814Z" fill="#3F3D56"/>
<path d="M111.074 53.3721H80.2627V53.7384H111.074V53.3721Z" fill="#3F3D56"/>
<path d="M74.6394 55.8693L57.4062 73.1025L57.6652 73.3615L74.8984 56.1283L74.6394 55.8693Z" fill="#3F3D56"/>
<path d="M52.1965 75.4894H31.6045V75.8557H52.1965V75.4894Z" fill="#3F3D56"/>
<path d="M26.0074 77.808L5.54492 98.2705L5.80392 98.5295L26.2664 78.067L26.0074 77.808Z" fill="#3F3D56"/>
<path d="M28.4021 79.059C27.7323 79.059 27.0776 78.8604 26.5207 78.4883C25.9638 78.1162 25.5297 77.5873 25.2734 76.9686C25.0171 76.3498 24.95 75.6689 25.0807 75.012C25.2113 74.3551 25.5339 73.7517 26.0074 73.2781C26.481 72.8045 27.0844 72.4819 27.7413 72.3513C28.3982 72.2206 29.0791 72.2877 29.6979 72.544C30.3167 72.8003 30.8456 73.2343 31.2177 73.7912C31.5898 74.3481 31.7884 75.0028 31.7884 75.6726C31.7874 76.5704 31.4303 77.4311 30.7955 78.066C30.1606 78.7008 29.2999 79.0579 28.4021 79.059ZM28.4021 72.6525C27.8048 72.6525 27.2209 72.8296 26.7242 73.1614C26.2276 73.4933 25.8404 73.9649 25.6119 74.5168C25.3833 75.0686 25.3234 75.6759 25.44 76.2617C25.5565 76.8476 25.8441 77.3857 26.2665 77.8081C26.6888 78.2304 27.227 78.5181 27.8128 78.6346C28.3986 78.7512 29.0059 78.6914 29.5577 78.4628C30.1096 78.2342 30.5813 77.8471 30.9131 77.3505C31.245 76.8538 31.4221 76.2699 31.4221 75.6726C31.4212 74.8719 31.1027 74.1043 30.5366 73.5381C29.9704 72.9719 29.2028 72.6534 28.4021 72.6525Z" fill="#3F3D56"/>
<path d="M55.4 79.059C54.7303 79.059 54.0756 78.8604 53.5187 78.4883C52.9618 78.1162 52.5278 77.5873 52.2714 76.9685C52.0151 76.3497 51.9481 75.6688 52.0787 75.0119C52.2094 74.355 52.5319 73.7516 53.0055 73.278C53.4791 72.8045 54.0825 72.4819 54.7394 72.3513C55.3963 72.2206 56.0772 72.2877 56.696 72.544C57.3147 72.8003 57.8436 73.2343 58.2157 73.7912C58.5878 74.3481 58.7864 75.0028 58.7864 75.6726C58.7854 76.5704 58.4283 77.4312 57.7935 78.066C57.1586 78.7009 56.2979 79.058 55.4 79.059ZM55.4 72.6525C54.8027 72.6525 54.2188 72.8296 53.7222 73.1615C53.2255 73.4933 52.8385 73.965 52.6099 74.5168C52.3813 75.0687 52.3215 75.6759 52.438 76.2618C52.5545 76.8476 52.8422 77.3857 53.2645 77.8081C53.6869 78.2305 54.225 78.5181 54.8109 78.6346C55.3967 78.7512 56.0039 78.6914 56.5558 78.4628C57.1076 78.2342 57.5793 77.8471 57.9111 77.3504C58.243 76.8538 58.4201 76.2699 58.4201 75.6726C58.4192 74.8719 58.1007 74.1042 57.5346 73.5381C56.9684 72.9719 56.2007 72.6534 55.4 72.6525Z" fill="#3F3D56"/>
<path d="M77.0601 56.9416C76.3904 56.9416 75.7357 56.743 75.1788 56.3709C74.6219 55.9988 74.1879 55.4699 73.9316 54.8512C73.6753 54.2324 73.6082 53.5515 73.7389 52.8946C73.8696 52.2377 74.1921 51.6344 74.6657 51.1608C75.1393 50.6872 75.7426 50.3647 76.3995 50.234C77.0564 50.1034 77.7373 50.1704 78.3561 50.4267C78.9748 50.683 79.5037 51.117 79.8758 51.6739C80.2479 52.2308 80.4465 52.8855 80.4466 53.5552C80.4456 54.4531 80.0884 55.3138 79.4536 55.9487C78.8187 56.5835 77.958 56.9406 77.0601 56.9416ZM77.0601 50.5353C76.4628 50.5353 75.8789 50.7124 75.3823 51.0442C74.8857 51.3761 74.4986 51.8478 74.27 52.3996C74.0414 52.9514 73.9816 53.5587 74.0982 54.1445C74.2147 54.7303 74.5024 55.2684 74.9247 55.6908C75.3471 56.1131 75.8852 56.4008 76.4711 56.5173C77.0569 56.6338 77.6641 56.574 78.216 56.3454C78.7678 56.1168 79.2395 55.7297 79.5713 55.2331C79.9031 54.7364 80.0803 54.1525 80.0802 53.5552C80.0793 52.7546 79.7608 51.9869 79.1947 51.4208C78.6285 50.8546 77.8608 50.5361 77.0601 50.5353V50.5353Z" fill="#3F3D56"/>
<path d="M114.278 56.9416C113.608 56.9416 112.953 56.743 112.397 56.3709C111.84 55.9988 111.406 55.4699 111.149 54.8512C110.893 54.2324 110.826 53.5515 110.957 52.8946C111.087 52.2377 111.41 51.6344 111.883 51.1608C112.357 50.6872 112.96 50.3647 113.617 50.234C114.274 50.1034 114.955 50.1704 115.574 50.4267C116.193 50.683 116.721 51.117 117.094 51.6739C117.466 52.2308 117.664 52.8855 117.664 53.5552C117.663 54.4531 117.306 55.3138 116.671 55.9487C116.036 56.5835 115.176 56.9406 114.278 56.9416ZM114.278 50.5353C113.681 50.5353 113.097 50.7124 112.6 51.0442C112.103 51.3761 111.716 51.8478 111.488 52.3996C111.259 52.9514 111.199 53.5587 111.316 54.1445C111.432 54.7303 111.72 55.2684 112.142 55.6908C112.565 56.1131 113.103 56.4008 113.689 56.5173C114.275 56.6338 114.882 56.574 115.434 56.3454C115.986 56.1168 116.457 55.7297 116.789 55.2331C117.121 54.7364 117.298 54.1525 117.298 53.5552C117.297 52.7545 116.979 51.9869 116.412 51.4207C115.846 50.8546 115.079 50.5361 114.278 50.5353V50.5353Z" fill="#3F3D56"/>
<path d="M137.158 33.9091C136.488 33.9091 135.833 33.7105 135.276 33.3384C134.72 32.9663 134.286 32.4375 134.029 31.8187C133.773 31.1999 133.706 30.519 133.837 29.8622C133.967 29.2053 134.29 28.6019 134.763 28.1283C135.237 27.6547 135.84 27.3322 136.497 27.2015C137.154 27.0709 137.835 27.1379 138.454 27.3942C139.073 27.6505 139.601 28.0846 139.974 28.6414C140.346 29.1983 140.544 29.853 140.544 30.5228C140.543 31.4206 140.186 32.2813 139.551 32.9162C138.916 33.551 138.056 33.9081 137.158 33.9091ZM137.158 27.5028C136.561 27.5028 135.977 27.6799 135.48 28.0118C134.983 28.3436 134.596 28.8153 134.368 29.3671C134.139 29.919 134.079 30.5262 134.196 31.112C134.312 31.6979 134.6 32.236 135.022 32.6583C135.445 33.0807 135.983 33.3683 136.569 33.4848C137.155 33.6013 137.762 33.5415 138.314 33.3129C138.865 33.0844 139.337 32.6973 139.669 32.2006C140.001 31.704 140.178 31.1201 140.178 30.5228C140.177 29.7221 139.859 28.9545 139.292 28.3883C138.726 27.8221 137.959 27.5037 137.158 27.5028V27.5028Z" fill="#3F3D56"/>
<path d="M3.38648 104.074C2.71671 104.074 2.06198 103.876 1.50508 103.504C0.948178 103.132 0.514122 102.603 0.257801 101.984C0.00147932 101.365 -0.0655954 100.684 0.0650591 100.027C0.195714 99.3705 0.518229 98.7671 0.99182 98.2935C1.46541 97.8199 2.06881 97.4974 2.72571 97.3667C3.3826 97.236 4.0635 97.3031 4.68228 97.5594C5.30107 97.8157 5.82996 98.2498 6.20206 98.8067C6.57417 99.3635 6.77278 100.018 6.77278 100.688C6.77177 101.586 6.41467 102.447 5.77984 103.081C5.14501 103.716 4.28428 104.073 3.38648 104.074ZM3.38648 97.668C2.78916 97.6679 2.20525 97.8451 1.70859 98.1769C1.21193 98.5087 0.824822 98.9804 0.596226 99.5322C0.367629 100.084 0.307809 100.691 0.424329 101.277C0.54085 101.863 0.828477 102.401 1.25084 102.824C1.6732 103.246 2.21133 103.534 2.79717 103.65C3.38301 103.767 3.99025 103.707 4.5421 103.478C5.09396 103.25 5.56563 102.863 5.89749 102.366C6.22934 101.869 6.40647 101.285 6.40647 100.688C6.40555 99.8874 6.08709 99.1197 5.52093 98.5536C4.95477 97.9874 4.18716 97.6689 3.38648 97.668Z" fill="#3F3D56"/>
<path d="M28.4021 55.6908C27.6009 55.6908 26.8075 55.8486 26.0672 56.1552C25.327 56.4618 24.6544 56.9113 24.0878 57.4778C23.5213 58.0444 23.0718 58.717 22.7652 59.4572C22.4586 60.1975 22.3008 60.9909 22.3008 61.7921C22.3008 65.1618 28.4021 76.2827 28.4021 76.2827C28.4021 76.2827 34.5034 65.1618 34.5034 61.7921C34.5034 60.9909 34.3456 60.1975 34.039 59.4572C33.7324 58.717 33.2829 58.0444 32.7164 57.4778C32.1498 56.9113 31.4772 56.4618 30.737 56.1552C29.9967 55.8486 29.2033 55.6908 28.4021 55.6908ZM28.4021 64.9953C27.7686 64.9953 27.1493 64.8074 26.6225 64.4555C26.0957 64.1035 25.6852 63.6032 25.4427 63.0179C25.2003 62.4326 25.1369 61.7886 25.2605 61.1672C25.3841 60.5458 25.6891 59.9751 26.1371 59.5271C26.5851 59.0791 27.1558 58.7741 27.7772 58.6505C28.3985 58.5269 29.0426 58.5903 29.6279 58.8328C30.2132 59.0752 30.7135 59.4858 31.0655 60.0125C31.4174 60.5393 31.6053 61.1586 31.6053 61.7921C31.6053 62.6417 31.2678 63.4564 30.6671 64.0571C30.0664 64.6578 29.2516 64.9953 28.4021 64.9953Z" fill="#4D49C4"/>
<path d="M77.0603 32.8108C75.4421 32.8108 73.8902 33.4536 72.746 34.5978C71.6018 35.742 70.959 37.2939 70.959 38.9121C70.959 42.2818 77.0603 53.4028 77.0603 53.4028C77.0603 53.4028 83.1616 42.2818 83.1616 38.9121C83.1616 38.1109 83.0038 37.3175 82.6972 36.5772C82.3906 35.837 81.9411 35.1644 81.3746 34.5978C80.808 34.0313 80.1354 33.5818 79.3952 33.2752C78.6549 32.9686 77.8615 32.8108 77.0603 32.8108ZM77.0603 42.1153C76.4268 42.1153 75.8075 41.9274 75.2807 41.5755C74.7539 41.2235 74.3434 40.7232 74.1009 40.1379C73.8585 39.5526 73.7951 38.9086 73.9187 38.2872C74.0423 37.6658 74.3473 37.0951 74.7953 36.6471C75.2433 36.1991 75.814 35.8941 76.4354 35.7705C77.0567 35.6469 77.7008 35.7103 78.2861 35.9528C78.8714 36.1952 79.3717 36.6058 79.7236 37.1325C80.0756 37.6593 80.2635 38.2786 80.2635 38.9121C80.2635 39.7617 79.926 40.5764 79.3253 41.1771C78.7246 41.7778 77.9098 42.1153 77.0603 42.1153Z" fill="#4D49C4"/>
<path d="M196.838 129.553H113.771V130H196.838V129.553Z" fill="#2F2E41"/>
<path d="M182.318 13.2662C181.027 17.0897 179.047 20.5734 175.011 20.5734C170.975 20.5734 167.931 17.2955 167.704 13.2662C167.413 8.1176 170.882 5.93764 175.011 5.95896C179.888 5.98415 183.851 8.72866 182.318 13.2662Z" fill="#2F2E41"/>
<path d="M182.125 12.6893H167.703V30.9574H182.125V12.6893Z" fill="#2F2E41"/>
<path d="M182.549 26.2991H183.776C183.776 26.2991 186.775 30.1155 185.412 35.2949C184.049 40.4743 185.139 41.4284 185.139 41.4284C185.139 41.4284 186.914 47.0372 185.005 55.4878C183.097 63.9384 186.775 66.2349 186.775 66.2349L183.367 59.4199L181.459 41.4284L182.549 26.2991Z" fill="#575A89"/>
<path opacity="0.1" d="M182.549 26.7474H183.776C183.776 26.7474 186.775 30.5638 185.412 35.7432C184.049 40.9226 185.139 41.8767 185.139 41.8767C185.139 41.8767 186.914 47.4855 185.005 55.9361C183.097 64.3867 186.775 66.6832 186.775 66.6832L183.367 59.8682L181.459 41.8767L182.549 26.7474Z" fill="black"/>
<path d="M178.255 19.6886C178.255 19.6886 177.165 24.0502 177.71 24.0502C178.255 24.0502 180.163 26.3672 180.163 26.3672L181.39 30.8651L180.436 34.1363L177.165 33.4548L173.076 28.9569L171.849 27.7302L170.759 23.7776C170.759 23.7776 172.122 22.142 171.168 20.779C170.214 19.416 178.255 19.6886 178.255 19.6886Z" fill="#FBBEBE"/>
<path opacity="0.1" d="M178.255 19.6886C178.255 19.6886 177.165 24.0502 177.71 24.0502C178.255 24.0502 180.163 26.3672 180.163 26.3672L181.39 30.8651L180.436 34.1363L177.165 33.4548L173.076 28.9569L171.849 27.7302L170.759 23.7776C170.759 23.7776 172.122 22.142 171.168 20.779C170.214 19.416 178.255 19.6886 178.255 19.6886Z" fill="black"/>
<path d="M145.271 31.8193L142.272 26.9125C142.272 26.9125 139.036 19.7507 136.718 22.3404C134.401 24.9301 140.228 30.1837 140.228 30.1837L143.226 34.1364L145.271 31.8193Z" fill="#FBBEBE"/>
<path d="M185.07 74.481L182.889 90.428C182.889 90.428 183.162 91.6547 180.436 96.1526C177.71 100.65 170.35 110.464 170.35 110.464L168.169 106.375C168.169 106.375 170.759 93.4266 175.257 90.7006L174.711 71.0735L185.07 74.481Z" fill="#FBBEBE"/>
<path opacity="0.1" d="M185.07 74.481L182.889 90.428C182.889 90.428 183.162 91.6547 180.436 96.1526C177.71 100.65 170.35 110.464 170.35 110.464L168.169 106.375C168.169 106.375 170.759 93.4266 175.257 90.7006L174.711 71.0735L185.07 74.481Z" fill="black"/>
<path d="M168.169 104.739L171.168 110.464C171.168 110.464 168.714 117.415 169.668 118.097C170.622 118.778 171.849 124.912 169.259 124.23C166.67 123.549 164.625 120.823 164.625 120.414C164.625 120.005 166.125 114.28 165.307 112.917C164.489 111.554 163.944 111.146 163.944 111.146L161.899 114.553L161.218 114.144L164.625 108.42C164.625 108.42 165.034 107.329 166.67 106.648L168.169 104.739Z" fill="#2F2E41"/>
<path opacity="0.1" d="M168.169 104.739L171.168 110.464C171.168 110.464 168.714 117.415 169.668 118.097C170.622 118.778 171.849 124.912 169.259 124.23C166.67 123.549 164.625 120.823 164.625 120.414C164.625 120.005 166.125 114.28 165.307 112.917C164.489 111.554 163.944 111.146 163.944 111.146L161.899 114.553L161.218 114.144L164.625 108.42C164.625 108.42 165.034 107.329 166.67 106.648L168.169 104.739Z" fill="black"/>
<path d="M174.744 72.2184C174.744 72.2184 175.802 87.2931 173.485 91.2458V110.873L170.35 111.282C170.35 111.282 164.02 100.891 166.337 90.6683C168.654 80.4458 163.944 71.0735 163.944 71.0735L174.744 72.2184Z" fill="#FBBEBE"/>
<path d="M173.962 23.0279C177.124 23.0279 179.686 20.4649 179.686 17.3033C179.686 14.1417 177.124 11.5787 173.962 11.5787C170.8 11.5787 168.237 14.1417 168.237 17.3033C168.237 20.4649 170.8 23.0279 173.962 23.0279Z" fill="#FBBEBE"/>
<path d="M179.755 32.3645L174.031 25.1406L170.759 22.9598L169.396 24.7317L165.58 25.8221C165.58 25.8221 163.127 26.3673 160.537 29.3659C157.947 32.3645 153.313 34.1364 153.313 34.1364L149.497 33.4549C149.497 33.4549 144.999 31.4104 144.999 30.8652C144.999 30.32 141.046 34.5453 142 36.1809C142.954 37.8165 144.999 39.861 146.089 40.9514C147.18 42.0418 147.588 45.1767 154.267 44.2226C160.946 43.2685 163.399 39.9973 163.399 39.9973C163.399 39.9973 164.626 46.2671 168.17 47.4938C171.713 48.7205 183.299 49.5383 183.299 49.5383L185.752 41.3603C185.752 41.3603 188.478 37.8165 184.798 32.6371C184.798 32.6371 184.728 29.7404 184.332 27.8129C184.178 27.0632 183.975 26.46 183.708 26.231C182.754 25.4132 177.711 24.0502 177.711 24.0502C177.711 24.0502 178.528 26.7762 178.937 26.9125C179.346 27.0488 180.3 31.683 179.755 32.3645Z" fill="#575A89"/>
<path d="M161.423 73.0499C168.287 72.5728 172.284 73.6973 174.066 74.5546C174.398 74.7046 174.71 74.8941 174.996 75.1189C175.127 75.2293 175.189 75.3152 175.189 75.367C175.189 75.7759 184.594 76.5937 188.002 75.7759C191.409 74.9581 185.685 57.3754 184.185 55.8761C182.686 54.3768 183.494 48.8894 183.494 48.8894C183.494 48.8894 180.505 48.2434 179.687 48.516C178.87 48.7886 174.644 48.1071 173.145 47.2893C171.646 46.4715 169.738 47.0167 168.511 46.7441C167.963 46.6228 167.686 46.8272 167.549 47.0916C167.334 47.4883 167.011 47.8152 166.616 48.0335C163.723 49.7004 161.4 61.2259 159.651 67.5979C157.743 74.5492 161.423 73.0499 161.423 73.0499Z" fill="#2F2E41"/>
<path d="M174.03 109.646L174.575 112.645C174.575 112.645 177.438 116.734 176.62 120.141C176.62 120.141 177.301 124.639 179.755 125.866C182.208 127.093 180.164 129.955 177.847 129.819C175.529 129.682 173.349 129.955 173.076 129.273C172.803 128.592 171.168 121.913 171.168 121.913L170.72 129.729L169.357 129.865L169.805 120.823C169.805 120.823 168.715 118.778 170.214 115.371L169.835 110.14C169.835 110.14 173.621 111.009 174.03 109.646Z" fill="#2F2E41"/>
<path opacity="0.1" d="M174.066 74.5546C174.398 74.7046 174.71 74.894 174.996 75.1189C175.068 73.8308 175.485 66.0413 174.985 66.1667L174.066 74.5546Z" fill="black"/>
<path d="M171.592 9.42026C171.592 9.42026 171.529 9.06735 169.05 9.99715C166.57 10.927 165.084 17.7885 166.323 21.8177C166.823 23.4414 166.417 24.6121 165.753 25.4312C163.264 28.5051 164.244 33.1219 167.87 34.7026C167.972 34.7472 168.077 34.7914 168.183 34.8349L169.733 35.7648C169.733 35.7648 167.757 33.1654 168.746 29.8404C169.604 27.0073 169.71 23.9995 169.054 21.113C168.94 20.6261 168.811 20.1241 168.665 19.6119C167.425 15.2728 168.028 15.7739 172.367 11.4348C172.367 11.4348 174.847 13.2945 177.016 14.2243C179.186 15.1541 181.045 16.0839 179.496 19.1832C177.946 22.2826 174.227 25.072 176.706 29.1011C179.186 33.1303 179.496 31.5806 179.186 33.1303L178.876 34.68L180.735 32.8204L179.496 35.2999C179.496 35.2999 183.525 35.2998 184.765 32.2005L185.385 32.8204C185.385 32.8204 187.864 28.4813 183.215 24.4521C183.215 24.4521 181.665 23.5223 183.835 20.423C186.004 17.3236 184.338 10.66 181.549 9.42026C178.759 8.18052 171.592 9.42026 171.592 9.42026Z" fill="#2F2E41"/>
<path d="M175.01 7.49738C176.603 7.49738 177.895 6.20598 177.895 4.61295C177.895 3.01992 176.603 1.72852 175.01 1.72852C173.417 1.72852 172.126 3.01992 172.126 4.61295C172.126 6.20598 173.417 7.49738 175.01 7.49738Z" fill="#2F2E41"/>
<path d="M171.55 3.0745C171.55 2.35946 171.815 1.66993 172.295 1.13966C172.775 0.60938 173.434 0.27616 174.146 0.20463C174.051 0.195204 173.954 0.190063 173.857 0.190063C173.092 0.190063 172.358 0.493958 171.817 1.03489C171.277 1.57583 170.973 2.3095 170.973 3.0745C170.973 3.8395 171.277 4.57317 171.817 5.1141C172.358 5.65504 173.092 5.95893 173.857 5.95893C173.954 5.95893 174.051 5.95379 174.146 5.94437C173.434 5.87283 172.775 5.53961 172.295 5.00934C171.815 4.47906 171.55 3.78953 171.55 3.0745Z" fill="#2F2E41"/>
<path d="M137.158 10.8461C136.357 10.8461 135.563 11.0039 134.823 11.3105C134.083 11.6171 133.41 12.0665 132.844 12.6331C132.277 13.1997 131.828 13.8723 131.521 14.6125C131.214 15.3528 131.057 16.1462 131.057 16.9474C131.057 20.317 137.158 31.438 137.158 31.438C137.158 31.438 143.259 20.317 143.259 16.9474C143.259 16.1462 143.101 15.3528 142.795 14.6125C142.488 13.8723 142.039 13.1997 141.472 12.6331C140.906 12.0665 140.233 11.6171 139.493 11.3105C138.753 11.0039 137.959 10.8461 137.158 10.8461ZM137.158 20.1506C136.524 20.1506 135.905 19.9627 135.378 19.6107C134.852 19.2588 134.441 18.7585 134.199 18.1732C133.956 17.5879 133.893 16.9438 134.016 16.3225C134.14 15.7011 134.445 15.1304 134.893 14.6824C135.341 14.2344 135.912 13.9294 136.533 13.8058C137.154 13.6822 137.798 13.7456 138.384 13.988C138.969 14.2305 139.469 14.641 139.821 15.1678C140.173 15.6946 140.361 16.3139 140.361 16.9474C140.361 17.7969 140.024 18.6117 139.423 19.2124C138.822 19.8131 138.007 20.1506 137.158 20.1506Z" fill="#4D49C4"/>
<path d="M87.9723 124.371C89.7956 124.371 91.2737 122.893 91.2737 121.069C91.2737 119.246 89.7956 117.768 87.9723 117.768C86.149 117.768 84.6709 119.246 84.6709 121.069C84.6709 122.893 86.149 124.371 87.9723 124.371Z" fill="#F1F1F1"/>
<path d="M108.513 110.406C110.337 110.406 111.815 108.928 111.815 107.105C111.815 105.281 110.337 103.803 108.513 103.803C106.69 103.803 105.212 105.281 105.212 107.105C105.212 108.928 106.69 110.406 108.513 110.406Z" fill="#F1F1F1"/>
<path d="M83.111 97.4032C84.9343 97.4032 86.4124 95.9252 86.4124 94.1019C86.4124 92.2785 84.9343 90.8005 83.111 90.8005C81.2877 90.8005 79.8096 92.2785 79.8096 94.1019C79.8096 95.9252 81.2877 97.4032 83.111 97.4032Z" fill="#F1F1F1"/>
</g>
<defs>
<clipPath id="clip0">
<rect width="207.779" height="130" fill="white"/>
</clipPath>
</defs>
</svg>
