<svg width="71" height="49" viewBox="0 0 71 49" fill="none" xmlns="http://www.w3.org/2000/svg">
<g clip-path="url(#clip0)">
<path d="M66.5 48.3639H4.5C2.3 48.3639 0.5 46.5639 0.5 44.3639V4.36389C0.5 2.16389 2.3 0.363892 4.5 0.363892H66.5C68.7 0.363892 70.5 2.16389 70.5 4.36389V44.3639C70.5 46.5639 68.7 48.3639 66.5 48.3639Z" fill="#192169"/>
<path d="M35.5 14.4639C32.8 11.3639 28.7 9.36389 24.3 9.36389C16 9.36389 9.30005 16.0639 9.30005 24.3639C9.30005 32.6639 16 39.3639 24.3 39.3639C28.8 39.3639 32.8 37.3639 35.5 34.2639C33.2001 31.6639 31.7001 28.1639 31.7001 24.3639C31.7001 20.5639 33.2001 17.0639 35.5 14.4639Z" fill="#FF0016"/>
<path d="M35.5001 14.4639C33.2001 17.0639 31.7001 20.5639 31.7001 24.3639C31.7001 28.1639 33.1001 31.6639 35.5001 34.2639C37.8001 31.6639 39.3001 28.1639 39.3001 24.3639C39.3001 20.5639 37.8001 17.0639 35.5001 14.4639Z" fill="#FF0016"/>
<path d="M46.8 9.36389C42.3 9.36389 38.3 11.3639 35.6 14.4639C35 15.1639 34.4 15.9639 33.9 16.8639H37.3C37.8 17.7639 38.3 18.7639 38.6 19.8639H32.5C32.2 20.8639 32 21.8639 31.9 22.8639H39.2C39.3 23.3639 39.3 23.8639 39.3 24.3639C39.3 24.8639 39.3 25.3639 39.2 25.8639H31.9C32 26.8639 32.2 27.8639 32.5 28.8639H38.5C38.2 29.9639 37.7 30.9639 37.2 31.8639H33.8C34.3 32.7639 34.9 33.5639 35.5 34.2639C38.2 37.3639 42.3 39.3639 46.7 39.3639C55 39.3639 61.7 32.6639 61.7 24.3639C61.8 16.0639 55 9.36389 46.8 9.36389Z" fill="#FFA916"/>
</g>
<defs>
<clipPath id="clip0">
<rect width="70" height="48" fill="white" transform="translate(0.5 0.363892)"/>
</clipPath>
</defs>
</svg>
