<svg width="125" height="41" viewBox="0 0 125 41" fill="none" xmlns="http://www.w3.org/2000/svg">
<path d="M26 32.5239H31.8V15.6239H26V32.5239ZM33.8 4.12388H29.9V8.02388H33.8V4.12388ZM11.9 6.02388H6.3V10.9239H11.5C14.8 10.9239 16.7 12.5239 16.7 15.5239C16.7 18.5239 14.8 20.2239 11.5 20.2239H6.3V11.0239H0.5V32.5239H6.3V25.1239H11.8C18.5 25.1239 22.4 21.5239 22.4 15.3239C22.4 9.52388 18.6 6.02388 11.9 6.02388ZM37.7 0.223877H26V11.9239H37.7V0.223877ZM35.8 9.92388H28V2.12388H35.8V9.92388ZM69.8 6.02388H64.5V10.9239H69.5C72.8 10.9239 74.7 12.5239 74.7 15.5239C74.7 18.5239 72.8 20.2239 69.5 20.2239H64.5V11.0239H58.7V32.5239H64.5V25.1239H69.8C76.5 25.1239 80.4 21.5239 80.4 15.3239C80.4 9.52388 76.5 6.02388 69.8 6.02388ZM118.5 12.2239L113.5 24.8239L108.5 12.2239H102.5L110.5 32.5239L107.4 40.2239H113.5L124.5 12.2239H118.5ZM92.5 12.1239C89 12.1239 86.3 12.9239 83.3 14.4239L85.1 18.4239C87.2 17.2239 89.3 16.6239 91.2 16.6239C94 16.6239 95.4 17.8239 95.4 20.0239V20.4239H89.8C84.8 20.4239 82.1 22.7239 82.1 26.5239C82.1 30.2239 84.7 32.8239 89.1 32.8239C91.9 32.8239 93.9 31.8239 95.5 30.1239V32.3239H101.2V19.1239C101 14.8239 97.9 12.1239 92.5 12.1239ZM95.9 25.7239C95.3 27.4239 93.6 28.8239 91.2 28.8239C89.2 28.8239 88 27.8239 88 26.2239C88 24.6239 89.1 23.9239 91.3 23.9239H95.9V25.7239ZM46.6 28.1239C43.8 28.1239 41.8 25.9239 41.8 22.6239C41.8 19.4239 43.8 17.2239 46.6 17.2239C48.6 17.2239 50.1 18.0239 51.2 19.4239L55.1 16.6239C53.3 13.9239 50.2 12.3239 46.3 12.3239C40.2 12.2239 36 16.4239 36 22.6239C36 28.8239 40.2 32.9239 46.3 32.9239C50.5 32.9239 53.6 31.2239 55.3 28.4239L51.3 25.7239C50.3 27.3239 48.7 28.1239 46.6 28.1239Z" fill="#21C25E"/>
</svg>
