<svg width="287" height="184" viewBox="0 0 287 184" fill="none" xmlns="http://www.w3.org/2000/svg">
<path d="M39.3467 184C61.0774 184 78.6935 181.893 78.6935 179.295C78.6935 176.696 61.0774 174.589 39.3467 174.589C17.6161 174.589 0 176.696 0 179.295C0 181.893 17.6161 184 39.3467 184Z" fill="#E6E6E6"/>
<path d="M49.3789 54.5595C49.3588 54.6598 49.3388 54.7572 49.3159 54.8574C48.2674 59.3321 48.4994 63.8611 49.8029 68.4361H28.0312L31.4689 52.7118C31.4679 51.5624 31.7137 50.4262 32.1897 49.3799C32.6656 48.3337 33.3605 47.4018 34.2276 46.6473C34.3737 46.5183 34.5255 46.3923 34.683 46.2777C36.076 45.2245 37.7753 44.6561 39.5215 44.6592H41.3893C42.5141 44.6574 43.6277 44.8825 44.6636 45.3209C44.8384 45.3954 45.0102 45.4756 45.1764 45.5615C48.7859 46.8163 50.9602 50.5318 50.5219 54.3704C50.0005 58.9367 50.7597 63.4085 52.5845 67.8001L51.4472 67.9319C49.6281 63.5603 48.869 59.1086 49.3789 54.5595Z" fill="#2F2E41"/>
<path d="M36.1955 56.8341C36.1955 56.8341 37.9143 64.2823 34.4767 64.8552C31.0391 65.4281 43.3573 67.1469 43.3573 67.1469C43.3573 67.1469 42.4978 61.1311 44.5031 59.1258L36.1955 56.8341Z" fill="#FBBEBE"/>
<path d="M21.852 108.38C21.852 108.38 21.1499 117.14 24.1384 117.257C27.1269 117.375 25.4668 108.632 25.4668 108.632L21.852 108.38Z" fill="#FBBEBE"/>
<path d="M61.6905 112.695C61.6905 112.695 64.5552 121.003 61.6905 121.862C58.8259 122.722 58.2529 113.841 58.2529 113.841L61.6905 112.695Z" fill="#FBBEBE"/>
<path d="M46.5098 71.4438L50.5415 70.8284L52.2392 72.0169L53.6715 76.3138L57.1092 93.7885L59.6874 105.247L63.6978 113.268L57.1092 116.133L50.8066 95.5072L46.5098 71.4438Z" fill="#575A89"/>
<path d="M30.6095 92.7859C30.6095 92.7859 28.8907 104.245 30.0365 106.536C30.0365 106.536 27.9043 119.839 26.3124 128.594L24.0207 141.199L18.8643 160.393L27.1718 162.684L44.0735 115.703L48.9435 142.059L49.8029 160.965L58.6834 160.679L57.5375 127.735C57.5375 127.735 62.694 105.963 53.8134 97.9424C44.9329 89.9212 43.5006 89.9212 43.5006 89.9212L30.6095 92.7859Z" fill="#2F2E41"/>
<path d="M55.9617 159.82L58.2534 167.554L59.6858 174.43C59.6858 174.43 64.8422 182.164 59.6858 181.305C54.5293 180.445 53.9564 177.581 53.9564 177.581V175.862L52.524 175.002V172.138C52.524 172.138 50.5188 170.705 52.524 168.414L51.6646 160.393L55.9617 159.82Z" fill="#2F2E41"/>
<path d="M21.0129 159.82L18.7212 167.554L17.2888 174.43C17.2888 174.43 12.1324 182.164 17.2888 181.305C22.4453 180.445 23.0182 177.581 23.0182 177.581V175.862L24.4505 175.002V172.138C24.4505 172.138 26.4558 170.705 24.4505 168.414L25.3099 160.393L21.0129 159.82Z" fill="#2F2E41"/>
<path d="M41.6383 60.8446C45.5936 60.8446 48.8 57.6382 48.8 53.6829C48.8 49.7276 45.5936 46.5212 41.6383 46.5212C37.683 46.5212 34.4766 49.7276 34.4766 53.6829C34.4766 57.6382 37.683 60.8446 41.6383 60.8446Z" fill="#FBBEBE"/>
<path d="M34.4785 63.4229C34.4785 63.4229 41.9267 66.5741 43.932 66.0011C45.9373 65.4282 46.5102 68.0064 46.5102 68.0064L52.2396 72.017L50.5208 81.7569C50.5208 81.7569 51.9531 86.9133 50.2343 90.351C50.2343 90.351 54.8178 91.7833 53.099 94.0751C53.099 94.0751 56.2502 95.7939 54.5314 99.2315C54.5314 99.2315 45.9373 96.9397 45.0779 92.6427L36.1974 93.7886L29.8951 98.6586C29.8951 98.6586 26.7439 98.3721 27.8898 93.7886C28.5633 90.9497 28.4643 87.9823 27.6033 85.1945L24.4521 65.1417L34.4785 63.4229Z" fill="#575A89"/>
<path d="M25.3989 64.876L24.2551 65.1792C23.8563 65.285 23.4991 65.5094 23.2308 65.8228L22.8601 66.2558C22.4933 66.6843 22.274 67.2195 22.2347 67.7823L21.9798 71.4342L21.5768 89.2139L21.938 100.954L20.0547 109.721L27.1497 110.852L28.1086 89.3065L26.3352 65.5424C26.327 65.433 26.2949 65.3267 26.241 65.2311C26.1871 65.1356 26.1129 65.053 26.0235 64.9894C25.9341 64.9258 25.8318 64.8826 25.7238 64.863C25.6159 64.8434 25.5049 64.8478 25.3989 64.876Z" fill="#575A89"/>
<path d="M43.0417 67.6197C41.8657 64.7721 40.1228 61.7625 38.9723 59.0611C38.1784 55.905 37.9789 53.2033 39.776 51.8209C39.776 48.7815 39.882 46.7991 37.467 45.321C36.8856 45.5745 36.3362 45.896 35.8303 46.2788L35.8284 46.2777C35.7329 46.3473 35.6401 46.4217 35.5487 46.4977C35.5101 46.5296 35.4725 46.5624 35.4344 46.595C35.4141 46.6126 35.3931 46.6296 35.373 46.6473L35.3748 46.6486C34.5075 47.4027 33.8122 48.3343 33.336 49.3804C32.8597 50.4264 32.6136 51.5625 32.6143 52.7118V67.8632H41.4948C41.2011 66.5834 40.8101 65.2572 40.4052 63.9356C41.0463 65.2153 41.6769 66.5036 42.1966 67.76L43.0417 67.6197Z" fill="#2F2E41"/>
<path d="M49.8012 51.8209C45.9201 52.9092 41.5545 52.7298 36.9102 51.8209V46.0915H44.0719C45.5914 46.0915 47.0487 46.6951 48.1231 47.7696C49.1976 48.8441 49.8012 50.3014 49.8012 51.8209V51.8209Z" fill="#2F2E41"/>
<path d="M286.552 16.324H63.7295V155.078H286.552V16.324Z" fill="#E6E6E6"/>
<path d="M119.484 43.0544H78.6738V69.5808H119.484V43.0544Z" fill="white"/>
<path d="M170.193 43.0544H129.383V69.5808H170.193V43.0544Z" fill="white"/>
<path d="M220.903 43.0544H180.093V69.5808H220.903V43.0544Z" fill="white"/>
<path d="M271.611 43.0544H230.801V69.5808H271.611V43.0544Z" fill="white"/>
<path d="M119.484 80.5995H78.6738V107.126H119.484V80.5995Z" fill="white"/>
<path d="M170.193 80.5995H129.383V107.126H170.193V80.5995Z" fill="white"/>
<path d="M220.903 80.5995H180.093V107.126H220.903V80.5995Z" fill="white"/>
<path d="M271.611 80.5995H230.801V107.126H271.611V80.5995Z" fill="white"/>
<path d="M119.484 118.145H78.6738V144.671H119.484V118.145Z" fill="white"/>
<path d="M170.193 118.145H129.383V144.671H170.193V118.145Z" fill="white"/>
<path d="M220.903 118.145H180.093V144.671H220.903V118.145Z" fill="white"/>
<path d="M271.611 118.145H230.801V144.671H271.611V118.145Z" fill="white"/>
<path d="M122.09 32.648C125.471 32.648 128.212 29.9073 128.212 26.5265C128.212 23.1457 125.471 20.405 122.09 20.405C118.709 20.405 115.969 23.1457 115.969 26.5265C115.969 29.9073 118.709 32.648 122.09 32.648Z" fill="white"/>
<path d="M223.298 32.648C226.679 32.648 229.42 29.9073 229.42 26.5265C229.42 23.1457 226.679 20.405 223.298 20.405C219.917 20.405 217.177 23.1457 217.177 26.5265C217.177 29.9073 219.917 32.648 223.298 32.648Z" fill="white"/>
<path d="M124.54 0H119.643V28.1588H124.54V0Z" fill="#E6E6E6"/>
<path d="M225.745 0H220.848V28.1588H225.745V0Z" fill="#E6E6E6"/>
<path d="M260.435 56.3176C260.433 58.5338 259.631 60.6748 258.177 62.3472C256.722 64.0196 254.714 65.1111 252.519 65.4211C250.325 65.7311 248.092 65.2388 246.232 64.0346C244.371 62.8304 243.008 60.9953 242.392 58.8664C241.776 56.7376 241.949 54.4579 242.879 52.4464C243.809 50.4349 245.434 48.8266 247.455 47.917C249.476 47.0074 251.757 46.8577 253.88 47.4954C256.002 48.133 257.823 49.5152 259.008 51.3879C259.94 52.8632 260.435 54.5726 260.435 56.3176Z" fill="#4D49C4"/>
<path d="M259.009 51.388L249.924 60.4706C249.353 59.5866 246.172 55.4787 246.172 55.4787C246.58 55.0667 247.015 54.6827 247.474 54.3294L250.112 57.8463L257.945 50.0137C258.342 50.4372 258.698 50.8973 259.009 51.388Z" fill="white"/>
<path d="M159.014 93.8628C159.012 96.0789 158.21 98.2199 156.756 99.8923C155.302 101.565 153.293 102.656 151.098 102.966C148.904 103.276 146.671 102.784 144.811 101.58C142.95 100.376 141.587 98.5404 140.971 96.4116C140.355 94.2827 140.528 92.003 141.458 89.9915C142.388 87.98 144.013 86.3717 146.034 85.4621C148.055 84.5526 150.336 84.4028 152.459 85.0405C154.581 85.6781 156.402 87.0603 157.587 88.933C158.519 90.4083 159.014 92.1177 159.014 93.8628Z" fill="#4D49C4"/>
<path d="M157.59 88.933L148.506 98.0156C147.935 97.1317 144.754 93.0238 144.754 93.0238C145.162 92.6118 145.597 92.2278 146.056 91.8744L148.694 95.3913L156.526 87.5588C156.923 87.9822 157.28 88.4423 157.59 88.933Z" fill="white"/>
<path d="M108.305 93.8627C108.303 96.0789 107.501 98.2199 106.047 99.8924C104.593 101.565 102.584 102.656 100.389 102.966C98.195 103.276 95.9624 102.784 94.1019 101.58C92.2413 100.376 90.8779 98.5405 90.262 96.4116C89.646 94.2827 89.8191 92.003 90.7492 89.9915C91.6794 87.98 93.3042 86.3716 95.3252 85.4621C97.3461 84.5525 99.6275 84.4028 101.75 85.0404C103.872 85.6781 105.694 87.0603 106.879 88.933C107.811 90.4083 108.305 92.1177 108.305 93.8627Z" fill="#4D49C4"/>
<path d="M106.882 88.933L97.7977 98.0156C97.2268 97.1317 94.0459 93.0238 94.0459 93.0238C94.4536 92.6118 94.8886 92.2278 95.348 91.8744L97.9856 95.3913L105.818 87.5588C106.215 87.9822 106.572 88.4423 106.882 88.933Z" fill="white"/>
</svg>
