<svg width="71" height="49" viewBox="0 0 71 49" fill="none" xmlns="http://www.w3.org/2000/svg">
<g clip-path="url(#clip0)">
<path d="M66.5 48.4841H4.5C2.3 48.4841 0.5 46.6841 0.5 44.4841V4.48413C0.5 2.28413 2.3 0.484131 4.5 0.484131H66.5C68.7 0.484131 70.5 2.28413 70.5 4.48413V44.4841C70.5 46.6841 68.7 48.4841 66.5 48.4841Z" fill="#FCFCFC"/>
<path d="M26.2 32.7841L29.1 16.1841H33.5999L30.7999 32.7841H26.2Z" fill="#005098"/>
<path d="M47.2 16.5842C46.3 16.2842 44.9 15.8842 43.1 15.8842C38.6 15.8842 35.5 18.1842 35.4 21.3842C35.4 23.7842 37.7 25.0842 39.4 25.8842C41.2 26.6842 41.8 27.1842 41.7 27.9842C41.7 29.0842 40.3 29.5842 39 29.5842C37.2 29.5842 36.2 29.2842 34.7 28.6842L34.2 28.4842L33.6 32.1842C34.7 32.6842 36.6 33.0842 38.7 33.0842C43.5 33.0842 46.6 30.8842 46.6 27.3842C46.6 25.4842 45.4 24.0842 42.8 22.8842C41.2 22.0842 40.2 21.5842 40.3 20.7842C40.3 20.0842 41.1 19.3842 42.9 19.3842C44.4 19.3842 45.5 19.6842 46.3 19.9842L46.7 20.1842L47.2 16.5842Z" fill="#005098"/>
<path d="M58.7999 16.1841H55.2999C54.1999 16.1841 53.4 16.4841 52.9 17.5841L46.2 32.7841H51C51 32.7841 51.8 30.7841 52 30.2841C52.5 30.2841 57.0999 30.2841 57.7999 30.2841C57.9 30.8841 58.4 32.7841 58.4 32.7841H62.5L58.7999 16.1841ZM53.2 26.8841C53.6 25.8841 55 22.2841 55 22.2841C55 22.2841 55.3999 21.2841 55.5999 20.6841L55.9 22.0841C55.9 22.0841 56.8 26.0841 56.9 26.8841H53.2Z" fill="#005098"/>
<path d="M22.4 16.1841L18 27.4841L17.5 25.2841C16.7 22.5841 14.1 19.7841 11.2 18.2841L15.3 32.7841H20.1L27.2 16.1841H22.4Z" fill="#005098"/>
<path d="M13.9 16.1841H6.6L6.5 16.5841C12.2 17.9841 16 21.2841 17.5 25.2841L15.9 17.6841C15.6 16.5841 14.9 16.1841 13.9 16.1841Z" fill="#F6A500"/>
<path d="M70.5 10.4841H0.5V4.48413C0.5 2.28413 2.3 0.484131 4.5 0.484131H66.5C68.7 0.484131 70.5 2.28413 70.5 4.48413V10.4841Z" fill="#0A5296"/>
<path d="M0.5 38.4841H70.5V44.4841C70.5 46.6841 68.7 48.4841 66.5 48.4841H4.5C2.3 48.4841 0.5 46.6841 0.5 44.4841V38.4841Z" fill="#F4A428"/>
</g>
<defs>
<clipPath id="clip0">
<rect width="70" height="48" fill="white" transform="translate(0.5 0.484131)"/>
</clipPath>
</defs>
</svg>
