<svg width="40" height="40" viewBox="0 0 40 40" fill="none" xmlns="http://www.w3.org/2000/svg">
<circle cx="20" cy="20" r="20" fill="black" fill-opacity="0.03"/>
<path d="M15.1769 20.5853L21.8521 27.2604C22.0065 27.4149 22.2126 27.5 22.4323 27.5C22.6521 27.5 22.8582 27.4149 23.0126 27.2604L23.5041 26.7689C23.824 26.4487 23.824 25.9282 23.5041 25.6084L17.8988 20.0031L23.5104 14.3916C23.6648 14.2371 23.75 14.0311 23.75 13.8115C23.75 13.5916 23.6648 13.3856 23.5104 13.231L23.0188 12.7396C22.8643 12.5851 22.6583 12.5 22.4385 12.5C22.2188 12.5 22.0127 12.5851 21.8583 12.7396L15.1769 19.4208C15.0221 19.5758 14.9371 19.7827 14.9376 20.0027C14.9371 20.2236 15.0221 20.4304 15.1769 20.5853Z" fill="#3C4759" fill-opacity="0.4"/>
</svg>
