<svg width="32" height="32" viewBox="0 0 32 32" fill="none" xmlns="http://www.w3.org/2000/svg">
<path d="M28.25 0H3.75C1.68225 0 0 1.68225 0 3.75V28.25C0 30.3177 1.68225 32 3.75 32H28.25C30.3177 32 32 30.3177 32 28.25V3.75C32 1.68225 30.3177 0 28.25 0ZM29.5 28.25C29.5 28.9392 28.9392 29.5 28.25 29.5H21.125V19.3125H24.9869L25.625 15.4375H21.125V12.75C21.125 11.6891 21.9391 10.875 23 10.875H25.5625V7H23C19.8173 7 17.2514 9.57812 17.2514 12.7609V15.4375H13.5V19.3125H17.2514V29.5H3.75C3.06075 29.5 2.5 28.9392 2.5 28.25V3.75C2.5 3.06075 3.06075 2.5 3.75 2.5H28.25C28.9392 2.5 29.5 3.06075 29.5 3.75V28.25Z" fill="white"/>
</svg>
