<svg width="16" height="9" viewBox="0 0 16 9" fill="none" xmlns="http://www.w3.org/2000/svg">
<path d="M8.96421 8.5731L15.6393 1.89791C15.7938 1.74352 15.8789 1.53743 15.8789 1.31767C15.8789 1.09792 15.7938 0.891822 15.6393 0.737433L15.1478 0.245852C14.8276 -0.0740237 14.3071 -0.0740237 13.9873 0.245852L8.38202 5.85117L2.77048 0.239632C2.61596 0.0852434 2.40999 1.60615e-07 2.19036 1.63234e-07C1.97048 1.65856e-07 1.76451 0.0852434 1.60987 0.239632L1.11854 0.731214C0.964026 0.885725 0.878906 1.0917 0.878906 1.31145C0.878906 1.53121 0.964026 1.7373 1.11854 1.89169L7.7997 8.5731C7.9547 8.72786 8.16165 8.81285 8.38165 8.81237C8.6025 8.81285 8.80933 8.72786 8.96421 8.5731Z" fill="#3C4759" fill-opacity="0.4"/>
</svg>
