<svg width="12" height="12" viewBox="0 0 12 12" fill="none" xmlns="http://www.w3.org/2000/svg">
<path d="M11.7787 4.27077C11.6416 4.11685 11.4542 4.01673 11.25 3.98831L8.06075 3.54733L6.7987 0.531669C6.61442 0.0902612 6.1072 -0.118177 5.66582 0.0661054C5.45539 0.153965 5.28809 0.321248 5.20025 0.531669L3.9382 3.54733L0.748993 3.98788C0.273838 4.05402 -0.0577381 4.49287 0.00840142 4.96803C0.0368258 5.17222 0.136939 5.35964 0.290863 5.49679L2.69371 7.6395L2.19999 11.0018C2.14651 11.3432 2.30332 11.6834 2.59769 11.8645C2.88791 12.0501 3.26122 12.0431 3.54433 11.8469L5.99945 10.1773L8.45457 11.8486C8.85073 12.1175 9.38987 12.0143 9.65877 11.6182C9.78095 11.4381 9.831 11.2187 9.79893 11.0035L9.30525 7.6399L11.7081 5.49719C12.0663 5.17804 12.0979 4.62894 11.7787 4.27077Z" fill="#247FA6"/>
</svg>
