<svg width="21" height="21" viewBox="0 0 21 21" fill="none" xmlns="http://www.w3.org/2000/svg">
<g clip-path="url(#clip0)">
<path d="M2.51315 16.5055C2.0916 17.2784 2.13634 18.1815 2.63085 18.9151L2.6309 18.9152C3.12421 19.6463 3.97365 20.0766 4.8967 20.0766H16.3769C17.2999 20.0766 18.1493 19.6463 18.6428 18.915L18.6428 18.915C19.1372 18.1815 19.1819 17.2784 18.7604 16.5055L13.3055 6.50501V2.80226C13.6534 2.73468 13.9331 2.44892 13.9331 2.08038C13.9331 1.65727 13.5645 1.34327 13.1472 1.34327H8.12634C7.70903 1.34327 7.34041 1.65727 7.34041 2.08038C7.34041 2.44892 7.62007 2.73468 7.96798 2.80226V6.50501C7.85868 6.70541 7.65054 7.08698 7.37283 7.59611C6.24701 9.66006 3.97769 13.8204 2.51315 16.5055ZM2.51315 16.5055L2.68855 16.6012L2.51314 16.5055C2.51315 16.5055 2.51315 16.5055 2.51315 16.5055ZM9.27806 6.923L9.45362 7.0188C9.51009 6.91533 9.5399 6.80021 9.5399 6.6828V2.81749H11.7336V6.6828C11.7336 6.80031 11.7635 6.91536 11.8199 7.01873L11.8199 7.01877L11.9955 6.923L11.8199 7.01884L11.8201 7.01907L11.8206 7.01995L11.8225 7.02347L11.8301 7.03745L11.86 7.09234L11.9755 7.30401L12.4028 8.08744L13.8362 10.7151L17.361 17.1775L17.5366 17.0817L17.361 17.1775C17.5275 17.4827 17.5107 17.8351 17.3143 18.1265C17.1159 18.4206 16.7678 18.6024 16.3769 18.6024H4.8967C4.5057 18.6024 4.15764 18.4206 3.95933 18.1266C3.7628 17.835 3.74605 17.4826 3.9125 17.1775L3.91251 17.1775L7.43738 10.7151L8.8707 8.08745L9.29805 7.30401L9.41351 7.09234L9.44345 7.03745L9.45107 7.02347L9.453 7.01995L9.45348 7.01907L9.4536 7.01884L9.27806 6.923Z" fill="#4D49C4" stroke="#4D49C4" stroke-width="0.4"/>
<path d="M11.265 9.59753H10.0098C9.68617 9.59753 9.42383 9.83802 9.42383 10.1346C9.42383 10.4313 9.68617 10.6718 10.0098 10.6718H10.6791V11.8988H10.0098C9.68617 11.8988 9.42383 12.1392 9.42383 12.4359C9.42383 12.7325 9.68617 12.973 10.0098 12.973H10.6791V14.2H10.0098C9.68617 14.2 9.42383 14.4405 9.42383 14.7371C9.42383 15.0337 9.68617 15.2742 10.0098 15.2742H10.6791V16.5012H10.0098C9.68617 16.5012 9.42383 16.7417 9.42383 17.0383C9.42383 17.3349 9.68617 17.5754 10.0098 17.5754H11.265C11.5886 17.5754 11.8509 17.3349 11.8509 17.0383V10.1347C11.8509 9.83802 11.5886 9.59753 11.265 9.59753Z" fill="#4D49C4"/>
</g>
<defs>
<clipPath id="clip0">
<rect width="20" height="20" fill="white" transform="translate(0.636719 0.709961)"/>
</clipPath>
</defs>
</svg>
