<svg width="24" height="24" viewBox="0 0 24 24" fill="none" xmlns="http://www.w3.org/2000/svg">
<path d="M17.7877 11.2976L9.77749 3.28756C9.59223 3.10215 9.34491 3 9.08121 3C8.8175 3 8.57019 3.10215 8.38492 3.28756L7.79502 3.87731C7.41117 4.2616 7.41117 4.88618 7.79502 5.26988L14.5214 11.9963L7.78756 18.7301C7.60229 18.9155 7.5 19.1627 7.5 19.4263C7.5 19.6901 7.60229 19.9373 7.78756 20.1228L8.37745 20.7124C8.56287 20.8979 8.81004 21 9.07374 21C9.33745 21 9.58476 20.8979 9.77003 20.7124L17.7877 12.695C17.9734 12.509 18.0754 12.2607 18.0748 11.9967C18.0754 11.7317 17.9734 11.4835 17.7877 11.2976Z" fill="white"/>
</svg>
